<?xml version="1.0" encoding="utf-8"?>
<!-- Generator: Adobe Illustrator 24.0.0, SVG Export Plug-In . SVG Version: 6.00 Build 0)  -->
<svg version="1.1" id="_x2014_ÎÓÈ_x5F_1" xmlns="http://www.w3.org/2000/svg" xmlns:xlink="http://www.w3.org/1999/xlink"
	 x="0px" y="0px" viewBox="0 0 103.54 123.31" style="enable-background:new 0 0 103.54 123.31;" xml:space="preserve">
<style type="text/css">
	.st0{fill:#e4d1aa;}
</style>
<path class="st0" d="M80.04,110.04c-0.42-0.41-0.85-0.75-1.18-1.17c-2.19-2.8-5.02-3.06-8.16-1.95c-1.06,0.38-2,0.97-3.09,0.02
	c-0.25-0.22-0.88,0.02-1.32-0.05c-0.4-0.06-0.93-0.13-1.16-0.4c-0.98-1.16-2.43-1.51-3.65-2.24c-0.65-0.39-1.67-0.39-1.77-1.45
	c-1.64-0.79-2.91-2.6-4.97-2.17c-0.82,0.17-1.41-1.08-2.27-0.04c-0.88,1.07-1.91,1.98-1.8,3.51c0.01,0.18-0.02,0.36,0.01,0.53
	c0.24,1.42-0.43,2.23-1.76,2.69c-0.7,0.24-1.4,0.54-2.01,0.95c-0.28,0.19-0.56,0.93-0.46,1.02c0.92,0.83,0.24,1.48-0.04,2.28
	c-0.24,0.69-0.24,1.39-0.64,2.13c-0.71,1.35-1.43,2.73-1.64,4.37c-0.23,1.88-1.23,3.58-3.31,4.15c-1.68,0.46-3.32,1.17-5.17,1.07
	c-0.03-0.4-0.12-0.67-0.06-0.9c0.47-1.72-1.23-1.94-2.01-2.78c-0.08-0.09-0.38,0.05-0.52-0.02c-0.74-0.37-1.71-0.62-2.14-1.22
	c-0.49-0.69-0.64-1.7-0.71-2.59c-0.21-2.47-0.68-3.01-3.36-3.03c-1.72-0.01-3.08-0.85-4.42-1.66c-0.47-0.28-0.75-1.1-0.84-1.71
	c-0.14-0.95-0.37-2.11,0.04-2.86c0.63-1.15,0.07-2.02,0.01-3.04c-0.08-1.26-0.44-2.15-1.41-2.9c-0.57-0.44-1.04-0.93-0.86-1.78
	c0.06-0.28-0.11-0.67-0.3-0.92c-1.52-1.93-3.63-3.07-5.81-4.1c-0.37-0.17-0.87-0.09-1.3-0.1c-2.16-0.03-2.06-0.26-3.72-0.98
	c-1.22-0.53-1.25-1.23-1.25-2.19c0.01-2.29-0.03-4.59,0.01-6.88c0.02-1.32-0.12-2.53-1.14-3.51c-0.23-0.22-0.51-0.6-0.45-0.85
	c0.2-0.92-0.59-0.88-1.05-1.13c-0.91-0.48-1.81-0.82-1.76-2.19c0.02-0.6-0.69-1.4-1.28-1.79c-0.94-0.62-0.65-1.69-1.25-2.45
	c-0.46-0.59,0.9-2.28,1.74-2.36c1.67-0.15,3.21,0.38,4.74,0.9c1.74,0.58,3.06-0.63,4.57-1c0.09-0.02,0.14-0.28,0.19-0.44
	c0.73-2.62,0.66-3.38-0.54-5.95c-0.35-0.74-0.77-1.46-1.02-2.23c-0.12-0.36,0.05-0.82,0.12-1.23c0.03-0.19,0.23-0.47,0.16-0.55
	c-1.18-1.41-0.84-3.08-0.86-4.68c-0.02-1.59,0-3.17-0.01-4.76c-0.01-1.48-0.2-2.89,1.36-3.99c0.74-0.52,0.61-1.86,0.92-2.76
	c0.33-0.97,0.51-1.66,0.03-2.57c-0.22-0.42-0.18-1.02-0.14-1.52c0.17-2.13-0.46-4.31,0.48-6.41c0.17-0.39-0.32-1.06-0.49-1.61
	c-0.14-0.43-0.37-0.87-0.34-1.3c0.02-0.37,0.31-0.75,0.55-1.09c0.34-0.48,1.11-0.74,0.86-1.49c-0.28-0.85-0.48-1.82-1.05-2.47
	c-1.19-1.37-2.44-2.77-4.13-3.56C5.89,20,5.51,18.79,5.47,17.69c-0.06-1.59-0.46-3.23,0.41-4.83c0.37-0.69,0.09-1.73,0.05-2.61
	C5.89,9.25,6.2,8.72,7.31,8.44C9,8.03,10.6,7.52,12.28,8.47c0.27,0.15,0.71,0.01,1.07,0.02c1.56,0.07,3.08-0.05,4.65,0.46
	c1.63,0.53,2.42-0.32,2.5-2.15c0.03-0.7,0.02-1.41,0-2.12c-0.01-0.56-0.02-0.92,0.79-1.03c0.5-0.07,1.05-0.73,1.31-1.25
	c0.26-0.53,0.03-1.1-0.43-1.64c-0.3-0.35,0.1-0.93,0.66-0.73c2.67,0.97,5.43,0.29,8.14,0.53c0.83,0.07,1.64,0.41,2.48,0.49
	c0.89,0.09,1.79,0.03,2.69,0.02c0.69-0.01,1.28-0.15,1.97-0.45c1.54-0.68,3.14-0.55,4.75,0.32c0.91,0.49,1.81,1.15,2.99,1.24
	c0.68,0.05,1.21,0.86,2.05,0.01c0.27-0.27,1.27-0.24,1.94,0.34c0.95,0.81,2.2,1.28,3.12,2.11c1.92,1.73,3.74,3.56,5.54,5.41
	c0.96,0.98,1.75,2.12,2.7,3.12c0.45,0.48,0.85,1,1.64,1.21c0.5,0.13,0.7,1.11,1.18,1.56c1.14,1.05,2.27,2.18,3.61,2.94
	c0.79,0.45,1.42,0.98,2.01,1.58c0.46,0.47,0.68,1.21,1.19,1.6c0.5,0.38,1.25,0.43,1.84,0.72c0.53,0.26,1.16,0.55,1.44,1.01
	c1.03,1.7,2.98,2.82,3.13,5.09c0.04,0.57,0.71,1.11,1.09,1.65c0.88,1.25,1.34,2.63,1.53,4.14c0.45,3.48,1.47,6.69,4.36,9.08
	c1.16,0.96,2.18,2.1,3.25,3.17c0.36,0.37,0.82,0.73,0.99,1.18c0.73,1.95,2.51,2.83,4.14,3.72c2.09,1.16,4.24,2.26,6.67,2.73
	c0.82,0.16,1.58,0.78,1.61,1.79c0.01,0.49,0.05,0.84,0.69,0.83c0.32,0,0.65,0.14,0.96,0.27c0.37,0.16,0.97,0.34,1.01,0.58
	c0.09,0.56,0.07,1.26-0.22,1.73c-0.79,1.28-1.78,2.45-2.61,3.71c-0.26,0.39-0.24,0.95-0.41,1.42c-0.75,2.08-1.83,4.02-2.84,5.98
	c-0.86,1.67-1.59,3.42-2.53,5.05c-0.32,0.55-0.41,1.53-1.44,1.49c-0.28,1.52-2.1,2.82-0.67,4.58c0.66,3.11,1.97,6.11,1.64,9.39
	c-0.04,0.45,0.31,0.93,0.4,1.41c0.39,2.04,1.35,3.97,1.22,6.13c-0.05,0.8,0.52,1.63,0.45,2.42c-0.09,1.06,0.6,1.55,1.11,2.22
	c0.08,0.1,0.04,0.42-0.06,0.48c-0.2,0.13-0.54,0.29-0.7,0.2c-0.59-0.31-1.11-0.76-1.71-1.07c-1.11-0.56-2.21-1.26-3.4-1.5
	c-1.24-0.25-2.39,0-3.64,0.93C85.17,104.79,82.93,107.63,80.04,110.04z"/>
<path class="st0" d="M211.63,276.23c-0.27-0.96-0.31-1.68-0.65-2.22c-0.89-1.46-0.49-2.56,0.72-3.61c0.1,0.22,0.24,0.37,0.23,0.52
	c-0.12,1.79-0.09,1.95,1.02,2.85c0.71,0.58,1.41,1.23,2.23,1.63c1.53,0.75,2.19,0.46,2.68-1.1c0.27-0.87,0.68-1.37,1.64-1.24
	c1.36,0.19,2.81-0.48,4.12,0.49c0.23,0.17,0.89,0.01,1.21-0.21c2.48-1.65,4.59-3.67,6.27-6.12c0.09-0.14,0.27-0.31,0.25-0.42
	c-0.49-1.91,1.68-2.47,2.08-3.93c0.05-0.2,0.57-0.3,0.88-0.37c0.05-0.01,0.29,0.41,0.27,0.62c-0.08,1.41,0.71,2.37,1.62,3.32
	c1.07,1.13,2.07,2.32,3.04,3.52c0.19,0.23,0.11,0.65,0.22,0.96c0.07,0.2,0.29,0.52,0.41,0.51c1.65-0.13,3.3,1.37,4.95,0.02
	c1.06,0.24,2.13,0.47,3.19,0.74c0.56,0.14,1.1,0.37,1.8,0.6c-0.7,0.64-1.36,1.21-1.99,1.82c-1.63,1.59-1.94,2.59-0.76,4.47
	c0.63,1.01,0.5,1.16-0.47,1.53c-0.65,0.25-0.42,1.92,0.21,1.85c1.3-0.14,1.6,0.86,1.74,1.44c0.33,1.32,1.18,1.39,2.18,1.28
	c0.83-0.09,1.64-0.44,2.48-0.49c1.08-0.07,1.39-1,2.06-1.52c0.67-0.53,1.15-1.1,2.21-1.22c1.54-0.18,1.65-0.42,1.92,0.81
	c0.36,1.62,1.3,2.7,2.81,3.3c0.84,0.33,1.31,0.82,1.72,1.65c0.73,1.47,1.96,2.34,3.81,2.3c1.54-0.04,3.08-0.14,4.66,0.4
	c1,0.34,2.32,0.27,3.56-0.34c0.93-0.46,2.29-0.09,3.46-0.09c1.53,0,3.06-0.03,4.58,0.01c0.65,0.02,1.2-0.08,1.68-0.53
	c0.08-0.07,0.42-0.03,0.48,0.06c0.13,0.2,0.29,0.58,0.21,0.68c-1.05,1.14-0.3,2.77-1.24,4.02c-0.82,1.08-1.38,2.45-1.72,3.77
	c-0.45,1.74-0.41,3.52,0.06,5.32c0.36,1.36,0.94,2.71,0.78,4.19c-0.11,1-0.51,1.29-1.52,0.83c-0.83-0.38-1.76-0.64-2.53-1.02
	c-0.99-0.5-1.88-0.29-2.81-0.37c-0.22-0.02-0.62,0.27-0.69,0.49c-0.29,0.94-0.96,1.11-1.82,1.08c-0.81-0.03-1.62,0.02-2.42-0.02
	c-0.21-0.01-0.55-0.17-0.6-0.33c-0.06-0.19,0.09-0.48,0.21-0.68c0.26-0.43,0.64-0.8,0.8-1.26c0.13-0.36,0.15-0.97-0.55-0.88
	c-0.76,0.1-1.54-0.3-2.29,0.36c-0.54,0.47-0.78,0.06-0.94-0.61c-0.5-2.05-1.22-2.32-2.9-1.36c-1.1,0.63-0.88,1.62-0.82,2.55
	c0.05,0.79,0.57,1.18,1.42,1.19c0.24,0,0.48,0.32,0.72,0.49c-0.23,0.18-0.43,0.47-0.68,0.53c-0.9,0.22-1.82,0.5-2.74,0.51
	c-0.79,0.01-1.13,0.49-1.5,0.93c-1.59,1.88-4.02,2.43-6,3.69c-0.45,0.29-1.24,0.03-1.77,0.26c-0.43,0.18-0.24,0.95-1.15,1.05
	c-1.39,0.16-2.71,0.79-4.12,1.1c-1.2,0.27-2.53,0.7-3.63,1.64c-0.88,0.75-2.25,0.99-3.44,1.36c-1.44,0.44-2.77,1.25-4.38,1.16
	c-0.54-0.03-1.1,0.46-1.66,0.47c-2.15,0.05-4.3,0-6.45-0.02c-1.38-1.43-3.44-1.75-4.98-2.85c-1.34-0.95-2.71-1.36-4.3-1.35
	c-0.9,0.01-1.8,0.01-2.7,0c-0.58-0.01-1.35,0.23-1.22-0.82c-0.97-0.26-1.93-0.63-2.91-0.74c-1.24-0.13-2.56,0.18-3.75-0.1
	c-1.01-0.24-1.86-1.08-2.82-1.59c-1.98-1.06-4-2.04-5.96-3.12c-1.14-0.63-2.35-0.48-3.56-0.52c-0.42-0.01-1,0.12-0.89-0.56
	c0.03-0.19,0.45-0.36,0.71-0.49c1.51-0.73,2.94-1.5,3.06-3.44c0.02-0.37,0.27-0.84,0.56-1.07c1.92-1.49,2.92-3.25,3.94-4.98
	c0.2-0.34,0.29-0.79,0.31-1.19c0.05-0.79-0.07-1.6,0.03-2.38c0.34-2.61-1.02-4.25-3.15-5.46c-1.14-0.65-1.84-1.45-2.39-2.78
	c-0.61-1.46-0.65-3.04-1.41-4.46c-0.52-0.97,0.16-2.15,0.93-2.99c1.03-1.1,2.14-2.14,3.24-3.18c0.12-0.11,0.39-0.17,0.56-0.13
	c2.06,0.46,4.09,0.58,6.13-0.2C209.92,276.06,210.6,276.23,211.63,276.23z"/>
<path class="st0" d="M126.19,229.15c-2.06-0.05-3.88-0.13-5.53,0.88c-0.32,0.2-1.07,0.28-1.21,0.1c-0.69-0.87-1.19-0.26-1.77,0.07
	c-1.59,0.91-3.26,1.6-5.02,2.16c-1.65,0.52-3.01,1.76-4.78,2.09c-0.23,0.04-0.49,0.19-0.65,0.36c-0.31,0.34-0.56,0.74-0.83,1.11
	c0.36,0.21,0.7,0.48,1.08,0.62c1.05,0.38,2.12,0.72,3.28,0.55c0.42-0.06,0.86-0.01,1.41-0.01c0,0.92,0.04,1.7-0.01,2.48
	c-0.1,1.42,0.13,2.69,1.2,3.76c0.26,0.26,0.44,0.77,0.4,1.14c-0.17,1.76,0.39,3.08,2.06,3.9c0.3,0.15,0.52,0.48,0.77,0.74
	c0.7,0.74,0.63,0.9-0.45,1.22c-0.56,0.16-1.15,0.28-1.66,0.54c-0.9,0.48-1.54,0.31-1.97-0.5c-1.17,0.93-2.32,1.84-3.46,2.76
	c-0.71,0.57-0.85,1.83-2.33,1.51c-0.52-0.11-0.82,1.26-1.92,1.02c-0.86-0.19-1.8-0.12-2.68-0.01c-0.83,0.1-1.54,0.67-2.48,0.53
	c-0.6-0.09-0.69-0.38-1.02-0.79c-0.98-1.23-1.15-2.26-0.17-3.53c0.39-0.5,0.56-1.18,0.76-1.8c0.07-0.2-0.02-0.61-0.17-0.69
	c-1.16-0.64-1.99-1.94-3.6-1.7c-2.67,0.4-4.89-0.53-6.88-2.23c-0.94-0.81-1.47-0.57-2.01,0.66c-0.26,0.6-0.44,1.24-0.78,1.8
	c-0.97,1.61-2.81,1.41-4.32,1.87c-0.49,0.15-1.07,0.03-1.61,0.02c-0.97-0.01-1.81-0.07-2.24,1.22c-0.35,1.05-1.66,1.24-2.63,0.63
	c-1.14-0.72-2.16-1.72-3.39-2.18c-1.4-0.52-1.94-1.63-2.5-2.7c-0.64-1.2-1.01-2.54-2.36-3.24c-0.19-0.1-0.34-0.4-0.36-0.63
	c-0.19-1.67-1.25-2.54-2.63-3.42c-2.06-1.33-3.24-3.47-4.21-5.66c-0.2-0.45-0.21-1.01-0.17-1.51c0.07-0.8-0.11-1.54-0.57-2.15
	c-0.66-0.87-0.23-1.59-0.09-2.5c0.28-1.73,1.5-2.14,2.68-2.13c1.94,0.02,3.08-1.31,4.55-2.06c0.56-0.29,0.57-0.74,0.11-1.28
	c-0.23-0.28-0.35-1.06-0.19-1.18c1.55-1.13,2.64-3.03,4.94-2.96c0.54,0.02,1.08-0.01,1.62,0.01c0.58,0.02,1.1,0.02,1-0.8
	c-0.01-0.06,0.46-0.28,0.66-0.24c0.48,0.11,1.01,0.23,1.39,0.52c1.48,1.15,3.44,1.39,4.88,2.44c0.75,0.55,1.59,0.55,2.31,1.01
	c0.46,0.29,1.22,0.32,1.76,0.17c0.22-0.06,0.23-0.9,0.3-1.39c0.23-1.65,1.41-2.95,1.71-4.62c0.14-0.8,1.49-1.16,1.67-2.22
	c0.02-0.1,0.54-0.05,0.68-0.21c0.48-0.49,1.14-0.98,1.28-1.58c0.21-0.92,0.28-2.01-0.04-2.86c-0.21-0.56-0.81-1.25-1.79-1.38
	c-2.15-0.28-2.25-0.62-1.37-2.6c0.46-1.04,1.29-1.96,1.13-3.26c-0.07-0.58-0.2-1.2-0.67-1.29c-1.06-0.18-1.06-1.19-1.65-1.73
	c-0.61-0.55-1.29-1.29-1.42-2.03c-0.16-0.86-1.8-0.69-1.16-1.89c0.15-0.29,0.1-0.82,0.3-0.91c1.57-0.74,2.3-2.56,4.08-2.98
	c0.17-0.04,0.38,0.1,0.57,0.13c0.99,0.17,1.94-0.46,2.06-1.36c0.25-1.81,1.23-3.49,1.08-5.38c0.74-0.69,1.48-1.38,2.24-2.06
	c0,0,0.46,0.37,0.43,0.46c-0.94,2.41-1.04,5.02-1.89,7.44c-0.16,0.45-0.31,0.7,0.02,1.12c0.16,0.21,0.24,0.68,0.11,0.87
	c-0.32,0.45-0.77,0.9,0.02,1.19c0.87,0.32,0.56-0.65,0.86-0.97c0.33-0.36,0.48-0.87,0.79-1.25c0.54-0.67,1.25-1.24,1.7-1.97
	c0.37-0.61,0.46-1.39,0.79-2.47c0.48,1.24,0.27,2.16,0.31,3.05c0.04,0.79-0.07,1.6,0.03,2.38c0.12,1.02,0.7,1.84,1.71,2.14
	c1.1,0.33,2.21,0.5,3.13-0.57c0.38-0.44,0.61-0.82,0.53-1.38c-0.14-1,0.66-1.99,0.03-3.02c-0.06-0.09,0.3-0.6,0.51-0.63
	c0.34-0.05,1,0.09,1.03,0.24c0.33,1.72,2.16,1.83,3.15,2.84c0.97,0.98,1.58,1.43,1.02,2.6c-0.62,1.29-1.09,2.72-3.03,2.83
	c-0.63,0.04-1.17,0.96-1.81,1.41c-1.03,0.72-2.14,1.34-3.16,2.08c-0.63,0.46-1.1,1.02-1.02,1.97c0.16,1.83-0.56,3.26-2.17,4.37
	c-1.1,0.77-2.16,1.72-2.37,3.26c-0.05,0.38-0.31,0.63-0.07,1.11c0.75,1.46,1.03,1.84,2.63,2.54c1.73,0.75,3.47,1.36,5.43,1.21
	c1.28-0.1,2.55-0.1,3.7,0.82c0.73,0.58,1.56,0.26,1.98-0.54c0.45-0.87,0.86-1.78,1.11-2.72c0.23-0.9,0.69-1.32,1.62-1.29
	c0.63,0.02,1.26,0.03,1.89,0c0.61-0.03,1.73-0.08,1.74-0.16c0.05-1.02,1.41-1.29,1.31-2.43c-0.07-0.79,0.35-1.61,0.48-2.42
	c0.11-0.69,0-1.14-0.86-1.52c-0.6-0.27-0.81-1.36-1.16-2.1c-0.02-0.04,0.35-0.37,0.43-0.33c1.47,0.69,3.15,0.72,4.62,1.21
	c2.44,0.82,4.57,0.12,6.75-0.54c0.77-0.24,1.5-0.86,2.05-1.48c0.77-0.86,1.98-1.25,2.5-2.37c0.07-0.14,0.53-0.07,0.69-0.21
	c0.37-0.32,0.68-0.53,1.13-0.13c1.16,1.01,2.44,1.78,4.04,1.94c0.28,0.03,0.64,0.4,0.74,0.69c0.07,0.2-0.22,0.55-0.42,0.79
	c-1.06,1.28-1.22,2.86-1.62,4.37c-0.24,0.93-0.45,1.79,0.3,2.63c0.58,0.64,0.36,1.29-0.28,1.79c-0.81,0.63-1.35,1.5-2.41,1.95
	c-0.76,0.32-1.1,1.47-1.82,2c-0.71,0.53-1.82,0.57-2.44,1.15c-0.53,0.5-0.74,1.45-0.87,2.23c-0.15,0.92,0.16,1.94-0.9,2.57
	c-0.16,0.09-0.23,0.47-0.2,0.69c0.25,1.42-0.58,2.95,0.5,4.3c0.17,0.21,0.15,0.84-0.03,1c-0.46,0.42-0.52,0.87-0.49,1.41
	C126.21,228.06,126.19,228.5,126.19,229.15z"/>
<path class="st0" d="M289.24,312.74c-0.2-1.05-0.08-2.16-0.58-2.63c-0.66-0.62-1.8-0.77-2.74-1.06c-0.31-0.1-0.68-0.02-1.18-0.02
	c0-0.71-0.03-1.31,0.01-1.9c0.12-1.97-0.26-3.83-0.95-5.7c-0.3-0.82-0.37-1.76,0.29-2.69c0.6-0.84,1.16-1.97,1.1-2.94
	c-0.07-1.23,1.45-1.46,1.25-2.75c-0.13-0.85,0.58-1.83,0.93-2.75c0.11-0.29,0.31-0.83,0.39-0.82c1.81,0.29,3.06-1.79,4.95-1.11
	c0.13,0.05,0.32-0.06,0.65-0.13c0-0.3,0.06-0.64-0.01-0.96c-0.13-0.55-0.56-1.12-0.48-1.63c0.15-0.91,1.02-0.3,1.55-0.44
	c0.9-0.24,1.19-0.82,0.79-1.64c-0.14-0.29-0.17-0.72-0.4-0.88c-1.72-1.22-1.18-2.61-0.36-4c0.55-0.94,1-1.84,1.13-3
	c0.2-1.81,2.48-3.09,4.27-2.64c0.31,0.08,0.62,0.32,0.83,0.57c0.6,0.71,1.05,1.58,1.75,2.17c0.85,0.72,0.53,1.58,0.65,2.4
	c0.11,0.73,0.32,1.45,0.54,2.16c0.09,0.31,0.26,0.69,0.51,0.83c1.15,0.67,2.34,1.27,3.51,1.89c1.55-0.84,3.6-0.14,4.96-1.64
	c1.2-1.31,2.66-2.4,3.76-3.78c1.57-1.95,3.71-2.62,6.02-3.02c1.01-0.17,2.03-0.15,2.36-1.4c0.02-0.08,0.64-0.13,0.87-0.01
	c0.28,0.15,0.64,0.52,0.62,0.77c-0.15,1.87,1.07,2.97,2.25,4.12c0.79,0.77,1.67,1.44,1.77,2.73c0.05,0.58,0.67,1.13,1.09,1.65
	c0.53,0.66,1.18,1.17,1.58,2c0.33,0.69,1.01,1.48,2.13,1.23c0.88-0.2,1.52,0.2,2.06,0.85c1.61,1.96,3.67,3.34,6.01,4.26
	c0.9,0.35,1.45,0.83,1.66,1.69c0.22,0.92,1.09,1.18,1.72,1.61c0.73,0.5,1.7,0.66,2.48,1.12c1.05,0.62,2.02,1.34,2.65,2.45
	c0.37,0.66,0.8,1.39,1.41,1.78c1.42,0.92,1.83,2.2,1.81,3.74c-0.01,0.62,0.04,1.24-0.01,1.85c-0.06,0.8-1.09,1.84-1.91,1.77
	c-1.28-0.11-2.63,0.48-3.85-0.47c-0.27-0.21-1-0.21-1.3,0c-1.13,0.78-2.39,0.55-3.57,0.46c-1.69-0.12-3.27,0.52-4.9,0.53
	c-1.81,0-3.62-0.32-5.43-0.49c-1.24-0.12-2.39,0.32-3.37,0.93c-0.95,0.58-1.28,1.66-1.6,2.76c-0.51,1.75-1.27,3.39-2.76,4.71
	c-1.64,1.45-2.37,3.59-3.06,5.6c-0.4,1.15-1.39,2.09-1.18,3.52c0.14,1,0.21,1.99,0.65,2.92c0.21,0.44,0.39,0.91,0.47,1.39
	c0.2,1.17-0.35,2.3-0.05,3.54c0.29,1.17,0.09,2.45,0.05,3.69c-0.01,0.4-0.13,0.85-0.35,1.17c-0.35,0.49-0.1,0.74,0.18,1.12
	c0.14,0.19-0.01,0.58-0.03,0.88c-0.24-0.03-0.55,0.02-0.72-0.1c-0.84-0.59-1.69-1.17-2.44-1.87c-1.2-1.11-2.39-2.21-3.13-3.74
	c-0.43-0.89-1.06-1.68-1.93-2.39c-1.32-1.07-2.83-2.11-3.51-3.82c-0.12-0.3-0.57-0.74-0.74-0.7c-1.42,0.39-1.95-1.18-3.29-1.29
	c-1.56-0.13-3.67-2.26-5.08-3.76c-0.87-0.93-1.91-1.77-3.01-2.42c-1.62-0.95-2.8-2.34-4.14-3.58c-0.49-0.46-0.47-0.49-0.93-1.78
	c-0.2-0.57-0.62-1-1.37-0.97C291.45,312.77,290.37,312.74,289.24,312.74z"/>
<path class="st0" d="M205.31,189.89c-0.39-0.15-0.77-0.27-1.12-0.44c-1.41-0.69-2.75-1.75-4.25-2.03c-1.91-0.35-4.03-0.45-5.89-0.01
	c-3.18,0.75-6.35,0.15-9.5,0.48c-1.54,0.16-2.89-0.55-4.36-0.59c-0.21-0.01-0.42-0.37-0.61-0.59c-0.92-1.12-1.79-2.28-2.74-3.38
	c-0.88-1.02-1.31-1.11-2.37-0.19c-0.74,0.64-1.65,0.72-2.18,0.37c-1.87-1.22-4.06-1.07-6.32-1.7c0.22-0.85,0.27-1.82,0.72-2.54
	c0.68-1.1,0.66-2.01-0.03-3.03c-0.37-0.54-0.5-1.28-0.96-1.71c-1.07-0.98-1.06-2.41-1.71-3.56c-0.34-0.6,0.07-1.01,0.86-1.12
	c0.42-0.06,0.97-0.03,1.21-0.27c0.32-0.32,0.41-0.87,0.59-1.33c0.03-0.08,0.02-0.18,0-0.26c-0.29-1.53,0.3-2.66,1.52-3.63
	c0.87-0.7,1.58-1.13,2.61-1.4c1.44-0.38,2.72-1.04,3.43-2.47c1.17-2.35,1.26-2.4-0.25-4.3c-0.59-0.74-0.97-1.38-0.84-2.32
	c0.19-1.34-0.26-2.69,0.49-4.04c0.51-0.92,0.06-1.6-0.85-2.19c-0.13-0.08-0.41,0.01-0.49-0.08c-0.45-0.51-0.87-1.05-1.29-1.58
	c0.54-0.33,1.06-0.7,1.63-0.98c2-1,3.79-2.34,6.14-2.75c1.07-0.18,1.71-1.58,1.93-2.81c0.07-0.43-0.04-0.89,0.02-1.32
	c0.14-0.94,0.89-1.64,1.8-1.58c1.39,0.09,2.53-0.3,3.53-1.26c0.41-0.39,0.97-0.66,1.51-0.86c1.75-0.66,3.18-1.66,3.93-3.41
	c2.26-1.14,1.47-3.09,0.99-4.65c-0.37-1.21-0.35-2.66-1.5-3.63c-0.3-0.26-0.59-0.78-0.08-1.42c0.43-0.53,0.5-1.39,0.56-2.12
	c0.05-0.56,0.03-1.35-0.31-1.66c-0.59-0.53-1.42-0.88-2.21-1.08c-1.35-0.35-2.64-0.7-4.17-0.14c-0.93,0.35-2.39-0.14-3.4-0.67
	c-0.87-0.45-1.26-1.54-1.21-2.63c0.03-0.66,0.19-1.39-0.89-1.48c-0.26-0.02-0.69-0.48-0.69-0.73c0.03-1.34-0.57-1.87-1.91-1.84
	c-0.27,0-0.82-0.65-0.77-0.93c0.36-2.39-1.31-3.45-3.04-4.24c-0.82-0.38-0.85-0.39-0.52-1.17c0.66-1.58,0.48-1.82-1.16-2.69
	c-1.24-0.66-1.27-0.66-1.25-2.09c0.02-1.68-0.22-3.36,0.94-4.92c0.67-0.9-0.23-2.74-1.35-3.48c-0.35-0.23-0.88-0.36-1.03-0.67
	c-0.28-0.58-1.38-0.05-1.26-1.03c0.1-0.83-0.28-1.77,0.66-2.38c0.15-0.1,0.28-0.23,0.38-0.37c0.72-1,1.4-1.21,1.79-0.37
	c0.69,1.48,2.3,2.57,2.03,4.46c-0.02,0.17-0.08,0.43,0.01,0.52c0.8,0.76,1.01,1.65,1.15,2.74c0.13,0.97,0.51,1.94,0.46,2.97
	c0,0.08-0.02,0.19,0.03,0.25c1.62,2.3,1.99,5.3,4.18,7.3c0.52,0.47,1.73,3.68,1.7,4.58c-0.02,0.81,0.33,1.27,1.03,1.6
	c0.84,0.39,1.8,0.62,2.35,1.45c0.47,0.7,1.16,0.73,1.88,0.66c2.03-0.18,3.71,0.61,5.08,1.97c0.58,0.58,1.15,0.72,1.89,0.68
	c1.79-0.11,3.46,0.03,4.77,1.51c0.33,0.38,1.05,0.53,1.61,0.58c2.71,0.22,5.42,0.42,8.13,0.54c2.06,0.09,2.06,0.03,2.94,2.14
	c0.16,0.38,1.63,0.88,2.22,0.71c1.12-0.31,2.3-0.28,3.34-1.07c0.84-0.63,1.43-0.18,1.45,0.84c0.01,0.85-0.8,3.36-1.3,4.24
	c-0.32,0.57-0.67,1.18-0.74,1.8c-0.1,0.93-0.81,1.49-1.09,2.21c-0.44,1.14-0.72,0.87-1.4,0.33c-1.09-0.87-1.52-0.73-1.94,0.6
	c-0.1,0.3-0.11,0.62-0.19,1.16c-0.91-0.55-1.73-0.86-2.3-1.43c-0.7-0.69-0.91,0-1.14,0.3c-0.18,0.22-0.04,0.67-0.16,0.99
	c-0.16,0.46-0.37,0.92-0.65,1.32c-0.25,0.34-1.25,0.05-0.91,0.88c0.09,0.23,0.78,0.17,1.11,0.37c0.23,0.14,0.51,0.6,0.43,0.73
	c-0.54,0.94-0.28,1.8,0,2.76c0.3,1.04-0.3,2.22,0.53,3.25c0.16,0.19-0.36,0.86-0.48,1.33c-0.08,0.33-0.02,0.7-0.02,1.05
	c0.05,3.13,0.05,3.13-1.51,5.29c-0.2,0.28-0.49,0.5-0.63,0.8c-0.27,0.56,0.14,1.09,0.85,1.15c0.35,0.03,0.71,0,1.07,0
	c0.92,2.49-0.26,4.64-1.1,6.81c-0.39,1-0.53,1.79,0.34,2.53c0.74,0.63,0.46,1.41,0.33,2.15c-0.09,0.48-0.34,0.94-0.39,1.42
	c-0.05,0.41,0.08,0.84,0.13,1.26c0.25-0.1,0.51-0.21,0.76-0.31c0.24,0.7,0.56,1.38,0.69,2.1c0.27,1.55,0.02,3.14-0.67,4.47
	c-0.59,1.14-0.2,2.21-0.39,3.29c-0.01,0.09-0.04,0.23,0,0.26c1.93,1.14,0.58,3.23,1.39,4.74c0.4,0.74-0.92,2.11-2.27,2.49
	c-1.05,0.3-0.94,1.54-1.82,1.91c0.18,0.37,0.41,0.72,0.53,1.11c0.4,1.25,1.4,2.31,1.13,3.8c-0.08,0.41,0.21,1.01,0.52,1.34
	C205.69,188.29,205.53,189.07,205.31,189.89z"/>
<path class="st0" d="M92.69,190.23c0.21-2.29,1.23-3.95,1.16-5.81c1.02-0.84,0.36-1.97,0.51-2.96c0.05-0.36,0.25-0.98-0.47-0.98
	c-0.4,0-0.9,0.09-1.19,0.34c-0.81,0.69-1.57,1.45-2.29,2.24c-0.21,0.22-0.3,0.59-0.34,0.91c-0.2,1.42-0.34,2.85-0.56,4.27
	c-0.11,0.73-0.51,1.25-1.38,1.22c-0.45-0.02-0.92-0.09-1.34,0.02c-0.7,0.18-1.44,1.04-2.03,0.21c-0.24-0.34,0.22-1.24,0.47-1.84
	c0.26-0.62,0.57-1.16,0.57-1.9c0-0.71,0.15-1.64,0.61-2.09c1.46-1.41,1.08-2.92,0.64-4.53c-0.12-0.45-0.09-0.96-0.03-1.43
	c0.06-0.49,0.3-0.96,0.33-1.44c0.05-0.86-0.06-1.67,0.76-2.37c0.35-0.3,0.36-1.11,0.32-1.68c-0.16-2.49,1.53-4.01,2.96-5.68
	c1.79-0.2,1.74-1.95,2.34-2.99c0.46-0.82,0.24-2.1,0.62-3.17c0.3-0.85-0.36-1.59-0.77-2.3c-0.3-0.52-0.58-0.9,0.28-1.09
	c1.18-0.26,1.22-1.91,2.3-2.06c1.16-0.16,1.56-1.3,2.62-1.51c0.37-0.07,0.72-0.54,0.95-0.9c0.97-1.53,2.57-2.63,4.34-2.94
	c0.57-0.1,1.16-0.26,1.65-0.54c0.44-0.24,0.76-0.96,1.14-0.97c0.51-0.01,1.01,0.57,1.56,0.7c0.75,0.19,1.54,0.24,2.31,0.28
	c1.46,0.06,2.88-0.08,4.25,0.82c1.3,0.86,2.58-0.23,3.79-0.72c0.25-0.1,0.36-0.72,0.41-1.12c0.14-1.26,0.02-2.48,0.44-3.78
	c0.35-1.08,0.02-2.59-0.51-3.67c-0.45-0.91-0.3-2.35-1.82-2.7c-0.43-0.1-0.42-0.7,0.1-0.99c0.21-0.12,0.46-0.2,0.7-0.24
	c3.02-0.6,5.98-1.91,9.12-1.28c0.88,0.18,1.99,0.28,2.75,1.17c0.59,0.7,1.39,1.37,2.24,1.66c1.34,0.47,1.86,1.45,2.06,2.59
	c0.19,1.13,0.76,1.43,1.79,1.39c0.99-0.04,1.98,0,2.96-0.01c1.51-0.02,3.09-0.24,3.99,1.4c1.53,0.23,2.38,1.83,4.1,1.84
	c0.73,0,1.48,0.71,2.16,1.18c0.11,0.07,0.01,0.64-0.16,0.86c-0.85,1.08-1.78,2.09-2.65,3.16c-1.23,1.52-2.45,3.05-3.61,4.62
	c-0.64,0.86-1.37,1.75-1.68,2.75c-0.43,1.41-1.59,1.75-2.67,1.95c-1.44,0.28-2.35,1.12-3.08,2.16c-0.24,0.35-0.35,0.53-0.77,0.76
	c-1.26,0.67-2.42,1.53-3.59,2.36c-0.25,0.18-0.53,0.56-0.51,0.82c0.09,1.1-0.76,1.63-1.45,2.01c-0.8,0.44-1.64,0.78-2.4,1.35
	c-0.42,0.31-1.16,0.31-1.75,0.27c-0.78-0.05-1.37,0.43-1.39,0.93c-0.04,1.1-0.79,1.82-1.1,2.75c-0.16,0.47-0.01,1.04-0.56,1.36
	c0.41,0.27,0.84,0.52,1.23,0.82c0.11,0.08,0.18,0.38,0.12,0.48c-0.97,1.54,0.78,2.92,0.27,4.43c-0.03,0.08,0.21,0.36,0.3,0.35
	c0.8-0.12,1.25,0.09,1.49,0.94c0.15,0.52,0.66,1,0.99,1.42c0.65,0.81,1.2,2.03,2.66,1.93c0.14-0.01,0.4,0.44,0.47,0.7
	c0.3,1.23,1,1.85,2.36,1.95c0.95,0.07,1.94,0.92,2.63-0.42c1.27-0.12,2.47-0.49,3.65-0.93c0.29-0.11,0.61-0.12,0.92-0.18
	c-0.02,0.3,0.05,0.64-0.07,0.9c-0.63,1.35-0.42,2.65,0.25,3.88c0.56,1.04,1.5,2.08,1,3.25c-0.41,0.95-0.47,2.2-1.61,2.8
	c-0.21,0.11-0.32,0.39-0.49,0.59c-0.45,0.53-0.15,1.71-1.14,1.67c-0.89-0.03-1.87-0.31-2.6-0.79c-0.86-0.56-1.63-1.17-2.7-1.29
	c-0.67-0.08-0.95-0.54-1.14-1.21c-0.19-0.69-0.61-1.36-1.06-1.93c-0.39-0.48-1.34-0.77-1.4-1.23c-0.14-1.04-1.16-0.85-1.59-1.44
	c-0.41-0.57-0.95-1.07-1.52-1.5c-0.59-0.45-1.28-0.78-1.94-1.14c-1.12-0.62-2.11-0.92-3.27,0.2c-0.72,0.7-1.87,1.08-2.9,1.35
	c-0.92,0.23-1.33,0.56-1.42,1.51c-0.08,0.89-0.37,1.77-0.67,2.63c-0.15,0.43-0.44,1.05-0.79,1.15c-1.64,0.47-1.35,2.2-2.26,3.13
	c-0.13,0.14-0.12,0.57,0,0.77c0.92,1.56,1.39,3.36,2.58,4.77c0.15,0.18,0.43,0.24,0.64,0.38c0.19,0.13,0.53,0.32,0.51,0.42
	c-0.25,1.12-0.39,2.32-0.9,3.33c-0.57,1.15-1.99,1.21-3.1,1.5c-0.84,0.22-1.79,0.04-2.89,0.04c0.06,1.33-0.61,2.47-1.12,3.67
	c-0.33,0.77-0.98,0.69-1.21,0.52c-0.96-0.72-2.03-0.34-3.04-0.5c-2.15-0.36-4.36-0.49-6.35-1.56c-1.79-0.97-1.96-1.24-1.9-2.92
	c0.02-0.66,0.42-1.13,0.8-1.23c0.96-0.23,1.41-0.99,2.05-1.55c1.01-0.89,1.65-1.96,1.5-3.35c-0.17-1.52,0.6-2.48,1.91-3.13
	c0.37-0.18,0.83-0.3,1.09-0.59c1.28-1.42,2.84-2.4,4.61-3.14c1.24-0.52,2.58-3.67,2.04-4.81c-0.29-0.62-1.01-1.27-1.67-1.46
	c-1.46-0.41-2.03-2.15-3.67-2.23c-0.06,0,0.18-1.21-0.69-0.96c-0.7,0.21-1.3,0.75-1.9,1.21c-0.12,0.09-0.12,0.58,0,0.68
	c0.78,0.64,0.55,1.58,0.34,2.19c-0.19,0.56,0.03,1.7-1.11,1.69c-1.8-0.02-1.93,0.3-2.58-1.1c-0.35-0.74-0.73-1.3-0.18-2.29
	c0.45-0.84,0.55-2.12-0.25-3.19c-0.3-0.4-0.27-0.9-0.99-0.83c-0.73,0.07-1.25,0.45-1.24,1.08C94.98,187.9,94.17,189,92.69,190.23z"
	/>
<path class="st0" d="M244.05,264.59c1.23-1.43,3.01-2.42,3.5-4.42c0.04-0.15,0.39-0.31,0.6-0.33c0.83-0.06,1.64,0.04,2.47-0.39
	c0.35-0.18,1.07,0.31,1.62,0.5c2.14,0.72,2.7,0.44,3.38-1.65c0.23-0.7,0.52-0.8,1.06-0.34c0.2,0.17,0.38,0.37,0.57,0.56
	c1.68,1.6,1.69,1.59,4.12,2.37c1.29,0.41,2.52,0.94,3.51,1.92c0.29,0.29,0.67,0.51,1.04,0.71c0.77,0.4,1.37,0.99,2.01,1.56
	c0.75,0.66,1.05,1.9,2,2.09c1.35,0.28,1.25,1.46,1.85,2.18c0.15,0.17,0.26,0.47,0.43,0.51c0.99,0.22,2.05,0.63,2.99,0.48
	c0.93-0.15,1.9-0.46,2.83-0.94c2.52-1.3,3.56-0.56,3.43,2.34c-0.04,0.81-0.42,1.61-0.5,2.43c-0.13,1.27,0.24,2.07,1.31,1.97
	c1.71-0.15,2.22,0.86,3,1.89c0.45,0.6,0.95,1.75,2.14,0.85c0.72,0.43,1.5,0.79,2.13,1.32c0.8,0.67,1.64,1.1,2.68,1.36
	c1.41,0.35,1.77,1.68,2.42,3.01c-0.6,0.05-1.01,0.08-1.42,0.13c-0.94,0.11-1.31,0.69-1.05,1.74c0.11,0.46,0.25,0.89-0.44,0.9
	c-0.8,0.01-1.6-0.06-2.13,0.75c-0.11,0.17-0.43,0.29-0.66,0.31c-1.99,0.2-3.98,0.36-5.98,0.54c-1.19,0.11-2.36-0.06-3.59,0.43
	c-0.78,0.31-2.12,0.58-2.98-0.4c-0.86,0.96-2,0.46-3,0.46c-1,0-2.02,0.31-3.07-0.41c-0.6-0.41-1.75-0.15-2.64-0.06
	c-1.42,0.15-2.24-0.44-2.96-1.61c-0.52-0.83-1.32-1.75-2.19-2.04c-1.63-0.54-2.18-1.92-2.5-3.09c-0.29-1.04-0.85-1.59-1.49-2.24
	c-0.33,0.33-0.63,0.88-0.97,0.91c-1.82,0.15-2.78,1.6-4.06,2.51c-1.66,1.17-3.61,1.14-4.8-0.46c-0.28-0.38-0.17-1.05-0.95-0.89
	c-0.04-0.3-0.23-0.7-0.09-0.89c0.63-0.88,0.64-1.89,0.18-2.67c-0.86-1.43-0.01-2.39,0.64-3.44c0.18-0.29,0.47-0.54,0.76-0.75
	c0.97-0.71,1.26-1.6,0.84-2.69c-1.47-0.22-2.91-0.52-4.35-0.63c-1.43-0.11-2.88,0.03-4.31-0.05c-0.46-0.03-1.19-0.34-1.28-0.66
	c-0.25-0.94-1.05-1.35-1.58-2.01c-0.53-0.66-0.97-1.4-1.54-2.01c-0.78-0.83-1.4-1.69-1.38-2.89c0.02-0.95-0.48-1.43-1.48-1.39
	c-1.04,0.04-2.17-0.25-2.88,0.84c-0.05,0.07-0.12,0.18-0.19,0.18c-0.89,0.02-1.83-0.13-2.67,0.09c-0.69,0.18-0.99,1.26-1.99,1.01
	c-0.61-0.15-1.03,0.15-1.36,0.6c-0.34,0.46-0.6,0.41-0.97,0c-0.69-0.79-2.07-0.88-2.29-2.21c-0.03-0.19-0.92-0.5-1.03-0.4
	c-1.08,1.09-1.6-0.34-2.54-0.39c0.55-1.05,1.09-1.97,1.53-2.94c0.42-0.92,1.31-1.72,0.3-2.95c-0.5-0.62,0.27-1.61,0.76-2.25
	c0.58-0.77,1.26-1.75,2.09-1.99c1.24-0.37,1.3-1.36,1.96-2.2c-2.16,0-4.2,0-6.12,0c-0.53-0.9-0.95-1.71-1.46-2.45
	c-0.78-1.13-1.17-2.22-0.57-3.6c0.21-0.5,0.23-0.75,0.85-0.99c0.69-0.26,1.21-1.02,1.73-1.63c0.32-0.37,0.23-0.64-0.3-0.96
	c-0.83-0.5-0.66-0.69-0.65-2.01c0.01-1.43,0.25-2.67,1.31-3.72c0.72-0.72,0.27-1.64,0.28-2.48c0-0.07-0.27-0.16-0.43-0.22
	c-0.08-0.03-0.2,0.03-0.26-0.01c-0.89-0.47-1.89-0.58-2.82-1c-1.18-0.53-1.78,0-2.37,1.5c-0.08,0.2-0.26,0.53-0.4,0.53
	c-1.06,0.01-2.15,0.08-3.19-0.1c-1.04-0.18-1.26-0.63-1.26-1.79c0.01-0.76-0.04-1.47,0.48-2.2c0.27-0.38,0.36-0.58,0.86-0.67
	c0.64-0.12,1.28-0.39,1.83-0.74c0.52-0.33,1.02-0.82,0.24-1.45c-0.82-0.66-0.87-2.03-2.25-2.25c-0.48-0.08-0.7-0.68-0.64-1.3
	c0.15-1.55-1.21-1.88-2.21-2.48c-0.12-0.07-0.37,0.07-0.56,0.13c-1.14,0.36-1.81,1.13-2.28,2.2c-0.39,0.89-0.8,1.64-2.18,1.8
	c-1.12,0.13-2.5,1.08-3.07,2.05c-0.82,1.39-2.2,1.67-3.31,2.44c-0.27,0.18-0.38,0.96-0.93,0.4c-0.27-0.28-0.59-0.77-0.52-1.08
	c0.48-2,0.6-4.07,1.51-5.99c0.31-0.65,0.79-0.52,1.15-0.78c0.44-0.33,1.09-0.38,1.62-0.6c1.05-0.43,1.17-0.46,1.04-1.36
	c-0.22-1.51,0.45-2.51,1.63-3.31c-1.07-0.9-2.16-1.71-3.11-2.67c-0.66-0.66-0.83,0.55-1.26,0.2c-0.85-0.69-1.85-1.2-2.11-2.48
	c-0.32-1.51-0.87-2.99-1.4-4.45c-0.17-0.48-0.2-1.11-1.14-1.05c-0.63,0.04-1.67-1.57-1.62-2.22c0.01-0.13,0.26-0.28,0.43-0.36
	c0.81-0.41,1.64-0.79,2.68-1.29c0-0.34,0.03-0.85-0.01-1.35c-0.12-1.54-0.02-2.97,1.52-3.89c0.22-0.13,0.53-0.35,0.55-0.56
	c0.18-1.37,1.36-1.93,2.47-2.79c-1.07-0.54-2.07-0.86-2.82-1.48c-0.68-0.57-1.07-1.47-1.63-2.28c1.31-0.47,2.9,0.35,4.23-0.62
	c0.2-0.14,0.77,0.2,1.17,0.32c1.91,0.59,3.41,2.08,5.5,2.34c0.34,0.04,0.75,0.72,0.84,1.16c0.14,0.68,0.04,1.4,0.04,2.11
	c0,0.62-0.14,1.28,0.03,1.84c0.5,1.64,2.2,2.91,1.59,4.9c0.83,1.43,1.63,2.87,2.49,4.27c0.57,0.92,1.2,1.81,1.83,2.7
	c0.13,0.18,0.38,0.43,0.52,0.4c1.66-0.32,1.65,1.22,2.1,2c0.47,0.82,0.43,1.93,0.6,2.92c0.03,0.17-0.07,0.41,0.02,0.52
	c1.05,1.28,0.93,2.98,1.63,4.36c0.71,1.4,1.66,2.67,2.44,4.04c0.49,0.85,1.13,1.73,1.23,2.65c0.11,0.96,0.67,1.59,1.28,1.84
	c1.75,0.7,2.45,2.33,3.64,3.51c1.46,1.44,2.59,3.13,3.73,4.82c0.38,0.56,0.95,1.09,1.56,1.38c1.13,0.54,1.9,1.19,1.74,2.53
	c-0.02,0.16,0.01,0.35,0.09,0.49c0.58,1.18,1.36,2.21,1.6,3.6c0.21,1.24,0.92,2.45,1.58,3.57c0.47,0.8,0.57,2.03,1.93,2.1
	c0.13,0.01,0.27,0.22,0.38,0.36c0.64,0.85,0.93,1.89,2.23,2.28c1.01,0.31,1.42,1.72,2.63,2.06c0.18,0.05,0.27,0.55,0.34,0.85
	c0.33,1.44,0.55,2.92,1.21,4.27c0.14,0.29,0.38,0.59,0.39,0.89c0.03,1.2,0.27,2.42-1.08,3.28
	C242.75,262.91,243.04,263.75,244.05,264.59z"/>
<path class="st0" d="M-61.97,134.3c0-0.59-0.25-1.51,0.04-1.72c1.38-1,1.41-2.4,1.75-3.84c0.27-1.14,0.63-2.36,1.6-3.32
	c1.12-1.1,1.31-2.75,0.68-4.03c-0.49-1-0.16-1.56,0.2-2.29c0.07-0.15,0.08-0.35,0.18-0.45c1.27-1.25,0.59-2.53,0.08-3.8
	c-0.24-0.61-0.84-1.24-0.75-1.78c0.47-2.82-1.5-4.4-3.07-6.18c-0.64-0.73-1.38-1.39-2.09-2.06c-0.24-0.23-0.6-0.57-0.83-0.53
	c-1.43,0.29-2.05-0.79-2.88-1.53c-0.45-0.4-0.89-0.83-1.41-1.13c-2.29-1.34-3.65-2.71-4.97-5.13c-0.32-0.58-0.64-1.15-0.98-1.72
	c-0.34-0.57-1.05-1.16-0.99-1.67c0.07-0.56,0.83-1.04,1.28-1.57c0.38-0.45,0.14-1.22-0.45-1.46c-0.96-0.4-2.99,0.08-3.83,0.93
	c-0.1,0.1-0.08,0.37-0.06,0.55c0.15,1.12,0.11,1.27-0.83,1.03c-1.45-0.37-2.57-0.15-3.47,1.17c-0.48-0.57-0.98-1.04-1.35-1.6
	c-0.77-1.15-1.69-2.04-2.93-2.78c-0.84-0.5-1.68-1.2-2.35-2.1c-1.22-1.64-2.91-2.89-5-3.39c-1-0.24-2.05-0.27-3.21-0.41
	c0-0.32,0.01-0.65,0-0.99c-0.03-0.72,0.28-1.61-0.96-1.71c-0.15-0.01-0.32-0.55-0.37-0.87c-0.24-1.37-0.62-2.65-1.89-3.46
	c-0.5-2.06-1.8-3.36-3.87-3.94c-0.16-0.04-0.42-0.17-0.41-0.25c0.03-1.12-1.03-1.18-1.62-1.7c-0.07-0.06,0.13-0.63,0.23-0.64
	c0.76-0.04,1.44,0.02,2.23,0.4c1.16,0.56,2.32,1.53,3.83,1.14c0.73-0.19,1.48-0.31,2.2-0.55c0.6-0.2,1.05-0.37,1.75-0.05
	c0.55,0.25,1.2,0.05,1.1,0.99c-0.03,0.27,0.22,0.74,0.45,0.84c1.55,0.66,2.59,2.13,4.33,2.52c0.61,0.13,1.48,0.77,1.54,1.25
	c0.15,1.16,1.54,0.76,1.76,1.64c0.53-0.23,1.11-0.39,1.56-0.73c0.17-0.13,0.09-0.68,0.02-1.02c-0.32-1.41-0.67-2.81-0.56-4.28
	c0.02-0.27-0.27-0.61-0.49-0.84c-0.68-0.71-1.39-1.38-2.26-2.23c1.46-0.34,2.92-0.45,4.11-0.05c0.78,0.26,1.5,0.34,2.25,0.39
	c3.52,0.2,7.06,0.18,10.55,0.63c1.55,0.2,3.08,0.44,4.64,0.44c0.66,0,0.56,0.41,0.67,0.84c0.61,2.38,1.9,4.1,3.96,5.53
	c0.34,0.24,0.61,0.6,0.87,0.93c0.31,0.39,0.53,0.87,0.88,1.22c0.57,0.57,1.48,0.97,1.75,1.63c0.31,0.76,0.28,1.8,0.03,2.6
	c-0.59,1.93,1.4,2.63,1.85,4.04c0.04,0.14,0.85,0.2,1.2,0.06c0.38-0.15,0.6-0.67,0.98-0.88c0.42-0.23,0.86-0.15,0.87,0.5
	c0,0.35,0.09,0.73-0.01,1.05c-0.61,1.89-0.2,3.68,0.48,5.46c0.09,0.24-0.16,0.59-0.25,0.89c-0.65,2.19-0.21,3.34,1.83,4.86
	c0.68,0.51,1.07,1.38,2.06,1.51c0.25,0.03,0.38,0.66,0.76,0.17c0.2-0.26,0.57-0.63,0.5-0.83c-0.46-1.31-1-2.59-1.54-3.87
	c-0.16-0.38-0.48-0.71-0.55-1.09c-0.04-0.24,0.2-0.57,0.4-0.79c0.05-0.06,0.5,0.11,0.63,0.28c0.53,0.64,2.1,4.19,2.13,5.2
	c0.03,0.99,0.87,1.25,1.34,1.85c0.38,0.49,0.93,0.71,0.41,1.61c-0.26,0.45,0.56,1.45,0.76,2.24c0.26,1.04,0.91,1.98,0.78,3.14
	c-0.04,0.37,0.28,0.76,0.37,1.16c0.29,1.31,0.93,2.56,0.68,3.96c-0.19,1.08,0.31,1.97,0.85,2.82c0.4,0.64,1,1.19,1.26,1.87
	c0.17,0.46,0.3,0.57,0.76,0.78c1.74,0.8,2.47,2.29,2.52,4.14c0.03,0.93,0.05,1.8,0.47,2.72c0.35,0.78,0.39,1.79,0.52,2.67
	c0.22,1.45,1.91,1.8,2.02,3.17c1.08,0.45,0.47,1.77,1.27,2.42c0.16,0.13-0.04,0.81-0.2,1.19c-0.22,0.53-0.54,1.01-0.85,1.51
	c-0.35,0.57-1.08,1.18-1,1.67c0.16,0.93,0.66,1.87,1.26,2.63c0.57,0.73,1.14,1.23,0.32,2.14c-0.15,0.17,0.11,0.8,0.3,1.15
	c0.73,1.35,1.19,3.07,3.38,2.6c1.18,0.79,2.55,0.36,3.81,0.57c1.03,0.17,1.08-0.54,1.41-1.12c1.11,1.48,2.86,2.35,3.64,4.11
	c0.15,0.35,0.83,0.55,1.3,0.65c0.51,0.11,1.07,0.05,1.61,0.02c0.92-0.05,0.66,0.61,0.67,1.08c0,0.15-0.14,0.29-0.19,0.45
	c-0.34,1.07-1.14,2.2,0.6,2.91c0.2,0.08,0.05,0.83,0.23,1.19c0.45,0.88,0.93,1.76,1.52,2.55c0.56,0.76,1.44,1.21,2.14,1.85
	c1.08,1,2.19,1.74,1.19,3.49c-0.33,0.59-0.39,1.65,0.25,2.47c0.49,0.63,0.1,1.18-0.35,1.81c-0.84,1.18-2.17,1.34-3.34,1.71
	c-0.63,0.2-1.15,0.4-1.49,0.9c-0.25,0.37,0.35,1.09-0.47,1.28c-0.82,0.19-1.71,0.63-2.46,0.46c-0.94-0.2-1.82-0.83-2.6-1.43
	c-0.32-0.25-0.44-0.92-0.4-1.39c0.17-2.08-0.66-3.98-1.24-5.87c-0.42-1.36-0.98-2.64-0.98-4.1c0-0.44-0.31-1.1-0.67-1.27
	c-1.13-0.51-2.34-0.84-3.53-1.22c-0.64-0.2-1.32-0.28-1.92-0.55c-1.51-0.69-2.83-1.57-3.4-3.25c-0.59-1.73-2.13-2.8-3.47-3.83
	c-1.04-0.79-1.97-1.68-2.96-2.5c-0.86-0.71-1.76-1.37-2.64-2.05l-2.79-2.23c-0.04-0.24-0.2-0.62-0.1-0.69
	c1.06-0.85,0.26-1.46-0.36-1.83c-1.72-1.02-3.36-2.32-5.57-2.12c-0.66,0.06-0.9-0.16-1.27-0.83c-1.19-2.18-2.68-4.15-5.28-5.03
	c-0.9-0.3-1.34-0.34-1.6,0.59c-0.04,0.16-0.13,0.3-0.2,0.45C-61.77,134.34-61.87,134.32-61.97,134.3z"/>
<path class="st0" d="M162.3,130.15c-1.41,0.26-2.78-0.41-4.11,0.54c-0.48,0.34-1.19-0.44-1.63-0.42c-1.25,0.06-1.63-0.93-2.39-1.45
	c-0.93-0.63-1.17-1.48-1.01-2.5c0.11-0.67-0.27-0.76-0.84-0.97c-1.01-0.38-1.68-1.16-1.88-2.33c-0.26-1.46-1.22-2.73-1.09-4.33
	c0.06-0.77-1.01-2.09-1.93-2.86c-0.27-0.23-0.65-0.47-0.71-0.76c-0.41-1.83-1.95-2.78-3.14-4.09c0.67-1.15,1.37-2.31,2.03-3.5
	c0.44-0.78,0.72-1.62,1.9-0.67c0.26,0.21,1.28-0.25,1.76-0.63c0.64-0.51,1.17-0.91,2.08-0.9c0.72,0.01,1.63-0.17,2.11-0.62
	c0.48-0.45,0.6-1.32,0.76-2.03c0.11-0.51-0.02-1.06,0.03-1.58c0.09-1-0.35-2.08,0.51-2.97c0.13-0.14,0.02-0.51,0.02-0.78
	c-0.02-1.27-0.87-1.8-2.09-1.3c-0.69,0.28-1.36,0.6-2.07,0.83c-0.18,0.06-0.58-0.1-0.65-0.26c-0.08-0.17,0.01-0.58,0.17-0.68
	c1.51-1.01,1.64-2.99,3.03-4.07c-0.15-0.82,0.39-0.82,0.97-0.79c1.41,0.09,2.64-0.5,3.86-1.07c0.24-0.11,0.38-0.43,0.57-0.65
	c-0.28-0.13-0.55-0.29-0.84-0.39c-0.23-0.08-0.49-0.09-0.96-0.17c1.46-1.05,2.14-2.34,2.36-3.89c0.05-0.38,0.32-0.75,0.53-1.1
	c0.15-0.24,0.34-0.58,0.57-0.63c0.3-0.07,0.71,0.02,0.97,0.19c0.65,0.41,1.19,1,1.86,1.35c1.38,0.7,2.7,0.4,3.91-0.5
	c0.11-0.08,0.34,0,0.52,0.01c-0.02,0.19,0.01,0.41-0.08,0.55c-0.22,0.36-0.54,0.66-0.74,1.02c-0.94,1.71-0.71,2.63,0.83,3.69
	c2.94,2.02,2.73,1.38,1.83,4.59c-0.27,0.96-0.85,1.78,0,2.77c0.39,0.46-1.05,0.76-0.36,1.55c0.66,0.76,0.35,2.15,1.88,2.41
	c0.69,0.12,1.04,1.16,0.53,1.71c-0.81,0.85-0.21,1.24,0.32,1.67c0.38,0.31,0.83,0.58,1.3,0.75c1.32,0.46,2,1.26,1.77,2.69
	c-0.16,0.98,0.68,1.5,1.27,1.82c1.04,0.56,2.02,1,1.96,2.37c0,0.08,0.03,0.22,0.07,0.23c2.02,0.43,1.46,1.99,1.56,3.3
	c0.06,0.77,1.17,1.57,2.04,1.67c0.84,0.09,1.77-0.33,2.52,0.46c0.09,0.1,0.58-0.2,0.89-0.27c2.05-0.49,3.89-0.13,5.5,1.28
	c0.37,0.32,0.22,0.44,0,0.78c-0.31,0.47-0.49,1.05-0.58,1.6c-0.16,0.99-0.46,1.98,0.49,2.89c0.82,0.78,1.02,1.85,1.03,3.02
	c0.02,2.93,0.16,2.98-1.14,4.65c-0.6,0.77-1.48,1.39-2.34,1.91c-1.71,1.03-3.34,2.2-5.53,2.24c-1.54,0.03-2.15,0.92-2.37,2.4
	c-0.14,0.97-0.35,1.99-0.83,2.82c-0.47,0.81-1.51,0.92-2.46,1.13c-2.14,0.48-3.86,1.89-5.8,2.84c-0.45,0.22-0.93,0.67-1.09,1.12
	c-0.12,0.34-0.36,0.96,0.38,1.32c0.68,0.33,1.23,0.92,1.84,1.4c0.58,0.46,0.49,1.01,0.29,1.62c-0.6,1.89-0.51,3.11,0.1,5.18
	c0.17,0.56,0.03,1.15,0.6,1.63c0.44,0.37,0.71,0.93,1.05,1.41c-0.9,0.56-0.22,1.84-1.23,2.43c-0.73,0.42-2.68,1.6-3.62,1.62
	c-0.83,0.02-1.32,0.32-1.61,1.02c-0.06,0.15-0.05,0.36-0.15,0.46c-1.43,1.4-1.96,2.23-1.98,3.64c-0.02,1.14-0.35,1.77-1.64,1.81
	c-0.64,0.02-0.92,0.55-1.11,1.22c-0.44,1.55-2.72,2.5-4.13,1.78c-0.67-0.34-1.29-0.82-1.87-1.31c-0.23-0.19-0.5-0.75-0.41-0.84
	c1.49-1.57,0.04-3.13-0.15-4.6c-0.13-0.96-0.31-1.97-0.44-2.97c-0.12-0.87,0.74-2.15-0.93-2.51c-0.11-0.02-0.16-0.64-0.11-0.97
	c0.2-1.31-0.19-2.56-0.61-3.73c-0.3-0.83-0.69-1.33-0.03-2.28c0.55-0.79-0.2-1.98-0.89-2.41c-1.17-0.74-1.35-1.95-1.63-2.92
	c-0.4-1.42-0.64-2.89-1.13-4.31c-0.17-0.49,0.03-1.2,0.27-1.71c0.61-1.31,1.38-2.54,0.26-3.99c-0.22-0.28-0.05-0.86-0.03-1.3
	c0.05-1.27,0.94-2.5,2.41-2.55c1.19-0.03,2.38-1.1,3.58-0.1C159.89,134.25,161.36,133.26,162.3,130.15z"/>
<path class="st0" d="M173.17,184.16c0.09,0,0.2-0.04,0.27,0.01c1.05,0.68,2.06-1.3,3.08-0.08c0.71,0.84,1.46,1.68,1.95,2.64
	c0.8,1.58,2.36,2.04,3.74,2.1c2.15,0.09,4.36,0.53,6.54-0.38c0.91-0.38,2.2-0.28,3.18,0.03c0.52,0.16,1.6-0.07,1.75,1.13
	c0.07,0.56,0.87,1.05,1.39,1.52c0.53,0.47,1.12,0.88,1.68,1.32c-1.21,0.44-0.68,1.9-1.52,2.55c-0.34,0.26-0.66,0.56-1.01,0.79
	c-1.69,1.12-1.88,1.21-0.91,3.03c0.53,1-0.01,1.24-0.47,1.67c-0.29,0.27-0.73,0.38-1.09,0.58c-1.44,0.76-1.7,1.2-1.22,2.51
	c0.35,0.95,0.76,1.87,1.89,2.29c0.95,0.35,1.2,1.22,1.21,2.18c0.01,0.81-0.33,1.26-1.1,1.52c-0.39,0.13-0.89,0.42-1,0.75
	c-0.53,1.61-1.77,1.9-3.23,1.87c-0.45-0.01-0.9-0.04-1.35,0.01c-0.72,0.08-0.84-0.23-0.91-0.89c-0.1-0.86-0.39-0.91-1.14-0.35
	c-0.27,0.2-0.51,0.43-0.76,0.65c-0.25-0.34-0.49-0.69-0.76-1.01c-0.54-0.64-0.54-1.39-0.55-2.16c0-0.84-0.01-1.61-0.47-2.46
	c-0.72-1.35-0.56-1.46-1.77-0.84c-0.6,0.31-1.13,0.73-1.69,1.11c-0.7,0.49-1.35,1.04-2.07,1.48c-0.79,0.48-1.51,0.64-2.4,0.17
	c-1-0.52-2-0.45-3.03-0.5c-0.5-0.03-1.11-0.02-1.48-0.29c-0.63-0.44-0.97-0.17-1.32,0.26c-0.39,0.48-0.65,0.58-1.19,0.08
	c-0.38-0.36-1.07-0.52-1.63-0.54c-1.21-0.04-2.16-0.54-2.92-1.39c-1.02-1.14-2.52-1.31-3.84-1.76c-1.19-0.41-1.67,0.03-2.07,1.28
	c-0.08,0.23-0.14,0.69-0.19,0.68c-1.28-0.08-2.11,1.17-3.29,1.12c-1-0.04-1.75-0.66-2.49-1.46c-1.88-2.03-3.93-3.94-7.08-3.8
	c-0.59,0.03-1.24,0.19-1.71-0.44c-0.31-0.42-0.75-0.76-1.13-1.13c-0.35,0.89-1.29,0.29-1.86,0.7c-0.31,0.23-0.79,0.26-1.2,0.32
	c-0.08,0.01-0.32-0.32-0.28-0.4c0.57-1.18,0.68-2.61,1.88-3.47c0.93-0.66,1.3-1.53,1.19-2.7c-0.13-1.43,0.1-2.83-0.88-4.16
	c-0.43-0.59-0.18-1.67-0.21-2.54c-0.02-0.7,0.05-1.42-0.04-2.11c-0.02-0.19-0.46-0.44-0.71-0.45c-0.31-0.02-0.63,0.18-0.94,0.3
	c-0.86,0.33-1.64,0.81-2.66,0.77c-0.63-0.02-1.44,0.17-1.87,0.57c-0.9,0.84-1.51,0.23-2.32-0.04c-0.58-0.19-0.75-0.45-0.61-0.88
	c0.39-1.24-0.87-1.67-1.36-1.71c-1.5-0.11-2.06-0.97-2.62-2.1c-0.38-0.78-0.69-1.69-1.84-1.91c-0.3-0.06-0.6-0.81-0.64-1.26
	c-0.1-0.96,0.02-1.94-0.05-2.9c-0.04-0.57,0.49-1.54-0.81-1.47c0.02-0.19,0.02-0.38,0.07-0.56c0.24-0.78,0.4-1.61,0.78-2.32
	c0.41-0.76,0.73-1.57,2.07-1.39c2.15,0.28,3.76-1.2,4.66-2.75c0.98-1.7,2.77-2.21,3.94-3.52c0.38-0.43,1.02-0.65,1.41-1.07
	c1.25-1.34,2.73-2.26,4.55-2.65c0.22-0.05,0.57-0.24,0.57-0.35c-0.07-1.8,1.6-2.69,2.27-4.11c0.64-1.35,1.97-2.37,2.96-3.56
	c0.6-0.71,1.35-1.4,1.66-2.23c0.33-0.89,1-1.39,1.59-1.99c0.72-0.74,0.84-0.65,1.26,0.4c0.18,0.45,0.53,0.84,0.79,1.27
	c0.23,0.38,0.46,0.77,0.65,1.17c0.44,0.91,0.82,1.82,0.73,2.89c-0.09,1-0.02,1.98,0.46,2.98c0.33,0.68,1.03,1.59,0.09,2.47
	c-0.14,0.13-0.04,0.82,0.15,0.94c1.15,0.71,0.88,1.81,0.9,2.83c0.02,0.68,0.26,1.28,0.46,1.92c0.55,1.75,1.04,3.57,0.39,5.48
	c-0.14,0.41,0.26,1.16,0.64,1.52c0.38,0.37,1.13,0.35,1.57,0.69c1.8,1.37,3.44,1.2,5-0.36c0.38-0.38,0.54-0.26,0.58,0.23
	c0.01,0.15,0.08,0.35,0.19,0.45c1.15,1.06,1.34,2.65,2.24,3.86c0.53,0.7,0.41,1.54-0.25,2.33c-0.69,0.82-0.7,1.92-0.52,2.92
	c0.07,0.39,0.66,0.98,1.01,0.98c1.93-0.04,3.7,0.5,5.49,1.08C172.05,184.3,172.63,184.16,173.17,184.16z"/>
<path class="st0" d="M155.52,259.84c0.11,0.05,0.64,0.15,1.02,0.44c0.46,0.36,1.23,0.77,0.39,1.5c0.48,0.58,0.85,1.33,1.46,1.7
	c0.4,0.24,0.66,0.28,0.72,0.82c0.09,0.82,0.29,1.63,0.52,2.42c0.69,2.34,0.7,2.32,2.64,0.85c1.42-1.08,2.86-2.14,4.33-3.16
	c0.32-0.22,0.79-0.29,1.2-0.32c0.71-0.05,1.44,0.03,2.15-0.03c0.4-0.04,0.86-0.18,1.15-0.43c1.21-1,1.75-1.39,2.43-1.11
	c0.87,0.36,1.97,0.45,2.31,1.69c0.19,0.68,0.74,1.3,1.22,1.87c0.38,0.45,0.88,0.84,1.39,1.16c0.81,0.49,1.64,0.95,2.53,0.03
	c0.27-0.28,0.73-0.49,1.11-0.51c0.51-0.03,1.09-0.32,1.33,0.72c0.39,1.66,1.64,3.05,1.59,4.91c-0.02,0.92,0.78,1.57,1.67,1.72
	c1.7,0.28,2.98,1.11,4.18,2.29c0.61,0.6,1.51,1,2.56,0.94c1.97-0.1,3.95-0.05,5.93-0.01c0.24,0,0.51,0.29,0.7,0.5
	c0.04,0.04-0.2,0.42-0.38,0.53c-1.39,0.82-1.33,2.53-2.29,3.6c0.35,0.77,0.33,1.7,0.62,2.39c0.81,1.95,1.19,4.13,2.63,5.8
	c0.31,0.36,0.75,0.83,1.16,0.87c0.61,0.05,1.06,0.23,1.34,0.68c0.47,0.77,1.04,1.55,1.22,2.4c0.25,1.21,1.12,2.41,0.46,3.68
	c-1.01,1.95-2,3.96-3.82,5.29c-0.88,0.64-1.43,1.27-1.44,2.31c0,1.27-0.83,1.77-1.9,2.1c-0.32,0.1-0.64,0.2-0.92,0.38
	c-1.21,0.78-1.54,0.69-2.04-0.68c-0.17-0.46-0.13-1.22-0.43-1.37c-0.88-0.44-1.14-1.37-1.87-1.86c-0.31-0.21-0.83-0.16-1.26-0.17
	c-0.63-0.02-1.26,0.03-1.88-0.02c-0.42-0.03-0.74,0.97-1.21,0.1c-1.99,0.4-3.49-1.4-5.44-1.15c-0.76-1.08-2.08-0.08-2.92-0.73
	c-0.9-0.69-1.93-0.4-2.82-0.28c-2.01,0.26-3.67-0.74-5.49-1.12c-0.15-0.03-0.4-0.2-0.39-0.27c0.29-1.65-0.97-1.09-1.8-1.35
	c-1.18-0.37-2.43-0.84-3.34-1.61c-2.14-1.82-4.76-2.38-7.33-3.09c-0.97-0.27-2.15-0.16-2.94-0.66c-1.17-0.74-2.33-0.93-3.66-0.98
	c-0.7-0.03-1.45-0.43-2.04-0.85c-1.67-1.18-3.47-2.05-5.51-2.25c-0.75-0.07-1.28-0.41-1.39-0.95c-0.19-0.93-1.58-1.29-1.12-2.46
	c-0.74-0.57-1.4-1.44-2.22-1.64c-1.9-0.46-3.18-1.84-4.79-2.72c-1.12-0.61-2.15-1.48-3.01-2.42c-1.03-1.14-2.17-1.44-3.69-1.6
	c-1.17-0.13-2.36-0.36-3.56-0.44c-0.29-0.02-0.59-0.32-0.83-0.55c-0.38-0.36-0.41-0.78,0.14-1c2.4-1,4.22-3,6.78-3.74
	c0.19-0.05,0.41-0.71,0.35-0.76c-0.81-0.65-0.53-1.17,0.14-1.68c0.68-0.51,0.46-0.91-0.03-1.48c-0.85-0.98-0.84-2.38,0-3.19
	c0.25-0.24,0.86-0.34,1.21-0.23c1.3,0.4,2.13,1.45,3.03,2.36c0.15,0.15,0.06,0.56,0.22,0.69c0.46,0.36,0.95,0.79,1.49,0.91
	c0.48,0.1,1.04-0.2,1.57-0.28c1.67-0.25,4.25-1.11,5.39-1.9c0.47-0.32,0.77-0.26,1.12,0.1c0.8,0.84,1.75,1.31,2.97,1.27
	c2.07-0.06,2.07-0.03,3.15,1.03c0.83,0.81,1.64,1.63,2.49,2.42c0.16,0.15,0.63,0.28,0.67,0.22c0.18-0.25,0.38-0.59,0.33-0.86
	c-0.08-0.47-0.32-0.92-0.51-1.37c-0.78-1.82-1.24-3.73-1.83-5.6C151.76,261.56,152.97,259.8,155.52,259.84z"/>
<path class="st0" d="M107.4,236.02c2.34-1.7,4.45-2.47,6.59-3.18c1.19-0.4,2.51-0.49,3.39-1.6c0.26-0.32,0.9-0.44,1.38-0.49
	c0.89-0.07,1.79-0.03,2.69-0.02c0.71,0.01,1.39,0.06,1.9-0.63c0.51-0.69,1.16-0.5,1.83-0.12c1.15,0.66,2.35,1.24,3.51,1.88
	c1.21,0.68,2.49,0.97,3.9,1c1.41,0.03,2.28-0.46,2.79-1.78c0.31-0.82,0.89-1.53,1.79-1.86c0.21-0.08,0.56-0.08,0.7,0.04
	c0.14,0.13,0.23,0.54,0.13,0.68c-1.4,2.02,0.14,3.68,0.77,5.38c0.39,1.05,2.62,1.5,3.97,1.11c0.4-0.11,0.78-0.29,1.17-0.42
	c0.69-0.22,1.51-1.11,2.04-0.3c0.26,0.4-0.47,1.42-0.8,2.31c0.41,0.03,0.89,0.08,1.38,0.11c1.55,0.08,3.07,0.05,4.65,0.45
	c2.51,0.64,4.81-0.76,7.09-1.58c0.78-0.28,1.63-1.1,1.39-2.3c-0.05-0.27,0.2-0.61,0.36-0.9c0.18-0.33,0.35-0.83,0.63-0.92
	c0.65-0.19,0.47,0.49,0.68,0.8c0.72,1.13,1.49,2.22,2.27,3.31c0.46,0.64,0.66,1.45-0.08,1.76c-1.67,0.71-1.55,2.28-1.1,3.16
	c1.13,2.21,0.08,4.15-0.3,6.14c-0.24,1.25-0.37,2.76-1.85,3.47c-0.05,1.12-1.72,1.58-1.23,2.97c0.08,0.23-0.43,0.67-0.68,1.01
	c-0.61,0.83-1.55,1.32-2.05,2.33c-0.28,0.57-1.26,0.9-2.18,0.97c-1.45,0.1-3.41,2.32-3.07,3.55c0.24,0.88,0.16,1.97,0.68,2.6
	c1.05,1.27,0.54,2.92,1.58,4.16c-0.35,0.04-0.55,0.11-0.6,0.05c-0.7-0.75-1.67-1.29-1.91-2.39c-1.07-0.03-2.16,0.07-3.19-0.12
	c-0.79-0.14-1.66-0.5-2.23-1.04c-0.71-0.66-1.09-0.51-1.75,0c-1.55,1.18-3.53,1.4-5.31,2.09c-0.56,0.22-1.17,0.07-1.66-0.48
	c-0.76-0.86-1.78-1.54-2.42-2.47c-0.65-0.94-1.87-0.4-2.5-1.21c-0.04-0.05-0.72,0.18-0.84,0.41c-0.55,1-1.02,2.05-1.46,3.1
	c-0.07,0.17,0.08,0.55,0.24,0.67c1.17,0.8,0.94,1.51-0.06,2.25c-0.05,0.04,0.07,0.38,0.19,0.54c0.47,0.65-0.09,1.18-0.46,1.24
	c-1.73,0.25-2.89,1.35-4.15,2.34c-0.37,0.29-0.91,0.51-1.38,0.51c-0.72,0.01-0.85,0.26-0.9,0.92c-0.06,0.9-0.66,1.38-1.61,1.23
	c-1-0.16-2.17-0.12-2.94-0.64c-0.92-0.61-2.04-0.98-2.78-1.68c-0.84-0.8-1.66-0.91-2.64-0.84c-1.6,0.12-3.06-0.28-4.4-1.08
	c-1.63-0.97-3.51-1.04-5.27-1.57c-3.54-1.07-7.64-4.79-8.81-8.13c-0.09-0.25,0.03-0.65,0.2-0.88c0.25-0.36,0.61-0.89,0.94-0.9
	c0.9-0.02,0.78-1.12,1.35-1.17c1.03-0.09,0.9-1.02,1.11-1.49c0.6-1.29,1.44-1.82,2.84-1.74c1.07,0.06,2.16,0.04,3.23,0.01
	c1.11-0.03,2.42,0.42,3.01-1.05c1.37,0.06,1.73-1,2.46-1.85c0.8-0.93,1.89-2.04,3.47-1.85c1.7,0.21,3.02-1.1,4.67-1.1
	c0.09,0,0.35-0.69,0.24-0.8c-0.88-0.93-1.02-2.41-2.41-2.98c-0.58-0.24-0.91-0.83-0.74-1.53c0.23-0.91-0.26-1.68-0.64-2.38
	c-0.96-1.75-1.14-2.21-0.99-3.93c0.05-0.52,0.06-1.06,0-1.58c-0.12-0.93-0.89-1.58-1.81-1.58
	C110.28,236.01,109.13,236.02,107.4,236.02z"/>
<path class="st0" d="M349.19,212.75c1.29,1.24,0.19,2.64,0.2,3.95c0.01,1.21,0.16,1.67,1,1.11c0.79-0.53,1.11-0.21,1.52,0.27
	c0.96,1.11,0.95,1.13,2.58,1.01c1.57-0.11,2.84,0.69,3.47,1.86c0.74,1.37,1.85,2.36,2.97,3.24c1.23,0.96,2.12,2.12,2.45,3.48
	c0.29,1.17,0.85,1.84,1.81,2.41c1.17,0.69,2.53,1.3,2.07,3.07c1.27,0.74,0.97,2.29,1.73,3.25c0.87,1.1,0.94,2.3,0.96,3.59
	c0.01,0.91-0.35,1.85,0.47,2.73c0.35,0.38,0.04,1.13-0.54,1.58c-0.78,0.6-0.77,1.3-0.03,1.99c0.24,0.23,0.57,0.52,0.59,0.8
	c0.07,0.96,0.05,1.94,0.02,2.9c-0.03,0.86,0.85,1.51,0.55,2.42c-0.13,0.39-0.29,0.77-0.36,1.17c-0.23,1.17-0.5,2.33,0.34,3.42
	c0.29,0.37,0.52,0.89,0.53,1.35c0.06,2.11,0.06,4.23,0,6.34c-0.01,0.46-0.47,0.91-0.49,1.37c-0.04,1.35-0.24,2.74,0.82,3.89
	c0.16,0.17,0.05,0.58,0.06,0.88c-0.24,0-0.51,0.07-0.73,0c-1.71-0.53-5.08-0.61-6.69-0.13c-0.24,0.07-0.47,0.2-0.71,0.22
	c-2.98,0.19-5.95,0.38-8.93,0.53c-1.2,0.06-2.38,0-3.57,0.49c-0.99,0.41-2.12-0.03-3.3,0.48c-1.59,0.68-3.4-0.28-5.12-0.45
	c-0.16-0.02-0.29-0.33-0.44-0.5c-1.39-1.52-2.92-2.76-5.18-2.66c-1.08,0.04-2.16,0.04-3.23,0c-1.58-0.05-2.99,0.18-4.43,1.02
	c-2.2,1.28-6.03,0.59-7.96-1.03c-1.62-1.36-2.48-3.01-2.38-5.12c0.04-0.85-0.15-1.48-1.12-1.76c-0.95-0.28-1.73-0.89-2.77-1.13
	c-0.93-0.21-2.05-0.75-2.6-2.1c2.41,0.58,4.13-0.96,6.1-1.59c0.86-0.28,1.66-0.51,2.49-0.4c0.5,0.07,1.56,0.08,0.7,1.27
	c-0.47,0.65,0.38,1.16,1.1,1.32c0.39,0.09,0.77-0.11,0.98,0.54c0.51,1.58,0.6,1.42,2.07,1.62c1.72,0.23,3.29-0.35,4.89-0.64
	c1.09-0.19,2.18-0.9,3.05-1.64c1.26-1.07,1.35-2.67,1.27-4.21c-0.01-0.15-0.33-0.29-0.5-0.43c-0.74-0.6-1.48-1.2-2.21-1.79
	c0.07-1.1,0.93-1.64,1.61-2.04c1-0.59,1.79-1.34,2.6-2.11c0.13-0.12,0.25-0.35,0.38-0.36c2.87-0.08,4.38-2.44,6.53-3.71
	c0.35-0.21,0.75-0.11,0.81-0.72c0.15-1.4,1.41-2.48,1.09-4.06c-0.28-1.35,0.86-2.59,0.52-4c-0.19-0.77,0.19-1.29,0.75-1.82
	c1.44-1.36,2.24-2.95,1.98-5.02c-0.18-1.39-0.04-2.82-0.03-4.22c0.01-0.85-0.04-1.64-0.5-2.45c-0.36-0.63-0.05-1.43-0.33-2.23
	c-0.52-1.5-0.51-3.16,0.27-4.72C348.75,214.5,348.92,213.6,349.19,212.75z"/>
<path class="st0" d="M404.78,194.8c0.35-0.48,0.65-0.72,0.73-1.03c0.33-1.15,0.83-1.88,2.29-1.73c0.66,0.07,1.45-0.39,2.05-0.79
	c0.66-0.44,1.16-0.13,1.28,0.31c0.23,0.86,0.97,1.03,1.54,1.45c1.63,1.2,1.8,1.31,2.54,3.15c0.19,0.48,0.87,1.08,0.05,1.69
	c-0.13,0.1-0.12,0.56,0,0.76c1.08,1.89,0.36,3.81-0.06,5.64c-0.43,1.87-0.76,3.7-2.9,4.92c-2.3,1.31-3.71,3.76-4.53,6.27
	c-0.38,1.17-1.76,2.01-1.24,3.47c-0.85,0.7-0.49,1.66-0.41,2.46c0.16,1.58-0.49,3.02-0.59,4.54c-0.05,0.68-0.56,0.9-1.2,1.15
	c-1.98,0.77-2.2,2.7-2.51,4.37c-0.24,1.35,1.98,2.42,3.19,1.65c0.29-0.19,0.48-0.55,0.78-0.71c0.17-0.09,0.49,0.02,0.71,0.13
	c0.1,0.05,0.16,0.4,0.1,0.45c-0.53,0.44-0.39,1.23-1.33,1.62c-1.11,0.47-1.92,1.66-1.91,3.11c0,0.81,0.33,1.52,1.1,1.46
	c1.19-0.09,1.14,0.5,1.08,1.27c-0.18,2.22-0.31,4.44-0.57,6.65c-0.07,0.61-0.59,1.16-0.86,1.75c-0.85,1.85-1.37,3.78-1.26,5.83
	c1.27,1.04-0.14,1.96-0.19,2.94c-0.04,0.65-0.79,0.77-1.06,0.19c-0.7-1.47-2.16-2.03-3.45-2.62c-0.7-0.32-0.87-0.73-0.65-1.08
	c0.65-1.04,0.45-2.14,0.52-3.24c0.03-0.39,0.24-0.78,0.37-1.16c0.34-0.98,0.25-1.81-0.64-2.54c-0.87-0.71-2.08-0.37-2.45,0.77
	c-0.35,1.09-0.82,2.16-1.05,3.27c-0.18,0.89-0.97,1.72-1.41,1.69c-1.46-0.09-1.67,0.95-2.22,1.77c-1.23,1.8-2.51,3.57-3.74,5.37
	c-1.05,1.53-1.65,3.37-2.35,5.11c-0.67,1.68-1.07,2.07-2.53,1.43c-0.62-0.27-1.16-0.26-1.74-0.35c-2.15-0.33-3.18,0.5-3.29,2.66
	c0,0.09,0,0.17,0,0.39c-1.57,0-3.13,0-4.91,0c0.42-2-0.57-4.07,0.56-6.07c0.22-0.39,0.18-1.14-0.07-1.52
	c-0.59-0.91-0.64-1.68,0.01-2.56c0.12-0.16-0.09-0.61-0.23-0.88c-1.05-1.91-1.06-3.87-0.38-5.89c0.11-0.31,0.28-0.78,0.14-0.97
	c-1.1-1.46,0.11-3.31-0.81-4.69c-0.57-0.85-0.99-1.28-0.39-2.45c0.46-0.91,0.46-2.33-0.17-3.5c-0.22-0.42-0.23-0.99-0.21-1.49
	c0.05-1.13-0.18-2.13-0.74-3.15c-0.75-1.36-0.4-1.72,0.7-2.72c2.41-2.19,5.38-3.6,7.85-5.73c2.3-1.98,4.95-3.56,7.41-5.37
	c1.86-1.36,3.6-2.9,5.52-4.18c2.49-1.66,4.72-3.64,7.21-5.27c0.99-0.64,1.43-1.43,1.64-2.32c0.41-1.71,0.74-3.37,2-4.77
	c0.5-0.56,0.54-1.53,0.73-2.32c0.27-1.15-0.49-2.44,0.45-3.52c-0.74-0.98-0.31-2.12-0.46-3.17c-0.05-0.39-0.37-0.73-0.47-1.12
	c-0.19-0.73-0.05-1.4,0.68-1.79c0.65-0.35,0.92,0.26,1.3,0.58C404.46,194.47,404.58,194.6,404.78,194.8z"/>
<path class="st0" d="M350.61,217.07c-0.26-1.86,0.07-3.36-0.55-4.91c-0.74-1.83,0.94-4.51,3.31-5.77c2.35-1.25,4.71-2.48,7.06-3.71
	c0.96-0.5,0.97-0.4,2.83-0.57c0.87-0.08,1.84-0.44,2.52-0.98c1.1-0.86,2.26-1.07,3.59-1.13c1.37-0.06,2.85,0.56,4.09-0.5
	c1.93,0.22,3.42-1.02,4.89-1.79c2.91-1.53,6.16-2.04,9.08-3.43c0.51-0.24,1.23-0.06,1.86-0.07c1.8,0,3.6,0.04,5.39-0.02
	c0.84-0.03,1.81,0.41,2.47-0.51c1.27,0.18,2.57,0.26,3.79,0.62c0.38,0.11,0.7,0.94,0.77,1.48c0.25,1.86,0.44,3.73,0.55,5.6
	c0.11,1.73-0.48,3.34-1.57,4.62c-0.67,0.78-0.34,1.84-1.11,2.48c0.17,2.33-1.56,3.53-3.08,4.76c-1.99,1.6-4.13,3.01-6.13,4.6
	c-1.47,1.16-3.08,2.15-4.58,3.27c-1.75,1.3-3.54,2.6-5.35,3.84c-2.52,1.72-4.81,3.74-7.48,5.28c-1.33,0.77-2.41,1.95-3.63,2.92
	c-0.56,0.45-0.89,0.32-1.03-0.44c-0.26-1.35-0.91-2.38-2.26-3.11c-1.08-0.59-2.3-1.41-2.05-3.03c0.03-0.2-0.13-0.53-0.31-0.65
	c-1.22-0.78-1.41-2.43-2.97-3.07c-0.89-0.37-1.56-1.49-2.22-2.44c-1.03-1.47-2.39-3.09-4.75-2.14c-0.19,0.08-0.59-0.07-0.73-0.24
	c-0.26-0.31-0.37-0.73-0.6-1.07C351.9,216.19,351.32,216.34,350.61,217.07z"/>
<path class="st0" d="M210.25,275.52c-0.88,0.22-1.52,0.44-2.19,0.54c-0.78,0.11-1.58,0.22-2.35,0.15c-0.92-0.07-1.85-0.52-2.74-0.45
	c-0.78,0.07-1.47,0.83-2.26,0.95c-1.14,0.17-2.37,0.22-3.48-0.02c-0.65-0.14-1.15-0.84-1.73,0.06c-1.57-1-3.97,0.23-5.14-1.85
	c-0.71-1.25-2.1-1.46-3.28-1.78c-0.7-0.19-0.87-0.46-1.19-0.98c-0.74-1.17-0.43-2.42-0.29-3.55c0.15-1.27,2.52-1.79,3.78-1.03
	c0.43,0.26,0.85,0.63,1.31,0.7c1.46,0.2,1.6-0.3,1.37-1.85c-0.21-1.4-1.43-2.87-0.07-4.32c0.09-0.1,0-0.34,0.01-0.52
	c0.18-2.22,0.13-4.49,0.61-6.64c0.38-1.71,0.44-3.38,0.48-5.09c0.01-0.2,0.22-0.4,0.34-0.6c0.24,0.17,0.52,0.3,0.72,0.51
	c0.17,0.17,0.23,0.44,0.37,0.64c1.54,2.15,4.1,2.59,6.35,3.47c0.64,0.25,1.68-0.45,2.54-0.73c1.73-0.57,3.37-1.37,5.11-1.95
	c0.7-0.23,1.35-0.2,2-0.37c0.47-0.13,0.98-0.36,1.29-0.7c0.13-0.14-0.25-0.68-0.3-1.05c-0.23-1.59-1.5-2.4-2.73-2.92
	c-1.18-0.5-2.01-1.34-2.44-2.25c-0.65-1.37-1.54-1.58-2.88-1.56c-1,0.02-2.05-0.2-2.99-0.53c-0.55-0.19-0.94-0.58-0.73-1.57
	c0.38-1.78,1.38-3.16,2.18-4.69c0.67-1.28,0.45-1.68-1.02-2.17c-0.83-0.27-1-1.02-0.84-1.85c0.21-1.08,1.31-1.79,1.15-2.99
	c-0.02-0.13,0.31-0.42,0.48-0.43c1.53-0.08,2.49-0.88,3.08-2.2c0.1-0.23,0.35-0.4,0.56-0.56c1.31-1.07,1.81-2.27,0.79-3.82
	c-0.11-0.16,0.07-0.7,0.26-0.81c0.36-0.2,1-0.43,1.23-0.26c0.64,0.46,2.51,0.36,1.23,2c-0.04,0.06,0.21,0.38,0.36,0.54
	c0.88,0.88,1.77,1.75,2.77,2.73c-0.41,0.27-0.76,0.62-1.18,0.76c-1.82,0.59-2.53,1.55-2.64,3.29c-0.08,1.23,0.2,2.18,1.22,2.97
	c0.51,0.4,0.94,0.71,1.63,0.65c0.62-0.06,1.26,0,1.89-0.01c0.91-0.02,2.08,0.34,1.83-1.34c-0.03-0.2,0.82-0.76,1.22-0.73
	c0.99,0.09,1.99,0.35,2.93,0.68c0.87,0.31,0.32,0.92,0.08,1.35c-1.27,2.29-1.8,2.86-1.6,5.38c0.03,0.33,0.06,0.7,0.24,0.95
	c0.7,0.98,0.15,1.26-0.65,1.87c-1.42,1.09-1.5,2.77-1.03,4.42c0.18,0.62,0.41,1.26,0.76,1.8c1.7,2.53,1.71,2.52,4.8,2.54
	c0.6,0,1.19,0,1.82,0.16c-1.41,0.56-2.53,1.25-3.22,2.64c-0.27,0.54-0.67,0.99-0.56,1.62c0.32,1.87-0.41,3.47-1.29,5.03
	c-0.24,0.43-0.57,0.83-0.73,1.29c-0.09,0.25-0.03,0.69,0.15,0.88c0.76,0.79,1.47,1.8,2.88,1.11c0.16-0.08,0.59,0.27,0.85,0.47
	c1.02,0.8,2.01,1.62,3.02,2.42c0.52,0.41,0.93,0.46,1.07-0.35c0.03-0.18,0.32-0.44,0.48-0.44c1.02,0.01,1.72-0.61,2.53-1.06
	c0.36-0.2,1-0.42,1.24-0.25c0.63,0.44,0.95,0.17,1.33-0.24c0.11,0.18,0.36,0.43,0.3,0.54c-1.37,2.98-2.72,5.93-5.87,7.67
	c-0.82,0.45-1.71,1.09-2.35,0.66c-1.12-0.76-2.23-0.35-3.33-0.44c-1.27-0.11-2.44-0.17-2.53,1.74c-0.04,1.01-0.98,0.99-2.09,0.11
	c-0.44-0.35-1.03-0.53-1.54-0.81c-1.31-0.71-1.4-0.75-0.83-2.12c0.35-0.85-0.06-1.9,0.75-2.61c0.05-0.04-0.06-0.4-0.15-0.43
	c-0.22-0.07-0.6-0.14-0.7-0.03c-0.98,1.08-2.02,2.14-2.82,3.35c-0.29,0.43-0.85,1.21-0.09,1.91
	C210.49,273.78,210.39,274.65,210.25,275.52z"/>
<path class="st0" d="M169.87,208.54c0,0.73-0.04,1.26,0.01,1.78c0.05,0.44,0.45,1.09,0.29,1.25c-0.65,0.64-1.46,1.13-2.21,1.67
	c-1.19-0.73-1.77,0.23-2.44,0.87c-1.1,1.04-2.2,2.08-3.23,3.19c-0.53,0.58-1.07,0.84-1.86,0.74c-1.14-0.15-2.22,0.09-3.29,0.51
	c-1.04,0.4-1.82,0.89-1.86,2.16c-0.02,0.72-0.47,1.44-0.47,2.16c0,0.72,0.32,1.44,0.5,2.16c0.18,0.72,0.47,1.43,0.51,2.16
	c0.04,0.65,0.2,0.87,0.87,0.98c0.36,0.06,0.64,0.58,0.96,0.89c1,0.98,1,0.98-0.27,2.03c-0.89,0.73-1.03,0.98-0.42,2.01
	c0.64,1.07-0.4,2-0.07,3.03c0.06,0.18-0.33,0.67-0.6,0.76c-0.78,0.27-1.42,0.87-2.39,0.76c-2.25-0.26-4.52-0.35-6.78-0.58
	c-0.62-0.06-0.48-0.5-0.26-0.97c0.5-1.08,0.46-1.18-0.64-1.11c-1.73,0.11-3.47,0.23-5.16,0.55c-1.24,0.23-1.61-0.74-1.79-1.32
	c-0.52-1.64-1.22-3.31-0.17-5.09c0.42-0.72,0-1.11-0.93-1.03c-1.54,0.14-2.7,0.76-3.41,2.26c-0.22,0.46-0.06,1.47-1.13,1.47
	c-0.28,0-0.61,0.52-0.85,0.47c-0.97-0.21-1.93-0.52-2.88-0.83c-0.63-0.21-1.24-0.46-1.84-0.75c-1.56-0.75-1.82-1.92-0.78-3.42
	c0.74-1.07,0.81-1.57-0.11-2.69c-0.6-0.73-0.53-1.45-0.31-2.16c0.28-0.93,0.68-1.84,1.15-2.7c0.22-0.4,0.6-0.71,0.14-1.1
	c-1.05-0.88,0.79-1.48,0.21-2.3c0.33-0.2,0.66-0.41,1-0.61c0.87-0.5,2.12-0.81,2.51-1.55c0.49-0.94,1.46-1.04,2-1.77
	c0.63-0.84,1.49-1.52,2.26-2.27c0.52-0.51,0.59-1.15,0.07-1.6c-0.97-0.84-0.89-1.57-0.35-2.67c0.38-0.76,0-1.79,0.57-2.68
	c0.42-0.65,0.75-1.12,1.58-1.05c0.27,0.02,0.57,0.08,0.8-0.01c0.65-0.25,1.28-0.81,1.9-0.78c0.69,0.03,1.48,0.43,2,0.9
	c0.56,0.51,1.15,0.5,1.72,0.4c1.88-0.32,3.1,0.82,4.36,1.82c0.9,0.72,1.64,1.63,2.5,2.41c1.07,0.97,2.23,1.53,3.64,0.56
	c0.34-0.23,0.76-0.54,1.12-0.51c1.57,0.17,1.91-0.79,1.99-1.98c0.08-1.23,0.5-0.21,0.85-0.21c1.11,0.02,1.89,0.63,2.77,1.15
	C163.58,207.1,167.03,208.8,169.87,208.54z"/>
<path class="st0" d="M70.13,183.92c0.25,0.25,0.44,0.44,0.63,0.62c1.67,1.61,1.93,1.68,3.88,0.14c0.73-0.57,1.13-0.66,1.72,0.05
	c0.53,0.64,1.62,1.06,0.76,2.17c0.45,0.88,1.29,1.28,2.1,1.77c0.67,0.41,1.08-0.21,1.25-0.33c1.15-0.86,2.36-0.29,3.66-0.52
	c0,0.97-0.02,1.75,0.01,2.53c0.03,0.85-0.21,1.38-1.09,1.8c-1.23,0.59-1.5,2.11-0.7,3.21c0.65,0.9,1.3,1.83,2.11,2.57
	c0.79,0.71,0.77,2.19,2.23,2.24c-0.03,0.83,0.04,1.68-0.12,2.48c-0.1,0.54-0.7,0.99-0.77,1.52c-0.13,0.95-0.36,2.11,0.06,2.85
	c0.33,0.58,1.56,0.76,2.42,0.93c0.56,0.11,0.77,0.26,0.72,0.8c-0.06,0.61-0.09,1.22,0.52,1.63c-0.44,0.44-0.89,0.87-1.33,1.31
	c-0.64,0.62-1.34,1.2-1.89,1.89c-0.45,0.57-1.06,1.31-1.01,1.93c0.12,1.47-1.22,2.38-1.21,3.8c0.01,0.71-1.16,1.06-1.93,0.73
	c-0.46-0.2-0.88-0.48-1.31-0.74c-0.5-0.3-0.96-0.75-1.5-0.91c-1.69-0.48-3.01-1.78-4.84-1.98c-0.62-0.07-1.14-0.64-1.67,0.22
	c-0.16,0.25-0.77,0.34-1.17,0.33c-2.01-0.02-3.81,0.49-5.01,2.15c-0.4,0.55-1.52,0.2-1.41,1.23c0,0.02-0.33,0.12-0.49,0.09
	c-0.5-0.07-1-0.25-1.5-0.26c-0.63-0.01-0.6-0.35-0.71-0.82c-0.32-1.36,1.26-1.78,1.37-2.9c1.53-0.8,1.47-2.45,1.81-3.75
	c0.28-1.08,0.54-2.06,1.23-2.96c0.76-0.99,0.67-1.79-0.21-2.7c-1.07-1.1-2.19-2.1-2.73-3.66c-0.34-0.98-1.32-1.76-2.04-2.6
	c-0.39-0.46-3.54-5.15-3.59-5.68c-0.06-0.64,0.02-1.32,0.18-1.95c0.16-0.63,0.57-1.19,0.72-1.82c0.29-1.15-0.28-2.09-0.85-3.06
	c-0.55-0.95-0.2-1.46,0.83-1.46c1.06,0.01,2.12,0.03,3.17,0.15c0.88,0.1,1.09-0.02,0.89-0.74c-0.35-1.27-0.87-2.48-1.55-3.6
	c-0.26-0.43-0.35-0.66-0.05-1.12c0.35-0.54,0.77-1.2,0.74-1.79c-0.09-2.17,1.99-2.43,3.12-3.43c0.8-0.71,2.02,0.22,2.92,0.54
	c1.32,0.46,2.43,1.46,3.66,2.19c0.74,0.44,0.39,0.9,0.11,1.38C71.58,181.53,70.9,182.66,70.13,183.92z"/>
<path class="st0" d="M281.99,268.3c1.81,0,3.41-0.01,5.01,0c0.57,0,1.12,0.03,0.97-0.79c2-1.94,4.18-3.49,7.17-3.45
	c0.9,0.01,1.8,0.01,2.7,0c1.46-0.02,2.99,0.26,4.22-0.86c0.07-0.06,0.14-0.19,0.19-0.18c2.58,0.45,4.05-1.57,5.87-2.69
	c0.83-0.51,1.76-0.52,2.58-0.98c0.51-0.29,1.33-0.16,1.89,0.51c1.12,1.32,2.74,1.93,4.29,2.58c1.23,0.52,1.79,1.01,1.83,2.11
	c0.03,0.79-0.03,1.59,0.02,2.38c0.02,0.31,0.14,0.71,0.36,0.89c1.05,0.89,2.02,2.01,3.25,2.51c2.67,1.08,5.42,1.93,8.21-0.08
	c0.88-0.63,2.23-0.65,3.37-0.91c1.69-0.38,3.29,0.3,4.88,0.61c0.99,0.19,1.8,1.22,2.69,1.89c0.81,0.61,0.37,1.47,0.39,2.21
	c0.06,2.11,0,4.23,0.04,6.35c0.01,0.57,0.17,1.15,0.34,1.71c0.39,1.25,0.29,1.43-1.06,1.51c-1.62,0.1-3.13,0.6-4.6,1.24
	c-1.26,0.55-2.04,0.25-2.8-0.92c-0.55-0.85-1.22-1.63-1.87-2.41c-0.38-0.46-0.86-0.78-0.86-1.52c0-0.41-0.51-0.85-0.85-1.21
	c-0.74-0.77-1.54-1.48-2.27-2.26c-0.27-0.29-0.61-0.74-0.56-1.07c0.15-0.95-0.41-1.63-0.82-2.33c-0.28-0.48-0.18-1.46-1.35-1.18
	c-0.63,0.15-0.96,0.17-1.25,0.89c-0.42,1.02-1.79,0.74-2.67,1.24c-0.34,0.19-1.08-0.1-1.27,0.13c-0.65,0.77-1.62,0.09-2.2,0.56
	c-0.5,0.4-0.67,1.33-1.19,1.57c-1.02,0.45-1.4,1.38-2.1,2.01c-0.66,0.6-1.16,1.33-1.83,1.89c-0.63,0.53-1.38,1-2.16,1.24
	c-0.63,0.2-1.29,0.15-1.96,0.5c-0.47,0.25-1.41,0.36-1.93-0.38c-0.15-0.21-0.38-0.55-0.56-0.54c-2.3,0.11-1.98-1.51-1.91-2.85
	c0.08-1.46-0.36-2.66-1.44-3.66c-0.3-0.28-0.52-0.66-0.73-1.02c-0.29-0.5-0.44-1.15-0.85-1.47c-0.2-0.15-0.87,0.38-1.35,0.44
	c-0.71,0.09-1.45-0.05-2.15,0.04c-0.65,0.09-1.31,0.29-1.9,0.58c-0.72,0.35-0.64,1.1-0.81,1.78c-0.42,1.66-1.07,3.26-1.69,4.86
	c-0.24,0.61-1.18,0.91-1.82,0.62c-0.53-0.24-1.11-0.52-1.48-0.94c-0.76-0.88-1.63-1.25-2.79-1.11c-0.99,0.12-1.64-0.78-1.79-1.33
	c-0.39-1.37-1.52-1.55-2.5-1.78c-0.7-0.17-0.92-0.36-0.82-0.97c0.12-0.82-0.31-1.7,0.42-2.49c0.21-0.22-0.12-0.91-0.19-1.39
	C282.18,269.72,282.09,269.07,281.99,268.3z"/>
<path class="st0" d="M191.9,255.58c-0.9-0.06-1.71,0.31-2.35-0.48c-0.24-0.29-0.71-0.5-1.1-0.53c-0.59-0.04-1.27-0.04-1.78,0.21
	c-0.9,0.43-0.9-0.49-1.34-0.71c-0.53-0.25-0.98-0.65-1.51-0.9c-0.25-0.12-0.78-0.16-0.88-0.02c-1.02,1.35-2.86,1.76-3.71,3.45
	c-0.62,1.24-1.84,2.13-1.85,3.77c-0.01,1.02-1.91,1.76-3.1,1.39c-1.78-0.55-1.77-0.53-3.33,0.93c-0.21,0.2-0.6,0.27-0.92,0.3
	c-1.31,0.12-2.62,0.19-3.93,0.28c-0.46,1.15-1.64,1.59-2.46,2.38c-0.72,0.68-1.61,1.18-2.64,1.91c-0.33-1.03-0.84-1.81-0.76-2.54
	c0.12-1.19-0.53-1.85-1.3-2.38c-0.57-0.39-1.5-0.37-0.59-1.34c0.07-0.07-0.36-0.6-0.56-0.9c-0.97-1.42-0.94-2.17,0.23-3.45
	c0.48-0.53,1.02-0.99,1.52-1.5c0.24-0.24,0.66-0.57,0.62-0.78c-0.31-1.5,0.78-2.24,1.69-3.03c0.8-0.69,1.11-1.43,1.09-2.5
	c-0.02-0.98,0.08-2.1,0.55-2.93c0.98-1.73,0.32-3.27-0.28-4.78c-0.22-0.57-0.41-0.86,0.09-1.3c0.6-0.53,1.17-1.1,1.72-1.68
	c0.72-0.76,1.27-1.63,1.11-2.71c-0.16-1.16,0.29-1.98,1.16-2.72c0.43-0.37,0.66-0.96,1.02-1.42c0.08-0.1,0.4-0.14,0.51-0.06
	c1.2,0.79,2.36,1.63,3.57,2.4c0.41,0.26,0.93,0.46,1.4,0.47c0.44,0.01,1.23-0.46,1.29-0.36c0.35,0.54,0.69,1.18,0.72,1.8
	c0.07,1.19,0.61,2.07,1.42,2.87c1.45,1.44,3.75,1.36,4.98-0.22c0.35-0.45,0.61-1.31,0.98-1.35c1.12-0.11,2.39-0.2,3.37,0.22
	c2.13,0.93,4.17,2.1,6.13,3.34c0.97,0.61,1.84,1.15,3.03,1.17c0.35,0,0.7,0.43,1.05,0.67c-0.19,0.25-0.38,0.5-0.57,0.75
	c-0.4,0.53-0.92,0.75-1.61,0.67c-2.55-0.26-3.51,0.86-2.81,3.22c0.14,0.48,0.35,1.06,0.19,1.48c-0.43,1.17,1.16,2.03,0.28,3.39
	C191.69,252.89,191.99,254.24,191.9,255.58z"/>
<path class="st0" d="M205.24,222.11c0.47,1.41,0.14,2.26-0.78,3.03c-1.18,0.98-2.08,2.32-3.84,2.45c-0.2,0.01-0.53,0.42-0.53,0.64
	c0,1.07-0.3,1.96-1.06,2.77c-0.27,0.29-0.44,0.88-0.34,1.24c0.15,0.53,0.5,1.09,0.93,1.45c0.5,0.41,1.54,0.41,1.46,1.2
	c-0.07,0.68-0.57,1.39-1.06,1.92c-0.82,0.89-1.11,1.88-1.04,3.03c0.03,0.44,0.04,0.88,0,1.32c-0.09,0.93-0.58,1.11-1.42,0.63
	c-0.64-0.37-1.32-0.77-2.03-0.92c-1.52-0.32-2.75-1.13-4.09-1.84c-1.75-0.93-3.41-2.05-5.32-2.72c-1.16-0.41-2.27-0.25-3.38-0.24
	c-0.58,0.01-0.82,0.64-1.07,1.26c-0.56,1.39-0.68,1.31-2.04,1.36c-1.14,0.04-2.05-0.01-2.37-1.42c-0.17-0.76-1.05-1.36-0.92-2.26
	c0.14-0.98-0.6-1.4-1.15-1.91c-0.18-0.16-0.7-0.21-0.88-0.08c-1.74,1.24-2.46-0.66-3.49-1.21c-0.93-0.5-0.48-1.57,0.08-2.48
	c0.55-0.89,0.79-1.97,1.11-2.98c0.36-1.1,0.72-1.99,1.92-2.69c0.92-0.54,1.38-2.01,1.82-3.15c0.42-1.08,2.21-5.39,2.84-5.98
	c0.16-0.15,0.68-0.13,0.88,0.02c0.5,0.37,0.91,0.85,1.36,1.3c0.12-0.07,0.27-0.12,0.37-0.22c1.09-1.05,1.99-2.53,3.3-3.06
	c1.18-0.48,2.79,0.14,4.21,0.15c0.83,0.01,1.64,0.16,2.51-0.45c1.26-0.87,1.36-0.71,2-2.06c0.11-0.23,0.37-0.38,0.59-0.59
	c0.25,0.39,0.64,0.75,0.71,1.16c0.31,1.84,1.91,2.27,3.24,3.02c1.23-0.5,1.14,1.3,2.16,1.21c0.01,0,0.11,0.65,0.1,0.66
	c-1.42,0.26-1.17,1.39-0.99,2.2c0.29,1.31-0.98,1.64-1.44,1.66c-1.22,0.05-1.68,0.62-2.02,1.59c-0.63,1.77-1.38,3.5-1.93,5.29
	c-0.18,0.58,0.05,1.25,0.38,1.94c0.69,1.48,0.69,1.56,1.96,0.88c2.03-1.07,3.71-2.51,5.28-4.13c0.33-0.34,0.87-0.7,1.3-0.68
	C204.13,224.47,204.63,223.41,205.24,222.11z"/>
<path class="st0" d="M181.74,205.79c0,1.05-0.14,2.02,0.04,2.93c0.15,0.77,0.83,1.45,0.99,2.22c0.15,0.71,0.22,1.51-0.54,2.15
	c-0.49,0.42-0.75,1.09-1.23,1.84c-0.46-0.45-0.84-0.88-1.27-1.23c-0.89-0.74-1.91-0.53-2.3,0.5c-0.41,1.07-0.71,2.18-1.1,3.25
	c-0.11,0.3-0.29,0.63-0.53,0.83c-0.8,0.66-1.33,1.4-1.07,2.48c0.15,0.61-0.25,0.95-0.62,1.34c-0.72,0.75-1.37,1.56-2.08,2.32
	c-1.31,1.4-1.3,3.34-2.09,4.97c-0.26,0.54-0.31,0.79-0.96,0.85c-1.18,0.11-1.55,1.34-2.42,1.9c-0.97,0.62-0.99,1.51-1.02,2.51
	c-0.03,0.8-0.36,1.59-0.61,2.59c-1.56-2.45-2.86-4.79-5-6.52c-0.39-0.32-0.5-0.96-0.87-1.32c-0.5-0.48-0.55-1.22-1.44-1.55
	c-1.31-0.49-1.32-2.04-1.72-3.2c-0.16-0.48,0.08-1.07-0.05-1.57c-0.29-1.18,0.69-2.09,0.58-3.21c1.07-0.19,2.08-0.62,3.16-0.85
	c1.6-0.34,3.79,0.04,4.37-2.28c1.91-0.63,2.65-2.84,4.83-3.23c1.78-0.32,2.32-1.73,2.22-3.51c-0.13-2.11-0.04-2.05,2.17-1.5
	c1.34,0.33,2.74,1.18,4.13,0.03c0.52-0.43,1.14-0.76,1.63-1.22C179.66,206.59,180.43,205.97,181.74,205.79z"/>
<path class="st0" d="M77.84,251.54c0.88-0.34,1.37-0.74,1.79-0.67c2.1,0.32,3.79-0.8,5.63-1.41c0.07-0.02,1.26-1.2,1.3-1.28
	c0.37-0.71,0.74-1.43,1.18-2.26c1.46,0.97,2.9,1.84,4.23,2.86c0.61,0.46,0.94,0.61,1.54,0.03c0.33-0.32,0.88-0.58,1.34-0.59
	c0.46-0.01,0.92,0.33,1.39,0.48c1.84,0.58,2.24,1.65,0.96,3.26c-0.73,0.92-0.95,1.51-0.06,2.42c0.49,0.5,0.68,1.3,0.98,1.97
	c0.07,0.15,0.1,0.45,0.03,0.5c-0.86,0.59-1.06,1.5-1.29,2.39c-1.14,0.04-1.4,1.3-2.29,1.59c-0.51,0.16-0.79,0.25-0.72,0.8
	c-0.18,0.01-0.47,0.09-0.53,0.01c-0.23-0.33-0.44-0.7-0.58-1.08c-0.35-0.9-1.11-1.36-1.89-1.81c-0.43-0.25-1.26-0.57-1.23-0.76
	c0.25-1.66-0.92-1.45-1.83-1.33c-1.8,0.25-3.05-0.45-4.12-1.79c-0.71-0.89-1.51-1.65-2.9-1.44
	C79.47,253.64,79.16,252.22,77.84,251.54z"/>
<path class="st0" d="M121.01,188.99c1.76,1.04,3.72,1.56,5.01,3.16c0.6,0.74,1.01,1.61,2.01,2.09c0.93,0.44,1,1.71,1.59,2.47
	c0.57,0.73,0.32,1.1-0.22,1.49c-0.61,0.45-0.87,1.32-1.86,1.37c-0.28,0.01-0.5,0.65-0.82,0.94c-0.9,0.81-1.66,1.88-3.14,1.67
	c-0.44-0.06-0.9-0.05-1.34,0c-2.56,0.29-4.94-0.42-7.28-1.28c-0.42-0.15-0.71-0.51-1.12-0.09c-0.35,0.36-0.5,0.32-0.6-0.19
	c-0.12-0.56-0.6-1.16-0.47-1.62c0.27-0.93,0.63-2.23,1.34-2.55c1.72-0.77,1.84-2.03,1.85-3.51c0.01-1.22,0.17-1.65,1.53-1.82
	C119.05,190.92,119.96,190,121.01,188.99z"/>
<path class="st0" d="M175.58,262.54c0.95-0.05,1.55-0.08,2.33-0.11c0.15-1.26-0.1-2.65,0.94-3.79c0.84-0.91,1.39-2.08,2.14-3.08
	c0.63-0.85,2.14-0.32,2.59-1.5c0.43,0.22,1.16,0.36,1.24,0.67c0.2,0.74,0.55,1.04,1.25,0.86c1.84-0.47,3.26,0.88,4.94,1.1
	c0.17,0.02,0.41,0.5,0.41,0.76c0.02,1.95,0.21,3.91-0.92,5.71c-0.63,1.01,0.19,1.92,0.49,2.85c0.12,0.36,0.21,0.73,0.31,1.09
	c-0.49-0.04-1.04,0.06-1.44-0.14c-0.52-0.26-0.81-0.76-1.55-0.83c-1.27-0.13-1.98,0.51-2.72,1.28c-0.59,0.61-0.78,0.51-1.25-0.32
	c-0.37-0.64-0.22-1.33-0.62-1.88c-0.16-0.21-0.38-0.38-0.57-0.57c-0.11,0.18-0.25,0.34-0.33,0.53c-0.31,0.7-0.79,1.09-1.62,1.01
	c-0.32-0.03-0.74,0.01-0.98,0.19c-0.39,0.29-0.69,0.5-1.13,0.11c-0.35-0.3-0.93-0.48-1.08-0.84
	C177.51,264.49,176.72,263.57,175.58,262.54z"/>
<path class="st0" d="M192.42,246.22c0.21-0.34,0.61-0.69,0.61-1.03c0-0.89,0.6-0.74,1.09-0.69c1.76,0.16,2.27,0.06,3.25-0.79
	c1.02-0.89,1.43-0.97,3.24-0.81c0.53,0.05,1.11,0.12,1.6-0.01c1.87-0.51,3.04,0.7,3.7,1.91c0.68,1.25,1.69,1.75,2.78,2.36
	c0.66,0.37,1.51,0.43,1.81,1.43c0.29,0.99,0.14,1.63-0.88,1.72c-0.53,0.05-1.07,0.02-1.61,0.01c-0.72-0.03-1.3,0.09-1.91,0.62
	c-0.58,0.51-1.48,0.68-2.26,0.96c-0.31,0.11-0.82,0.01-0.97,0.21c-1.16,1.49-2.43,0.77-3.69,0.24c-0.68-0.29-1.31-0.83-2.01-0.92
	c-0.74-0.09-1.15-0.43-1.4-0.97c-0.49-1.06-1.23-1.79-2.3-2.26C192.65,247.82,192.27,247.19,192.42,246.22z"/>
<path class="st0" d="M-57.94,45.72c1.84,0.24,1.95,2.02,2.81,3.17c0.13,0.17-0.07,0.59-0.15,0.88c-0.29,1.12-0.83,2.14-0.84,3.36
	c0,1.36-1.48,1.93-2.66,1.13c-1.22-0.83-1.4-2.34-0.67-4.13C-58.86,48.69-58.44,47.19-57.94,45.72z"/>
<path class="st0" d="M-72.38,47.53c-1.53-0.08-1.99-1.79-3.39-2.03c-0.11-0.02-0.27-0.29-0.24-0.4c0.33-1.36-0.74-1.98-1.42-2.86
	c-0.43-0.55-0.56-1.34-0.73-2.05c-0.1-0.41-0.09-0.88,0-1.31c0.11-0.55-1.01-1.27,0.08-1.56c0.38-0.1,1.3,0.58,1.43,1.06
	c0.34,1.18,1.52,2.07,1.17,3.48c-0.2,0.8,0.29,1.28,1.02,1.55c0.15,0.06,0.34,0.07,0.47,0.16c0.76,0.54,1.5,1.11,2.24,1.66
	C-72.64,45.82-71.99,46.84-72.38,47.53z"/>
<path class="st0" d="M414.92,216.49c-0.22-0.84-0.43-1.55-0.58-2.27c-0.03-0.16,0.12-0.38,0.22-0.55c0.56-0.91,1.12-1.83,1.71-2.72
	c0.07-0.1,0.46-0.15,0.53-0.08c0.18,0.2,0.36,0.47,0.37,0.73c0.01,0.21-0.3,0.43-0.31,0.64c-0.03,0.66-0.15,1.36,0.47,1.86
	C416.56,214.89,415.76,215.67,414.92,216.49z"/>
<path class="st0" d="M-111.62,63.5c0-0.43-0.02-0.87,0.01-1.3c0.02-0.24,0.14-0.68,0.17-0.68c0.93,0.11,0.76-0.95,1.33-1.16
	c0.16-0.06,0.62,0.16,0.62,0.27c0.05,1.04,0.18,2.11-0.03,3.11c-0.14,0.66-0.79,1.23-1.24,1.82c-0.07,0.09-0.34,0.1-0.49,0.06
	c-0.14-0.04-0.35-0.19-0.36-0.3C-111.64,64.72-111.62,64.11-111.62,63.5z"/>
<path class="st0" d="M159.95,230.48c-0.88,1.34-0.87,2.5-0.89,3.69c-0.01,0.54-0.3,1.09-0.55,1.59c-0.08,0.16-0.48,0.3-0.66,0.24
	c-0.65-0.21-0.03-0.42,0.02-0.65c0.1-0.58,0.21-1.19,0.13-1.77C157.8,232.19,158.45,231.33,159.95,230.48z"/>
<path class="st0" d="M-30.73,132.69c0,0.26,0.07,0.54-0.02,0.77c-0.07,0.18-0.3,0.34-0.5,0.42c-0.11,0.04-0.39-0.05-0.44-0.15
	c-0.25-0.59-0.54-1.19-0.62-1.81c-0.05-0.39-0.38-1.19,0.48-1.15c0.38,0.02,0.82,0.52,1.07,0.91
	C-30.6,131.92-30.73,132.35-30.73,132.69z"/>
<path class="st0" d="M-53.37,142.47c-0.51,1.36-1.27,0.34-1.88,0.4c-0.08,0.01-0.27-0.24-0.27-0.37c-0.01-0.84-1.39-1.58-0.69-2.17
	c0.55-0.46,1.14,0.79,1.74,1.23C-54.06,141.86-53.69,142.21-53.37,142.47z"/>
<path class="st0" d="M212.73,201.11c0.37,0.35,0.73,0.98,1.12,0.99c1.2,0.05,1.14,1.09,1.63,1.69c0.07,0.09,0.1,0.33,0.07,0.35
	c-0.14,0.08-0.37,0.18-0.46,0.12c-1.14-0.74-1.97-1.74-2.85-2.71C212.4,201.4,212.57,201.25,212.73,201.11z"/>
<path class="st0" d="M-89.49,72.12c-0.12,0.11-0.28,0.36-0.46,0.37c-0.21,0.02-0.59-0.13-0.62-0.27c-0.25-1.04,0.49-2.24-0.56-3.15
	c0.14-0.09,0.27-0.22,0.42-0.24c0.15-0.03,0.45,0.02,0.46,0.09C-89.97,69.94-89.75,70.97-89.49,72.12z"/>
<path class="st0" d="M-26.61,143.46c-0.55-0.05-1.01,0.04-1.2-0.15c-0.34-0.32-0.52-0.81-0.76-1.22c0.4-0.09,0.81-0.27,1.2-0.23
	c0.29,0.02,0.56,0.31,0.83,0.5c0.23,0.16,0.44,0.35,0.67,0.53C-26.16,143.11-26.44,143.33-26.61,143.46z"/>
<path class="st0" d="M213.25,208.24c0.63-1.35,1.11-2.37,1.68-3.59C215.59,206.36,214.82,207.26,213.25,208.24z"/>
<path class="st0" d="M-91.59,65.29c0.07-0.07,0.13-0.13,0.19-0.19c0.06,0.12,0.14,0.23,0.17,0.36c0.01,0.04-0.11,0.12-0.17,0.17
	C-91.47,65.52-91.53,65.41-91.59,65.29z"/>
</svg>
