<?xml version="1.0" encoding="UTF-8"?>
<svg width="24px" height="24px" viewBox="0 0 24 24" version="1.1" xmlns="http://www.w3.org/2000/svg" xmlns:xlink="http://www.w3.org/1999/xlink">
    <!-- Generator: Sketch 47.1 (45422) - http://www.bohemiancoding.com/sketch -->
    <title>Refresh_icon</title>
    <desc>Created with Sketch.</desc>
    <defs>
        <path d="M2.10754136,4.57569479 C4.12076751,1.80296317 7.38829299,0 11.0769231,0 C17.1945388,0 22.1538462,4.95930739 22.1538462,11.0769231 C22.1538462,17.1945388 17.1945388,22.1538462 11.0769231,22.1538462 C6.09332302,22.1538462 1.87840397,18.8627315 0.487018836,14.3353552 L3.1344949,13.5207471 C4.17803375,16.9162794 7.33922303,19.3846154 11.0769231,19.3846154 C15.6651348,19.3846154 19.3846154,15.6651348 19.3846154,11.0769231 C19.3846154,6.48871131 15.6651348,2.76923077 11.0769231,2.76923077 C8.22928828,2.76923077 5.71628521,4.20195948 4.21943845,6.3858923 L6.46153846,8.30769231 L0,10.1538462 L0,2.76923077 L2.10754136,4.57569479 Z" id="path-1"></path>
    </defs>
    <g id="Desktop_960" stroke="none" stroke-width="1" fill="none" fill-rule="evenodd">
        <g id="Application_Process_captcha_2" transform="translate(-295.000000, -773.000000)">
            <g id="Link" transform="translate(295.000000, 773.000000)">
                <g id="Refresh_icon" transform="translate(0.923077, 0.923077)">
                    <mask id="mask-2" fill="white">
                        <use xlink:href="#path-1"></use>
                    </mask>
                    <use id="Mask" fill="#FFFFFF" xlink:href="#path-1"></use>
                    <g id="Color/BBVA-White" mask="url(#mask-2)" fill="#1973B8">
                        <g transform="translate(-0.923077, -0.923077)" id="Color/BBVA-Blue">
                            <rect x="0" y="0" width="24" height="24"></rect>
                        </g>
                    </g>
                </g>
            </g>
        </g>
    </g>
</svg>