<?xml version="1.0" encoding="utf-8"?>
<!-- Generator: Adobe Illustrator 24.0.0, SVG Export Plug-In . SVG Version: 6.00 Build 0)  -->
<svg version="1.1" id="_x2014_ÎÓÈ_x5F_1" xmlns="http://www.w3.org/2000/svg" xmlns:xlink="http://www.w3.org/1999/xlink"
	 x="0px" y="0px" viewBox="0 0 127.86 148.81" style="enable-background:new 0 0 127.86 148.81;" xml:space="preserve">
<style type="text/css">
	.st0{fill:#e4d1aa;}
	.st1{fill:#FFFFFF;}
</style>
<g>
	<polygon class="st0" points="90.69,77.97 91,78.37 90.69,78.02 90.38,77.67 90.44,77.66 	"/>
	<polygon class="st0" points="87.59,6.96 89.53,4.78 94.7,5.91 94.97,5.97 96.11,3.53 96.31,3.1 105.93,2.93 108.67,0 108.92,0.42 
		110.34,2.85 110.38,2.93 110.46,3.06 112.4,6.35 113.83,7.18 114.38,7.5 114.65,7.66 114.64,7.74 114.84,7.86 114.67,7.93 
		114.65,8.33 114.57,8.28 113.89,13.91 111.21,15.92 111.15,15.97 110.65,29.97 112.77,31.18 113.08,31.36 112.91,33.88 
		113.86,34.36 113.94,34.39 114.02,34.43 114.1,34.47 114.18,34.51 115.01,34.9 120.02,35.11 122.16,33.54 122.84,33.04 
		124.29,34.64 126.16,36.71 126.54,37.13 126.55,37.21 126.55,37.26 126.63,37.98 126.77,39.26 125.32,39.72 126.33,39.27 
		126.47,37.85 126.01,37.44 125.86,38.93 122.58,40.39 122.91,44.72 119.67,45.65 118.16,50.53 114.47,51.06 113.3,55.58 
		109.61,55.58 105.12,57.82 109.79,61.56 109.36,67.64 100.33,80.67 98.61,80.67 92.51,78.64 90.87,76.59 90.69,76.62 90.69,77.16 
		91.52,78.21 90.69,77.26 90.57,77.13 90.19,76.7 90.19,76.69 90.18,76.69 89.69,76.13 89.36,75.76 89.69,72.92 89.93,70.85 
		93.2,67.87 95.85,65.45 96.26,64.19 97.23,61.19 97.57,60.14 97.58,60.11 100.39,57.02 94.23,56.8 92.08,56.72 79.04,63.66 
		77.57,67.52 75.28,67.04 75.24,67.03 74.01,66.77 73.5,66.66 73.18,63.28 66.31,63.95 63.43,64.27 63.17,64.3 54.27,77.83 
		54.13,78.04 50.78,77.58 49.39,77.48 49.42,78.14 49.51,80.7 49.51,80.71 49.66,81.36 52.15,82.31 50.06,84.61 45.47,97.59 
		47.74,99.51 47.76,99.53 47.91,99.63 45.95,103.29 45.88,103.27 45.83,103.37 41.02,101.88 40.7,108 28.55,121.03 15.15,125.67 
		6.94,145.93 6.85,145.66 6.61,144.94 6.06,143.31 3.54,142.41 3.54,140.37 1.77,139.93 1.31,139.81 9.7,116.14 12.6,111.38 
		12.64,111.32 15.3,106.96 14.79,88.3 17.75,82.01 22.4,82.19 28.12,77.77 28.12,75.88 25.66,74.41 25.61,74.38 24.4,70.97 
		26.24,69.13 26.56,72.48 26.59,72.73 26.63,73.25 29.58,73.74 29.6,73.74 30.59,73.85 32.45,71.78 32.57,71.64 33.67,70.37 
		34.36,62.21 38.14,58.63 38.43,58.67 38.44,58.66 38.67,58.7 38.71,58.71 38.83,58.73 38.95,58.74 43.04,59.26 43.41,58.07 
		43.41,58.05 43.57,56.87 52.38,54.05 59.39,45.41 57.01,43.71 53.71,41.35 56.44,41.35 57.59,36.89 53.29,36.23 53.25,36.22 
		53.18,35.49 52.55,29.41 49.43,28.31 49.16,28.21 52.35,25.03 52.65,25.1 57.07,26.18 58.35,26.49 58.22,24.74 58.05,22.5 
		60.02,19.53 60.03,19.52 64.75,19.85 65.04,19.87 66.29,17.89 67.5,15.48 67.37,15.29 67.05,14.82 67.05,14.81 67.02,14.77 
		66.63,14.19 66.72,14.19 67.19,14.18 73.15,14.09 73.21,14.09 74.61,8.84 86.58,7.97 	"/>
	<path class="st1" d="M114.64,7.74l-0.07,0.54l0.08,0.05l0.02-0.4l0.17-0.07L114.64,7.74z M112.91,33.88v0.04l0.95,0.44
		L112.91,33.88z M73.17,63.17l-6.86,0.78l6.87-0.67L73.17,63.17z M67.5,15.48l-1.21,2.41l1.37-2.17L67.5,15.48z M49.39,77.39v0.09
		l1.39,0.1L49.39,77.39z M49.51,80.71l0.02,0.6l0.13,0.05L49.51,80.71z M47.76,99.53l-1.88,3.74l0.07,0.02l1.96-3.66L47.76,99.53z
		 M43.04,59.26l0.2,0.03l0.17-1.22L43.04,59.26z M38.44,58.66l-0.01,0.01l0.24,0.03L38.44,58.66z M30.59,73.85l0.07,0.01l1.79-2.08
		L30.59,73.85z M26.63,73.25l0.02,0.16l2.93,0.33L26.63,73.25z M114.64,7.74l-0.07,0.54l0.08,0.05l0.02-0.4l0.17-0.07L114.64,7.74z
		 M112.91,33.88v0.04l0.95,0.44L112.91,33.88z M73.17,63.17l-6.86,0.78l6.87-0.67L73.17,63.17z M67.5,15.48l-1.21,2.41l1.37-2.17
		L67.5,15.48z M49.39,77.39v0.09l1.39,0.1L49.39,77.39z M49.51,80.71l0.02,0.6l0.13,0.05L49.51,80.71z M47.76,99.53l-1.88,3.74
		l0.07,0.02l1.96-3.66L47.76,99.53z M43.04,59.26l0.2,0.03l0.17-1.22L43.04,59.26z M38.44,58.66l-0.01,0.01l0.24,0.03L38.44,58.66z
		 M30.59,73.85l0.07,0.01l1.79-2.08L30.59,73.85z M26.63,73.25l0.02,0.16l2.93,0.33L26.63,73.25z M114.64,7.74l-0.07,0.54l0.08,0.05
		l0.02-0.4l0.17-0.07L114.64,7.74z M112.91,33.88v0.04l0.95,0.44L112.91,33.88z M73.17,63.17l-6.86,0.78l6.87-0.67L73.17,63.17z
		 M67.5,15.48l-1.21,2.41l1.37-2.17L67.5,15.48z M49.39,77.39v0.09l1.39,0.1L49.39,77.39z M49.51,80.71l0.02,0.6l0.13,0.05
		L49.51,80.71z M47.76,99.53l-1.88,3.74l0.07,0.02l1.96-3.66L47.76,99.53z M43.04,59.26l0.2,0.03l0.17-1.22L43.04,59.26z
		 M38.44,58.66l-0.01,0.01l0.24,0.03L38.44,58.66z M30.59,73.85l0.07,0.01l1.79-2.08L30.59,73.85z M26.63,73.25l0.02,0.16l2.93,0.33
		L26.63,73.25z M114.64,7.74l-0.07,0.54l0.08,0.05l0.02-0.4l0.17-0.07L114.64,7.74z M112.91,33.88v0.04l0.95,0.44L112.91,33.88z
		 M73.17,63.17l-6.86,0.78l6.87-0.67L73.17,63.17z M67.5,15.48l-1.21,2.41l1.37-2.17L67.5,15.48z M49.39,77.39v0.09l1.39,0.1
		L49.39,77.39z M49.51,80.71l0.02,0.6l0.13,0.05L49.51,80.71z M47.76,99.53l-1.88,3.74l0.07,0.02l1.96-3.66L47.76,99.53z
		 M43.04,59.26l0.2,0.03l0.17-1.22L43.04,59.26z M38.44,58.66l-0.01,0.01l0.24,0.03L38.44,58.66z M30.59,73.85l0.07,0.01l1.79-2.08
		L30.59,73.85z M26.63,73.25l0.02,0.16l2.93,0.33L26.63,73.25z M114.64,7.74l-0.07,0.54l0.08,0.05l0.02-0.4l0.17-0.07L114.64,7.74z
		 M112.91,33.88v0.04l0.95,0.44L112.91,33.88z M73.17,63.17l-6.86,0.78l6.87-0.67L73.17,63.17z M67.5,15.48l-1.21,2.41l1.37-2.17
		L67.5,15.48z M49.39,77.39v0.09l1.39,0.1L49.39,77.39z M49.51,80.71l0.02,0.6l0.13,0.05L49.51,80.71z M47.76,99.53l-1.88,3.74
		l0.07,0.02l1.96-3.66L47.76,99.53z M43.04,59.26l0.2,0.03l0.17-1.22L43.04,59.26z M38.44,58.66l-0.01,0.01l0.24,0.03L38.44,58.66z
		 M30.59,73.85l0.07,0.01l1.79-2.08L30.59,73.85z M26.63,73.25l0.02,0.16l2.93,0.33L26.63,73.25z M114.64,7.74l-0.07,0.54l0.08,0.05
		l0.02-0.4l0.17-0.07L114.64,7.74z M112.91,33.88v0.04l0.95,0.44L112.91,33.88z M73.17,63.17l-6.86,0.78l6.87-0.67L73.17,63.17z
		 M67.5,15.48l-1.21,2.41l1.37-2.17L67.5,15.48z M49.39,77.39v0.09l1.39,0.1L49.39,77.39z M49.51,80.71l0.02,0.6l0.13,0.05
		L49.51,80.71z M47.76,99.53l-1.88,3.74l0.07,0.02l1.96-3.66L47.76,99.53z M43.04,59.26l0.2,0.03l0.17-1.22L43.04,59.26z
		 M38.44,58.66l-0.01,0.01l0.24,0.03L38.44,58.66z M30.59,73.85l0.07,0.01l1.79-2.08L30.59,73.85z M26.63,73.25l0.02,0.16l2.93,0.33
		L26.63,73.25z M114.64,7.74l-0.07,0.54l0.08,0.05l0.02-0.4l0.17-0.07L114.64,7.74z M112.91,33.88v0.04l0.95,0.44L112.91,33.88z
		 M73.17,63.17l-6.86,0.78l6.87-0.67L73.17,63.17z M67.5,15.48l-1.21,2.41l1.37-2.17L67.5,15.48z M49.39,77.39v0.09l1.39,0.1
		L49.39,77.39z M49.51,80.71l0.02,0.6l0.13,0.05L49.51,80.71z M47.76,99.53l-1.88,3.74l0.07,0.02l1.96-3.66L47.76,99.53z
		 M43.04,59.26l0.2,0.03l0.17-1.22L43.04,59.26z M38.44,58.66l-0.01,0.01l0.24,0.03L38.44,58.66z M30.59,73.85l0.07,0.01l1.79-2.08
		L30.59,73.85z M26.63,73.25l0.02,0.16l2.93,0.33L26.63,73.25z M114.64,7.74l-0.07,0.54l0.08,0.05l0.02-0.4l0.17-0.07L114.64,7.74z
		 M112.91,33.88v0.04l0.95,0.44L112.91,33.88z M73.17,63.17l-6.86,0.78l6.87-0.67L73.17,63.17z M67.5,15.48l-1.21,2.41l1.37-2.17
		L67.5,15.48z M49.39,77.39v0.09l1.39,0.1L49.39,77.39z M49.51,80.71l0.02,0.6l0.13,0.05L49.51,80.71z M47.76,99.53l-1.88,3.74
		l0.07,0.02l1.96-3.66L47.76,99.53z M43.04,59.26l0.2,0.03l0.17-1.22L43.04,59.26z M38.44,58.66l-0.01,0.01l0.24,0.03L38.44,58.66z
		 M30.59,73.85l0.07,0.01l1.79-2.08L30.59,73.85z M26.63,73.25l0.02,0.16l2.93,0.33L26.63,73.25z M114.64,7.74l-0.07,0.54l0.08,0.05
		l0.02-0.4l0.17-0.07L114.64,7.74z M112.91,33.88v0.04l0.95,0.44L112.91,33.88z M73.17,63.17l-6.86,0.78l6.87-0.67L73.17,63.17z
		 M67.5,15.48l-1.21,2.41l1.37-2.17L67.5,15.48z M49.39,77.39v0.09l1.39,0.1L49.39,77.39z M49.51,80.71l0.02,0.6l0.13,0.05
		L49.51,80.71z M47.76,99.53l-1.88,3.74l0.07,0.02l1.96-3.66L47.76,99.53z M43.04,59.26l0.2,0.03l0.17-1.22L43.04,59.26z
		 M38.44,58.66l-0.01,0.01l0.24,0.03L38.44,58.66z M30.59,73.85l0.07,0.01l1.79-2.08L30.59,73.85z M26.63,73.25l0.02,0.16l2.93,0.33
		L26.63,73.25z M114.64,7.74l-0.07,0.54l0.08,0.05l0.02-0.4l0.17-0.07L114.64,7.74z M112.91,33.88v0.04l0.95,0.44L112.91,33.88z
		 M73.17,63.17l-6.86,0.78l6.87-0.67L73.17,63.17z M67.5,15.48l-1.21,2.41l1.37-2.17L67.5,15.48z M49.39,77.39v0.09l1.39,0.1
		L49.39,77.39z M49.51,80.71l0.02,0.6l0.13,0.05L49.51,80.71z M47.76,99.53l-1.88,3.74l0.07,0.02l1.96-3.66L47.76,99.53z
		 M43.04,59.26l0.2,0.03l0.17-1.22L43.04,59.26z M38.44,58.66l-0.01,0.01l0.24,0.03L38.44,58.66z M30.59,73.85l0.07,0.01l1.79-2.08
		L30.59,73.85z M26.63,73.25l0.02,0.16l2.93,0.33L26.63,73.25z M73.17,63.17l-6.86,0.78l6.87-0.67L73.17,63.17z M67.5,15.48
		l-1.21,2.41l1.37-2.17L67.5,15.48z M49.39,77.39v0.09l1.39,0.1L49.39,77.39z M49.51,80.71l0.02,0.6l0.13,0.05L49.51,80.71z
		 M47.76,99.53l-1.88,3.74l0.07,0.02l1.96-3.66L47.76,99.53z M43.04,59.26l0.2,0.03l0.17-1.22L43.04,59.26z M38.44,58.66l-0.01,0.01
		l0.24,0.03L38.44,58.66z M30.59,73.85l0.07,0.01l1.79-2.08L30.59,73.85z M26.63,73.25l0.02,0.16l2.93,0.33L26.63,73.25z
		 M73.17,63.17l-6.86,0.78l6.87-0.67L73.17,63.17z M67.5,15.48l-1.21,2.41l1.37-2.17L67.5,15.48z M49.39,77.39v0.09l1.39,0.1
		L49.39,77.39z M49.51,80.71l0.02,0.6l0.13,0.05L49.51,80.71z M47.76,99.53l-1.88,3.74l0.07,0.02l1.96-3.66L47.76,99.53z
		 M43.04,59.26l0.2,0.03l0.17-1.22L43.04,59.26z M38.44,58.66l-0.01,0.01l0.24,0.03L38.44,58.66z M30.59,73.85l0.07,0.01l1.79-2.08
		L30.59,73.85z M26.63,73.25l0.02,0.16l2.93,0.33L26.63,73.25z M73.17,63.17l-6.86,0.78l6.87-0.67L73.17,63.17z M67.5,15.48
		l-1.21,2.41l1.37-2.17L67.5,15.48z M49.39,77.39v0.09l1.39,0.1L49.39,77.39z M49.51,80.71l0.02,0.6l0.13,0.05L49.51,80.71z
		 M47.76,99.53l-1.88,3.74l0.07,0.02l1.96-3.66L47.76,99.53z M43.04,59.26l0.2,0.03l0.17-1.22L43.04,59.26z M38.44,58.66l-0.01,0.01
		l0.24,0.03L38.44,58.66z M30.59,73.85l0.07,0.01l1.79-2.08L30.59,73.85z M26.63,73.25l0.02,0.16l2.93,0.33L26.63,73.25z
		 M26.63,73.25l0.02,0.16l2.93,0.33L26.63,73.25z M30.59,73.85l0.07,0.01l1.79-2.08L30.59,73.85z M38.44,58.66l-0.01,0.01l0.24,0.03
		L38.44,58.66z M43.04,59.26l0.2,0.03l0.17-1.22L43.04,59.26z M47.76,99.53l-1.88,3.74l0.07,0.02l1.96-3.66L47.76,99.53z
		 M49.51,80.71l0.02,0.6l0.13,0.05L49.51,80.71z M49.39,77.39v0.09l1.39,0.1L49.39,77.39z M67.5,15.48l-1.21,2.41l1.37-2.17
		L67.5,15.48z M73.17,63.17l-6.86,0.78l6.87-0.67L73.17,63.17z M90.69,77.97l-0.25-0.31l-0.06,0.01l0.31,0.35L91,78.37L90.69,77.97z
		 M114.64,7.74l-0.07,0.54l0.08,0.05l0.02-0.4l0.17-0.07L114.64,7.74z M112.91,33.88v0.04l0.95,0.44L112.91,33.88z M26.63,73.25
		l0.02,0.16l2.93,0.33L26.63,73.25z M30.59,73.85l0.07,0.01l1.79-2.08L30.59,73.85z M38.44,58.66l-0.01,0.01l0.24,0.03L38.44,58.66z
		 M43.04,59.26l0.2,0.03l0.17-1.22L43.04,59.26z M47.76,99.53l-1.88,3.74l0.07,0.02l1.96-3.66L47.76,99.53z M49.51,80.71l0.02,0.6
		l0.13,0.05L49.51,80.71z M49.39,77.39v0.09l1.39,0.1L49.39,77.39z M67.5,15.48l-1.21,2.41l1.37-2.17L67.5,15.48z M73.17,63.17
		l-6.86,0.78l6.87-0.67L73.17,63.17z M26.63,73.25l0.02,0.16l2.93,0.33L26.63,73.25z M30.59,73.85l0.07,0.01l1.79-2.08L30.59,73.85z
		 M38.44,58.66l-0.01,0.01l0.24,0.03L38.44,58.66z M43.04,59.26l0.2,0.03l0.17-1.22L43.04,59.26z M47.76,99.53l-1.88,3.74l0.07,0.02
		l1.96-3.66L47.76,99.53z M49.51,80.71l0.02,0.6l0.13,0.05L49.51,80.71z M49.39,77.39v0.09l1.39,0.1L49.39,77.39z M67.5,15.48
		l-1.21,2.41l1.37-2.17L67.5,15.48z M73.17,63.17l-6.86,0.78l6.87-0.67L73.17,63.17z M26.63,73.25l0.02,0.16l2.93,0.33L26.63,73.25z
		 M30.59,73.85l0.07,0.01l1.79-2.08L30.59,73.85z M38.44,58.66l-0.01,0.01l0.24,0.03L38.44,58.66z M43.04,59.26l0.2,0.03l0.17-1.22
		L43.04,59.26z M47.76,99.53l-1.88,3.74l0.07,0.02l1.96-3.66L47.76,99.53z M49.51,80.71l0.02,0.6l0.13,0.05L49.51,80.71z
		 M49.39,77.39v0.09l1.39,0.1L49.39,77.39z M67.5,15.48l-1.21,2.41l1.37-2.17L67.5,15.48z M73.17,63.17l-6.86,0.78l6.87-0.67
		L73.17,63.17z M114.64,7.74l-0.07,0.54l0.08,0.05l0.02-0.4l0.17-0.07L114.64,7.74z M112.91,33.88v0.04l0.95,0.44L112.91,33.88z
		 M26.63,73.25l0.02,0.16l2.93,0.33L26.63,73.25z M30.59,73.85l0.07,0.01l1.79-2.08L30.59,73.85z M38.44,58.66l-0.01,0.01l0.24,0.03
		L38.44,58.66z M43.04,59.26l0.2,0.03l0.17-1.22L43.04,59.26z M47.76,99.53l-1.88,3.74l0.07,0.02l1.96-3.66L47.76,99.53z
		 M49.51,80.71l0.02,0.6l0.13,0.05L49.51,80.71z M49.39,77.39v0.09l1.39,0.1L49.39,77.39z M67.5,15.48l-1.21,2.41l1.37-2.17
		L67.5,15.48z M73.17,63.17l-6.86,0.78l6.87-0.67L73.17,63.17z M114.64,7.74l-0.07,0.54l0.08,0.05l0.02-0.4l0.17-0.07L114.64,7.74z
		 M112.91,33.88v0.04l0.95,0.44L112.91,33.88z M26.63,73.25l0.02,0.16l2.93,0.33L26.63,73.25z M30.59,73.85l0.07,0.01l1.79-2.08
		L30.59,73.85z M38.44,58.66l-0.01,0.01l0.24,0.03L38.44,58.66z M43.04,59.26l0.2,0.03l0.17-1.22L43.04,59.26z M47.76,99.53
		l-1.88,3.74l0.07,0.02l1.96-3.66L47.76,99.53z M49.51,80.71l0.02,0.6l0.13,0.05L49.51,80.71z M49.39,77.39v0.09l1.39,0.1
		L49.39,77.39z M67.5,15.48l-1.21,2.41l1.37-2.17L67.5,15.48z M73.17,63.17l-6.86,0.78l6.87-0.67L73.17,63.17z M114.64,7.74
		l-0.07,0.54l0.08,0.05l0.02-0.4l0.17-0.07L114.64,7.74z M112.91,33.88v0.04l0.95,0.44L112.91,33.88z M26.63,73.25l0.02,0.16
		l2.93,0.33L26.63,73.25z M30.59,73.85l0.07,0.01l1.79-2.08L30.59,73.85z M38.44,58.66l-0.01,0.01l0.24,0.03L38.44,58.66z
		 M43.04,59.26l0.2,0.03l0.17-1.22L43.04,59.26z M47.76,99.53l-1.88,3.74l0.07,0.02l1.96-3.66L47.76,99.53z M49.51,80.71l0.02,0.6
		l0.13,0.05L49.51,80.71z M49.39,77.39v0.09l1.39,0.1L49.39,77.39z M67.5,15.48l-1.21,2.41l1.37-2.17L67.5,15.48z M73.17,63.17
		l-6.86,0.78l6.87-0.67L73.17,63.17z M114.64,7.74l-0.07,0.54l0.08,0.05l0.02-0.4l0.17-0.07L114.64,7.74z M112.91,33.88v0.04
		l0.95,0.44L112.91,33.88z M26.63,73.25l0.02,0.16l2.93,0.33L26.63,73.25z M30.59,73.85l0.07,0.01l1.79-2.08L30.59,73.85z
		 M38.44,58.66l-0.01,0.01l0.24,0.03L38.44,58.66z M43.04,59.26l0.2,0.03l0.17-1.22L43.04,59.26z M47.76,99.53l-1.88,3.74l0.07,0.02
		l1.96-3.66L47.76,99.53z M49.51,80.71l0.02,0.6l0.13,0.05L49.51,80.71z M49.39,77.39v0.09l1.39,0.1L49.39,77.39z M67.5,15.48
		l-1.21,2.41l1.37-2.17L67.5,15.48z M73.17,63.17l-6.86,0.78l6.87-0.67L73.17,63.17z M114.64,7.74l-0.07,0.54l0.08,0.05l0.02-0.4
		l0.17-0.07L114.64,7.74z M112.91,33.88v0.04l0.95,0.44L112.91,33.88z M26.63,73.25l0.02,0.16l2.93,0.33L26.63,73.25z M30.59,73.85
		l0.07,0.01l1.79-2.08L30.59,73.85z M38.44,58.66l-0.01,0.01l0.24,0.03L38.44,58.66z M43.04,59.26l0.2,0.03l0.17-1.22L43.04,59.26z
		 M47.76,99.53l-1.88,3.74l0.07,0.02l1.96-3.66L47.76,99.53z M49.51,80.71l0.02,0.6l0.13,0.05L49.51,80.71z M49.39,77.39v0.09
		l1.39,0.1L49.39,77.39z M67.5,15.48l-1.21,2.41l1.37-2.17L67.5,15.48z M73.17,63.17l-6.86,0.78l6.87-0.67L73.17,63.17z
		 M114.64,7.74l-0.07,0.54l0.08,0.05l0.02-0.4l0.17-0.07L114.64,7.74z M112.91,33.88v0.04l0.95,0.44L112.91,33.88z M26.63,73.25
		l0.02,0.16l2.93,0.33L26.63,73.25z M30.59,73.85l0.07,0.01l1.79-2.08L30.59,73.85z M38.44,58.66l-0.01,0.01l0.24,0.03L38.44,58.66z
		 M43.04,59.26l0.2,0.03l0.17-1.22L43.04,59.26z M47.76,99.53l-1.88,3.74l0.07,0.02l1.96-3.66L47.76,99.53z M49.51,80.71l0.02,0.6
		l0.13,0.05L49.51,80.71z M49.39,77.39v0.09l1.39,0.1L49.39,77.39z M67.5,15.48l-1.21,2.41l1.37-2.17L67.5,15.48z M73.17,63.17
		l-6.86,0.78l6.87-0.67L73.17,63.17z M114.64,7.74l-0.07,0.54l0.08,0.05l0.02-0.4l0.17-0.07L114.64,7.74z M112.91,33.88v0.04
		l0.95,0.44L112.91,33.88z M26.63,73.25l0.02,0.16l2.93,0.33L26.63,73.25z M30.59,73.85l0.07,0.01l1.79-2.08L30.59,73.85z
		 M38.44,58.66l-0.01,0.01l0.24,0.03L38.44,58.66z M43.04,59.26l0.2,0.03l0.17-1.22L43.04,59.26z M47.76,99.53l-1.88,3.74l0.07,0.02
		l1.96-3.66L47.76,99.53z M49.51,80.71l0.02,0.6l0.13,0.05L49.51,80.71z M49.39,77.39v0.09l1.39,0.1L49.39,77.39z M67.5,15.48
		l-1.21,2.41l1.37-2.17L67.5,15.48z M73.17,63.17l-6.86,0.78l6.87-0.67L73.17,63.17z M114.64,7.74l-0.07,0.54l0.08,0.05l0.02-0.4
		l0.17-0.07L114.64,7.74z M112.91,33.88v0.04l0.95,0.44L112.91,33.88z M26.63,73.25l0.02,0.16l2.93,0.33L26.63,73.25z M30.59,73.85
		l0.07,0.01l1.79-2.08L30.59,73.85z M38.44,58.66l-0.01,0.01l0.24,0.03L38.44,58.66z M43.04,59.26l0.2,0.03l0.17-1.22L43.04,59.26z
		 M47.76,99.53l-1.88,3.74l0.07,0.02l1.96-3.66L47.76,99.53z M49.51,80.71l0.02,0.6l0.13,0.05L49.51,80.71z M49.39,77.39v0.09
		l1.39,0.1L49.39,77.39z M67.5,15.48l-1.21,2.41l1.37-2.17L67.5,15.48z M73.17,63.17l-6.86,0.78l6.87-0.67L73.17,63.17z
		 M114.64,7.74l-0.07,0.54l0.08,0.05l0.02-0.4l0.17-0.07L114.64,7.74z M112.91,33.88v0.04l0.95,0.44L112.91,33.88z M26.63,73.25
		l0.02,0.16l2.93,0.33L26.63,73.25z M30.59,73.85l0.07,0.01l1.79-2.08L30.59,73.85z M38.44,58.66l-0.01,0.01l0.24,0.03L38.44,58.66z
		 M43.04,59.26l0.2,0.03l0.17-1.22L43.04,59.26z M47.76,99.53l-1.88,3.74l0.07,0.02l1.96-3.66L47.76,99.53z M49.51,80.71l0.02,0.6
		l0.13,0.05L49.51,80.71z M49.39,77.39v0.09l1.39,0.1L49.39,77.39z M67.5,15.48l-1.21,2.41l1.37-2.17L67.5,15.48z M73.17,63.17
		l-6.86,0.78l6.87-0.67L73.17,63.17z M114.64,7.74l-0.07,0.54l0.08,0.05l0.02-0.4l0.17-0.07L114.64,7.74z M112.91,33.88v0.04
		l0.95,0.44L112.91,33.88z M86.58,7.97l0.12-0.01l0.89-1L86.58,7.97z M86.58,7.97l0.12-0.01l0.89-1L86.58,7.97z M86.58,7.97
		l0.12-0.01l0.89-1L86.58,7.97z M86.58,7.97l0.12-0.01l0.89-1L86.58,7.97z M86.58,7.97l0.12-0.01l0.89-1L86.58,7.97z M86.58,7.97
		l0.12-0.01l0.89-1L86.58,7.97z M86.58,7.97l0.12-0.01l0.89-1L86.58,7.97z M86.58,7.97l0.12-0.01l0.89-1L86.58,7.97z M86.58,7.97
		l0.12-0.01l0.89-1L86.58,7.97z M86.58,7.97l0.12-0.01l0.89-1L86.58,7.97z M86.58,7.97l0.12-0.01l0.89-1L86.58,7.97z M86.58,7.97
		l0.12-0.01l0.89-1L86.58,7.97z M86.58,7.97l0.12-0.01l0.89-1L86.58,7.97z M86.58,7.97l0.12-0.01l0.89-1L86.58,7.97z M86.58,7.97
		l0.12-0.01l0.89-1L86.58,7.97z M86.58,7.97l0.12-0.01l0.89-1L86.58,7.97z M86.58,7.97l0.12-0.01l0.89-1L86.58,7.97z M86.58,7.97
		l0.12-0.01l0.89-1L86.58,7.97z M86.58,7.97l0.12-0.01l0.89-1L86.58,7.97z M86.58,7.97l0.12-0.01l0.89-1L86.58,7.97z M86.58,7.97
		l0.12-0.01l0.89-1L86.58,7.97z M86.58,7.97l0.12-0.01l0.89-1L86.58,7.97z M86.58,7.97l0.12-0.01l0.89-1L86.58,7.97z M86.58,7.97
		l0.12-0.01l0.89-1L86.58,7.97z M86.58,7.97l0.12-0.01l0.89-1L86.58,7.97z M86.58,7.97l0.12-0.01l0.89-1L86.58,7.97z"/>
</g>
</svg>
