<?xml version="1.0" encoding="utf-8"?>
<!-- Generator: Adobe Illustrator 24.0.0, SVG Export Plug-In . SVG Version: 6.00 Build 0)  -->
<svg version="1.1" id="_x2014_ÎÓÈ_x5F_1" xmlns="http://www.w3.org/2000/svg" xmlns:xlink="http://www.w3.org/1999/xlink"
	 x="0px" y="0px" viewBox="0 0 60.5 49.55" style="enable-background:new 0 0 60.5 49.55;" xml:space="preserve">
<style type="text/css">
	.st0{fill:#e4d1aa;}
</style>
<g>
	<polygon class="st0" points="59.57,39.3 56.7,42.17 53.67,42.41 52.11,40.68 48.72,40.96 43.75,46.14 43.77,47.32 39.84,47.57 
		39.68,46.15 34.15,45.94 27.17,43.18 23.8,40.37 24.22,35.32 10.03,35.77 10.22,37.67 8.24,37.95 8.76,36.8 0,33.36 8.84,2.06 
		13.9,0 47.46,8.95 48.01,9.09 48.11,9.12 48.63,11.63 48.64,11.68 48.65,11.72 49.02,13.49 49.17,13.86 49.17,13.87 49.18,13.89 
		54.11,25.93 54.22,26.21 	"/>
</g>
</svg>
