<?xml version="1.0" encoding="utf-8"?>
<!-- Generator: Adobe Illustrator 24.0.0, SVG Export Plug-In . SVG Version: 6.00 Build 0)  -->
<svg version="1.1" id="_x2014_ÎÓÈ_x5F_1" xmlns="http://www.w3.org/2000/svg" xmlns:xlink="http://www.w3.org/1999/xlink"
	 x="0px" y="0px" viewBox="0 0 50.07 39.72" style="enable-background:new 0 0 50.07 39.72;" xml:space="preserve">
<style type="text/css">
	.st0{fill:#e4d1aa;}
	.st1{fill:#FFFFFF;}
</style>
<g>
	<polygon class="st0" points="50.07,5.5 48.17,14.07 46.62,21.3 46.57,21.29 46.48,21.27 46.06,22.86 41.82,38.99 17.34,38.99 
		17.34,38.98 12.81,33.98 9.55,36.38 5.18,36.23 3.79,35.59 3.96,33.08 1.51,31.68 1.97,18.76 4.68,16.73 5.41,10.62 5.48,10.05 
		5.51,9.81 12.33,7.06 12.44,7.02 12.53,6.98 15.69,5.7 17.48,4.98 21.68,3.29 29.83,0.01 29.84,0 30.14,0.03 42.66,1.18 
		43.06,1.22 47.96,0.49 48.32,0.44 48.26,0.91 47.98,3.28 47.98,3.3 47.78,4.97 	"/>
	<path class="st1" d="M46.57,21.29l0.05,0.01l1.55-7.23L46.57,21.29z"/>
</g>
</svg>
