<?xml version="1.0" encoding="utf-8"?>
<!-- Generator: Adobe Illustrator 24.0.0, SVG Export Plug-In . SVG Version: 6.00 Build 0)  -->
<svg version="1.1" id="_x2014_ÎÓÈ_x5F_1" xmlns="http://www.w3.org/2000/svg" xmlns:xlink="http://www.w3.org/1999/xlink"
	 x="0px" y="0px" viewBox="0 0 93.51 143.85" style="enable-background:new 0 0 93.51 143.85;" xml:space="preserve">
<style type="text/css">
	.st0{fill:#e4d1aa;}
	.st1{fill:none;}
</style>
<g>
	<polygon class="st0" points="53.86,74.4 53.93,74.41 53.97,74.42 54.72,74.55 54.76,74.5 54.81,74.51 56.49,72.57 56.56,72.5 
		57.96,70.93 58.65,62.83 62.64,59.32 62.96,59.36 63,59.37 63.01,59.37 67,60.03 67.04,59.89 67.27,59.15 67.27,59.14 67.28,59.12 
		67.74,57.63 76.29,55.23 83.27,46.41 81.37,44.89 78.61,42.68 79.7,42.53 80.36,42.44 81.66,38.33 77.65,37.42 77.65,37.41 
		77.54,36.67 76.91,30.59 73.79,29.49 77.01,26.28 81.43,27.36 82.83,27.84 82.58,25.92 82.41,23.68 84.38,20.71 89.1,21.05 
		89.11,21.03 89.4,21.05 90.65,19.07 91.86,16.66 91.89,16.59 91.41,16 91.41,15.99 91.06,16 90.54,15.59 90.53,15.58 90.25,15.35 
		89.48,14.39 89.41,14.3 90.32,12.49 90.33,12.48 91.64,10.51 86.14,10.51 85.47,9.38 85.02,8.63 84.81,8.28 85,1.8 84.85,1.89 
		84.33,2.2 82.26,3.45 82.09,7.05 78.46,7.05 74.83,13.97 71.34,13.97 71.34,22.28 68.39,26.56 65.53,22.28 62.37,22.28 
		62.19,25.71 55.99,28.06 51.45,32.6 50.31,32.26 49.46,25.97 47.18,24.15 40.1,33 34.63,36.25 33.55,37.76 34.89,41.3 33.31,42.48 
		29.82,41.61 27.02,44.21 27.23,47.5 29.97,48.87 29.81,55.02 26.91,55.19 26.36,60.12 24.57,62.09 25.09,64.9 23.37,63.64 
		22.01,63.64 22.01,67.09 22.67,67.89 11.79,76.9 11.94,79.39 10.47,79.39 9.28,77.91 8.49,81.32 9.07,82.75 7.24,83.55 5.87,83.55 
		5.36,85.32 7.15,88.51 9.8,88.67 11.07,95.96 8.13,98.38 8.48,100.64 7.46,101.53 5.34,101.35 1.25,106 1.05,110.14 13.15,110.66 
		12.98,113.28 15.56,113.28 19.06,116.62 18.87,120.15 22.44,120.51 22.66,121.72 19.42,123.94 19.42,139.47 22.01,140.16 
		22.01,142.29 24.57,141.11 25.17,140.83 33.73,116.41 36.58,112.22 36.63,112.15 39.29,108.25 38.77,89.18 42.19,82.84 46.9,83.17 
		52.09,79.1 52.09,77.35 50.03,76.17 49.98,76.14 49.8,76.04 49.59,75.91 48.52,72.1 50.79,70.07 50.92,73.66 50.93,73.91 
		50.95,73.91 51.46,74 	"/>
	<path class="st1" d="M91.73,16.47L91.41,16v-0.01L91.06,16l-0.52-0.41l-0.01-0.01l-0.28-0.23l0.69,0.84l0.01,0.01l0.03,0.04
		l0.01,0.02l0.03,0.04l0.01,0.02l0.14,0.17l0.13,0.17l-0.02,0.04l-1.05,2.1l-0.01,0.02l-1.11,2.21l0.29,0.02l1.25-1.98l1.21-2.41
		L91.73,16.47z M89.25,14.1l0.16,0.2l0.91-1.81L89.25,14.1z M84.38,20.71l-0.19-0.01l-1.96,2.56l0.35,2.66l-0.17-2.24L84.38,20.71z
		 M54.76,74.5l0.05,0.01l1.68-1.94L54.76,74.5z M62.65,59.31l-0.01,0.01l0.32,0.04L62.65,59.31z M77.34,25.95l-0.33,0.33l4.42,1.08
		L77.34,25.95z M76.91,30.59l-3.12-1.1l-0.17,0.17l3,1.05l0.92,5.96L76.91,30.59z M49.59,75.91v0.01l0.21,0.12L49.59,75.91z
		 M91.73,16.47L91.41,16v-0.01L91.06,16l-0.52-0.41l-0.01-0.01l-0.28-0.23l0.69,0.84l0.01,0.01l0.03,0.04l0.01,0.02l0.03,0.04
		l0.01,0.02l0.14,0.17l0.13,0.17l-0.02,0.04l-1.05,2.1l-0.01,0.02l-1.11,2.21l0.29,0.02l1.25-1.98l1.21-2.41L91.73,16.47z
		 M89.25,14.1l0.16,0.2l0.91-1.81L89.25,14.1z M84.38,20.71l-0.19-0.01l-1.96,2.56l0.35,2.66l-0.17-2.24L84.38,20.71z M54.76,74.5
		l0.05,0.01l1.68-1.94L54.76,74.5z M62.65,59.31l-0.01,0.01l0.32,0.04L62.65,59.31z M77.34,25.95l-0.33,0.33l4.42,1.08L77.34,25.95z
		 M76.91,30.59l-3.12-1.1l-0.17,0.17l3,1.05l0.92,5.96L76.91,30.59z M49.59,75.91v0.01l0.21,0.12L49.59,75.91z M91.73,16.47
		L91.41,16v-0.01L91.06,16l-0.52-0.41l-0.01-0.01l-0.28-0.23l0.69,0.84l0.01,0.01l0.03,0.04l0.01,0.02l0.03,0.04l0.01,0.02
		l0.14,0.17l0.13,0.17l-0.02,0.04l-1.05,2.1l-0.01,0.02l-1.11,2.21l0.29,0.02l1.25-1.98l1.21-2.41L91.73,16.47z M89.25,14.1
		l0.16,0.2l0.91-1.81L89.25,14.1z M84.38,20.71l-0.19-0.01l-1.96,2.56l0.35,2.66l-0.17-2.24L84.38,20.71z M54.76,74.5l0.05,0.01
		l1.68-1.94L54.76,74.5z M62.65,59.31l-0.01,0.01l0.32,0.04L62.65,59.31z M77.34,25.95l-0.33,0.33l4.42,1.08L77.34,25.95z
		 M76.91,30.59l-3.12-1.1l-0.17,0.17l3,1.05l0.92,5.96L76.91,30.59z M49.59,75.91v0.01l0.21,0.12L49.59,75.91z M91.73,16.47
		L91.41,16v-0.01L91.06,16l-0.52-0.41l-0.01-0.01l-0.28-0.23l0.69,0.84l0.01,0.01l0.03,0.04l0.01,0.02l0.03,0.04l0.01,0.02
		l0.14,0.17l0.13,0.17l-0.02,0.04l-1.05,2.1l-0.01,0.02l-1.11,2.21l0.29,0.02l1.25-1.98l1.21-2.41L91.73,16.47z M89.25,14.1
		l0.16,0.2l0.91-1.81L89.25,14.1z M84.38,20.71l-0.19-0.01l-1.96,2.56l0.35,2.66l-0.17-2.24L84.38,20.71z M54.76,74.5l0.05,0.01
		l1.68-1.94L54.76,74.5z M62.65,59.31l-0.01,0.01l0.32,0.04L62.65,59.31z M77.34,25.95l-0.33,0.33l4.42,1.08L77.34,25.95z
		 M76.91,30.59l-3.12-1.1l-0.17,0.17l3,1.05l0.92,5.96L76.91,30.59z M49.59,75.91v0.01l0.21,0.12L49.59,75.91z M91.73,16.47
		L91.41,16v-0.01L91.06,16l-0.52-0.41l-0.01-0.01l-0.28-0.23l0.69,0.84l0.01,0.01l0.03,0.04l0.01,0.02l0.03,0.04l0.01,0.02
		l0.14,0.17l0.13,0.17l-0.02,0.04l-1.05,2.1l-0.01,0.02l-1.11,2.21l0.29,0.02l1.25-1.98l1.21-2.41L91.73,16.47z M89.25,14.1
		l0.16,0.2l0.91-1.81L89.25,14.1z M84.38,20.71l-0.19-0.01l-1.96,2.56l0.35,2.66l-0.17-2.24L84.38,20.71z M54.76,74.5l0.05,0.01
		l1.68-1.94L54.76,74.5z M62.65,59.31l-0.01,0.01l0.32,0.04L62.65,59.31z M77.34,25.95l-0.33,0.33l4.42,1.08L77.34,25.95z
		 M76.91,30.59l-3.12-1.1l-0.17,0.17l3,1.05l0.92,5.96L76.91,30.59z M49.59,75.91v0.01l0.21,0.12L49.59,75.91z M91.73,16.47
		L91.41,16v-0.01L91.06,16l-0.52-0.41l-0.01-0.01l-0.28-0.23l0.69,0.84l0.01,0.01l0.03,0.04l0.01,0.02l0.03,0.04l0.01,0.02
		l0.14,0.17l0.13,0.17l-0.02,0.04l-1.05,2.1l-0.01,0.02l-1.11,2.21l0.29,0.02l1.25-1.98l1.21-2.41L91.73,16.47z M89.25,14.1
		l0.16,0.2l0.91-1.81L89.25,14.1z M84.38,20.71l-0.19-0.01l-1.96,2.56l0.35,2.66l-0.17-2.24L84.38,20.71z M54.76,74.5l0.05,0.01
		l1.68-1.94L54.76,74.5z M62.65,59.31l-0.01,0.01l0.32,0.04L62.65,59.31z M77.34,25.95l-0.33,0.33l4.42,1.08L77.34,25.95z
		 M76.91,30.59l-3.12-1.1l-0.17,0.17l3,1.05l0.92,5.96L76.91,30.59z M49.59,75.91v0.01l0.21,0.12L49.59,75.91z M91.73,16.47
		L91.41,16v-0.01L91.06,16l-0.52-0.41l-0.01-0.01l-0.28-0.23l0.69,0.84l0.01,0.01l0.03,0.04l0.01,0.02l0.03,0.04l0.01,0.02
		l0.14,0.17l0.13,0.17l-0.02,0.04l-1.05,2.1l-0.01,0.02l-1.11,2.21l0.29,0.02l1.25-1.98l1.21-2.41L91.73,16.47z M89.25,14.1
		l0.16,0.2l0.91-1.81L89.25,14.1z M84.38,20.71l-0.19-0.01l-1.96,2.56l0.35,2.66l-0.17-2.24L84.38,20.71z M54.76,74.5l0.05,0.01
		l1.68-1.94L54.76,74.5z M62.65,59.31l-0.01,0.01l0.32,0.04L62.65,59.31z M77.34,25.95l-0.33,0.33l4.42,1.08L77.34,25.95z
		 M76.91,30.59l-3.12-1.1l-0.17,0.17l3,1.05l0.92,5.96L76.91,30.59z M49.59,75.91v0.01l0.21,0.12L49.59,75.91z M91.73,16.47
		L91.41,16v-0.01L91.06,16l-0.52-0.41l-0.01-0.01l-0.28-0.23l0.69,0.84l0.01,0.01l0.03,0.04l0.01,0.02l0.03,0.04l0.01,0.02
		l0.14,0.17l0.13,0.17l-0.02,0.04l-1.05,2.1l-0.01,0.02l-1.11,2.21l0.29,0.02l1.25-1.98l1.21-2.41L91.73,16.47z M89.25,14.1
		l0.16,0.2l0.91-1.81L89.25,14.1z M84.38,20.71l-0.19-0.01l-1.96,2.56l0.35,2.66l-0.17-2.24L84.38,20.71z M54.76,74.5l0.05,0.01
		l1.68-1.94L54.76,74.5z M62.65,59.31l-0.01,0.01l0.32,0.04L62.65,59.31z M77.34,25.95l-0.33,0.33l4.42,1.08L77.34,25.95z
		 M76.91,30.59l-3.12-1.1l-0.17,0.17l3,1.05l0.92,5.96L76.91,30.59z M49.59,75.91v0.01l0.21,0.12L49.59,75.91z M91.73,16.47
		L91.41,16v-0.01L91.06,16l-0.52-0.41l-0.01-0.01l-0.28-0.23l0.69,0.84l0.01,0.01l0.03,0.04l0.01,0.02l0.03,0.04l0.01,0.02
		l0.14,0.17l0.13,0.17l-0.02,0.04l-1.05,2.1l-0.01,0.02l-1.11,2.21l0.29,0.02l1.25-1.98l1.21-2.41L91.73,16.47z M89.25,14.1
		l0.16,0.2l0.91-1.81L89.25,14.1z M84.38,20.71l-0.19-0.01l-1.96,2.56l0.35,2.66l-0.17-2.24L84.38,20.71z M54.76,74.5l0.05,0.01
		l1.68-1.94L54.76,74.5z M62.65,59.31l-0.01,0.01l0.32,0.04L62.65,59.31z M77.34,25.95l-0.33,0.33l4.42,1.08L77.34,25.95z
		 M76.91,30.59l-3.12-1.1l-0.17,0.17l3,1.05l0.92,5.96L76.91,30.59z M49.59,75.91v0.01l0.21,0.12L49.59,75.91z M91.73,16.47
		L91.41,16v-0.01L91.06,16l-0.52-0.41l-0.01-0.01l-0.28-0.23l0.69,0.84l0.01,0.01l0.03,0.04l0.01,0.02l0.03,0.04l0.01,0.02
		l0.14,0.17l0.13,0.17l-0.02,0.04l-1.05,2.1l-0.01,0.02l-1.11,2.21l0.29,0.02l1.25-1.98l1.21-2.41L91.73,16.47z M89.25,14.1
		l0.16,0.2l0.91-1.81L89.25,14.1z M84.38,20.71l-0.19-0.01l-1.96,2.56l0.35,2.66l-0.17-2.24L84.38,20.71z M54.76,74.5l0.05,0.01
		l1.68-1.94L54.76,74.5z M62.65,59.31l-0.01,0.01l0.32,0.04L62.65,59.31z M77.34,25.95l-0.33,0.33l4.42,1.08L77.34,25.95z
		 M76.91,30.59l-3.12-1.1l-0.17,0.17l3,1.05l0.92,5.96L76.91,30.59z M49.59,75.91v0.01l0.21,0.12L49.59,75.91z M91.73,16.47
		L91.41,16v-0.01L91.06,16l-0.52-0.41l-0.01-0.01l-0.28-0.23l0.69,0.84l0.01,0.01l0.03,0.04l0.01,0.02l0.03,0.04l0.01,0.02
		l0.14,0.17l0.13,0.17l-0.02,0.04l-1.05,2.1l-0.01,0.02l-1.11,2.21l0.29,0.02l1.25-1.98l1.21-2.41L91.73,16.47z M89.25,14.1
		l0.16,0.2l0.91-1.81L89.25,14.1z M84.38,20.71l-0.19-0.01l-1.96,2.56l0.35,2.66l-0.17-2.24L84.38,20.71z M54.76,74.5l0.05,0.01
		l1.68-1.94L54.76,74.5z M62.65,59.31l-0.01,0.01l0.32,0.04L62.65,59.31z M77.34,25.95l-0.33,0.33l4.42,1.08L77.34,25.95z
		 M76.91,30.59l-3.12-1.1l-0.17,0.17l3,1.05l0.92,5.96L76.91,30.59z M49.59,75.91v0.01l0.21,0.12L49.59,75.91z M91.73,16.47
		L91.41,16v-0.01L91.06,16l-0.52-0.41l-0.01-0.01l-0.28-0.23l0.69,0.84l0.01,0.01l0.03,0.04l0.01,0.02l0.03,0.04l0.01,0.02
		l0.14,0.17l0.13,0.17l-0.02,0.04l-1.05,2.1l-0.01,0.02l-1.11,2.21l0.29,0.02l1.25-1.98l1.21-2.41L91.73,16.47z M89.25,14.1
		l0.16,0.2l0.91-1.81L89.25,14.1z M84.38,20.71l-0.19-0.01l-1.96,2.56l0.35,2.66l-0.17-2.24L84.38,20.71z M54.76,74.5l0.05,0.01
		l1.68-1.94L54.76,74.5z M62.65,59.31l-0.01,0.01l0.32,0.04L62.65,59.31z M77.34,25.95l-0.33,0.33l4.42,1.08L77.34,25.95z
		 M76.91,30.59l-3.12-1.1l-0.17,0.17l3,1.05l0.92,5.96L76.91,30.59z M49.59,75.91v0.01l0.21,0.12L49.59,75.91z M91.73,16.47
		L91.41,16v-0.01L91.06,16l-0.52-0.41l-0.01-0.01l-0.28-0.23l0.69,0.84l0.01,0.01l0.03,0.04l0.01,0.02l0.03,0.04l0.01,0.02
		l0.14,0.17l0.13,0.17l-0.02,0.04l-1.05,2.1l-0.01,0.02l-1.11,2.21l0.29,0.02l1.25-1.98l1.21-2.41L91.73,16.47z M89.25,14.1
		l0.16,0.2l0.91-1.81L89.25,14.1z M84.38,20.71l-0.19-0.01l-1.96,2.56l0.35,2.66l-0.17-2.24L84.38,20.71z M54.76,74.5l0.05,0.01
		l1.68-1.94L54.76,74.5z M62.65,59.31l-0.01,0.01l0.32,0.04L62.65,59.31z M77.34,25.95l-0.33,0.33l4.42,1.08L77.34,25.95z
		 M76.91,30.59l-3.12-1.1l-0.17,0.17l3,1.05l0.92,5.96L76.91,30.59z M49.59,75.91v0.01l0.21,0.12L49.59,75.91z M91.28,16.7
		l-1.05,2.1l1.19-1.89L91.28,16.7z M89.25,14.1l0.16,0.2l0.91-1.81L89.25,14.1z M62.65,59.31l-0.01,0.01l0.32,0.04L62.65,59.31z
		 M54.76,74.5l0.05,0.01l1.68-1.94L54.76,74.5z M49.59,75.91v0.01l0.21,0.12L49.59,75.91z M91.28,16.7l-1.05,2.1l1.19-1.89
		L91.28,16.7z M89.25,14.1l0.16,0.2l0.91-1.81L89.25,14.1z M62.65,59.31l-0.01,0.01l0.32,0.04L62.65,59.31z M54.76,74.5l0.05,0.01
		l1.68-1.94L54.76,74.5z M49.59,75.91v0.01l0.21,0.12L49.59,75.91z M91.28,16.7l-1.05,2.1l1.19-1.89L91.28,16.7z M89.25,14.1
		l0.16,0.2l0.91-1.81L89.25,14.1z M62.65,59.31l-0.01,0.01l0.32,0.04L62.65,59.31z M54.76,74.5l0.05,0.01l1.68-1.94L54.76,74.5z
		 M49.59,75.91v0.01l0.21,0.12L49.59,75.91z M91.28,16.7l-1.05,2.1l1.19-1.89L91.28,16.7z M89.25,14.1l0.16,0.2l0.91-1.81
		L89.25,14.1z M62.65,59.31l-0.01,0.01l0.32,0.04L62.65,59.31z M54.76,74.5l0.05,0.01l1.68-1.94L54.76,74.5z M49.59,75.91v0.01
		l0.21,0.12L49.59,75.91z M91.28,16.7l-1.05,2.1l1.19-1.89L91.28,16.7z M89.25,14.1l0.16,0.2l0.91-1.81L89.25,14.1z M62.65,59.31
		l-0.01,0.01l0.32,0.04L62.65,59.31z M54.76,74.5l0.05,0.01l1.68-1.94L54.76,74.5z M49.59,75.91v0.01l0.21,0.12L49.59,75.91z
		 M91.28,16.7l-1.05,2.1l1.19-1.89L91.28,16.7z M89.25,14.1l0.16,0.2l0.91-1.81L89.25,14.1z M62.65,59.31l-0.01,0.01l0.32,0.04
		L62.65,59.31z M54.76,74.5l0.05,0.01l1.68-1.94L54.76,74.5z M49.59,75.91v0.01l0.21,0.12L49.59,75.91z M91.28,16.7l-1.05,2.1
		l1.19-1.89L91.28,16.7z M89.25,14.1l0.16,0.2l0.91-1.81L89.25,14.1z M62.65,59.31l-0.01,0.01l0.32,0.04L62.65,59.31z M54.76,74.5
		l0.05,0.01l1.68-1.94L54.76,74.5z M49.59,75.91v0.01l0.21,0.12L49.59,75.91z M91.28,16.7l-1.05,2.1l1.19-1.89L91.28,16.7z
		 M89.25,14.1l0.16,0.2l0.91-1.81L89.25,14.1z M62.65,59.31l-0.01,0.01l0.32,0.04L62.65,59.31z M54.76,74.5l0.05,0.01l1.68-1.94
		L54.76,74.5z M49.59,75.91v0.01l0.21,0.12L49.59,75.91z M49.59,75.91v0.01l0.21,0.12L49.59,75.91z M89.25,14.1l0.16,0.2l0.91-1.81
		L89.25,14.1z M91.41,16v-0.01L91.06,16l-0.52-0.41l-0.01-0.01l-0.28-0.23l0.69,0.84l0.01,0.01l0.03,0.04l0.01,0.02l0.03,0.04
		l0.01,0.02l0.14,0.17l0.13,0.17l-0.02,0.04l-1.05,2.1l-0.01,0.02l-1.11,2.21l0.29,0.02l1.25-1.98l1.21-2.41l0.03-0.07L91.41,16z
		 M84.38,20.71l-0.19-0.01l-1.96,2.56l0.35,2.66l-0.17-2.24L84.38,20.71z M54.76,74.5l0.05,0.01l1.68-1.94L54.76,74.5z M62.65,59.31
		l-0.01,0.01l0.32,0.04L62.65,59.31z M77.34,25.95l-0.33,0.33l4.42,1.08L77.34,25.95z M76.91,30.59l-3.12-1.1l-0.17,0.17l3,1.05
		l0.92,5.96L76.91,30.59z M49.59,75.91v0.01l0.21,0.12L49.59,75.91z M54.76,74.5l0.05,0.01l1.68-1.94L54.76,74.5z M62.65,59.31
		l-0.01,0.01l0.32,0.04L62.65,59.31z M89.25,14.1l0.16,0.2l0.91-1.81L89.25,14.1z M91.28,16.7l-1.05,2.1l1.19-1.89L91.28,16.7z
		 M49.59,75.91v0.01l0.21,0.12L49.59,75.91z M54.76,74.5l0.05,0.01l1.68-1.94L54.76,74.5z M62.65,59.31l-0.01,0.01l0.32,0.04
		L62.65,59.31z M89.25,14.1l0.16,0.2l0.91-1.81L89.25,14.1z M91.28,16.7l-1.05,2.1l1.19-1.89L91.28,16.7z M49.59,75.91v0.01
		l0.21,0.12L49.59,75.91z M54.76,74.5l0.05,0.01l1.68-1.94L54.76,74.5z M62.65,59.31l-0.01,0.01l0.32,0.04L62.65,59.31z M89.25,14.1
		l0.16,0.2l0.91-1.81L89.25,14.1z M91.28,16.7l-1.05,2.1l1.19-1.89L91.28,16.7z M49.59,75.91v0.01l0.21,0.12L49.59,75.91z
		 M54.76,74.5l0.05,0.01l1.68-1.94L54.76,74.5z M62.65,59.31l-0.01,0.01l0.32,0.04L62.65,59.31z M89.25,14.1l0.16,0.2l0.91-1.81
		L89.25,14.1z M91.28,16.7l-1.05,2.1l1.19-1.89L91.28,16.7z M49.59,75.91v0.01l0.21,0.12L49.59,75.91z M54.76,74.5l0.05,0.01
		l1.68-1.94L54.76,74.5z M62.65,59.31l-0.01,0.01l0.32,0.04L62.65,59.31z M89.25,14.1l0.16,0.2l0.91-1.81L89.25,14.1z M91.28,16.7
		l-1.05,2.1l1.19-1.89L91.28,16.7z M49.59,75.91v0.01l0.21,0.12L49.59,75.91z M54.76,74.5l0.05,0.01l1.68-1.94L54.76,74.5z
		 M62.65,59.31l-0.01,0.01l0.32,0.04L62.65,59.31z M89.25,14.1l0.16,0.2l0.91-1.81L89.25,14.1z M91.28,16.7l-1.05,2.1l1.19-1.89
		L91.28,16.7z M49.59,75.91v0.01l0.21,0.12L49.59,75.91z M54.76,74.5l0.05,0.01l1.68-1.94L54.76,74.5z M62.65,59.31l-0.01,0.01
		l0.32,0.04L62.65,59.31z M89.25,14.1l0.16,0.2l0.91-1.81L89.25,14.1z M91.28,16.7l-1.05,2.1l1.19-1.89L91.28,16.7z M49.59,75.91
		v0.01l0.21,0.12L49.59,75.91z M54.76,74.5l0.05,0.01l1.68-1.94L54.76,74.5z M62.65,59.31l-0.01,0.01l0.32,0.04L62.65,59.31z
		 M89.25,14.1l0.16,0.2l0.91-1.81L89.25,14.1z M91.28,16.7l-1.05,2.1l1.19-1.89L91.28,16.7z M49.59,75.91v0.01l0.21,0.12
		L49.59,75.91z M76.91,30.59l-3.12-1.1l-0.17,0.17l3,1.05l0.92,5.96L76.91,30.59z M77.34,25.95l-0.33,0.33l4.42,1.08L77.34,25.95z
		 M54.76,74.5l0.05,0.01l1.68-1.94L54.76,74.5z M62.65,59.31l-0.01,0.01l0.32,0.04L62.65,59.31z M84.38,20.71l-0.19-0.01l-1.96,2.56
		l0.35,2.66l-0.17-2.24L84.38,20.71z M89.25,14.1l0.16,0.2l0.91-1.81L89.25,14.1z M91.73,16.47L91.41,16v-0.01L91.06,16l-0.52-0.41
		l-0.01-0.01l-0.28-0.23l0.69,0.84l0.01,0.01l0.03,0.04l0.01,0.02l0.03,0.04l0.01,0.02l0.14,0.17l0.13,0.17l-0.02,0.04l-1.05,2.1
		l-0.01,0.02l-1.11,2.21l0.29,0.02l1.25-1.98l1.21-2.41L91.73,16.47z M49.59,75.91v0.01l0.21,0.12L49.59,75.91z M76.91,30.59
		l-3.12-1.1l-0.17,0.17l3,1.05l0.92,5.96L76.91,30.59z M77.34,25.95l-0.33,0.33l4.42,1.08L77.34,25.95z M54.76,74.5l0.05,0.01
		l1.68-1.94L54.76,74.5z M62.65,59.31l-0.01,0.01l0.32,0.04L62.65,59.31z M84.38,20.71l-0.19-0.01l-1.96,2.56l0.35,2.66l-0.17-2.24
		L84.38,20.71z M89.25,14.1l0.16,0.2l0.91-1.81L89.25,14.1z M91.73,16.47L91.41,16v-0.01L91.06,16l-0.52-0.41l-0.01-0.01l-0.28-0.23
		l0.69,0.84l0.01,0.01l0.03,0.04l0.01,0.02l0.03,0.04l0.01,0.02l0.14,0.17l0.13,0.17l-0.02,0.04l-1.05,2.1l-0.01,0.02l-1.11,2.21
		l0.29,0.02l1.25-1.98l1.21-2.41L91.73,16.47z M49.59,75.91v0.01l0.21,0.12L49.59,75.91z M76.91,30.59l-3.12-1.1l-0.17,0.17l3,1.05
		l0.92,5.96L76.91,30.59z M77.34,25.95l-0.33,0.33l4.42,1.08L77.34,25.95z M54.76,74.5l0.05,0.01l1.68-1.94L54.76,74.5z
		 M62.65,59.31l-0.01,0.01l0.32,0.04L62.65,59.31z M84.38,20.71l-0.19-0.01l-1.96,2.56l0.35,2.66l-0.17-2.24L84.38,20.71z
		 M89.25,14.1l0.16,0.2l0.91-1.81L89.25,14.1z M91.73,16.47L91.41,16v-0.01L91.06,16l-0.52-0.41l-0.01-0.01l-0.28-0.23l0.69,0.84
		l0.01,0.01l0.03,0.04l0.01,0.02l0.03,0.04l0.01,0.02l0.14,0.17l0.13,0.17l-0.02,0.04l-1.05,2.1l-0.01,0.02l-1.11,2.21l0.29,0.02
		l1.25-1.98l1.21-2.41L91.73,16.47z M49.59,75.91v0.01l0.21,0.12L49.59,75.91z M76.91,30.59l-3.12-1.1l-0.17,0.17l3,1.05l0.92,5.96
		L76.91,30.59z M77.34,25.95l-0.33,0.33l4.42,1.08L77.34,25.95z M54.76,74.5l0.05,0.01l1.68-1.94L54.76,74.5z M62.65,59.31
		l-0.01,0.01l0.32,0.04L62.65,59.31z M84.38,20.71l-0.19-0.01l-1.96,2.56l0.35,2.66l-0.17-2.24L84.38,20.71z M89.25,14.1l0.16,0.2
		l0.91-1.81L89.25,14.1z M91.73,16.47L91.41,16v-0.01L91.06,16l-0.52-0.41l-0.01-0.01l-0.28-0.23l0.69,0.84l0.01,0.01l0.03,0.04
		l0.01,0.02l0.03,0.04l0.01,0.02l0.14,0.17l0.13,0.17l-0.02,0.04l-1.05,2.1l-0.01,0.02l-1.11,2.21l0.29,0.02l1.25-1.98l1.21-2.41
		L91.73,16.47z M49.59,75.91v0.01l0.21,0.12L49.59,75.91z M76.91,30.59l-3.12-1.1l-0.17,0.17l3,1.05l0.92,5.96L76.91,30.59z
		 M77.34,25.95l-0.33,0.33l4.42,1.08L77.34,25.95z M54.76,74.5l0.05,0.01l1.68-1.94L54.76,74.5z M62.65,59.31l-0.01,0.01l0.32,0.04
		L62.65,59.31z M84.38,20.71l-0.19-0.01l-1.96,2.56l0.35,2.66l-0.17-2.24L84.38,20.71z M89.25,14.1l0.16,0.2l0.91-1.81L89.25,14.1z
		 M91.73,16.47L91.41,16v-0.01L91.06,16l-0.52-0.41l-0.01-0.01l-0.28-0.23l0.69,0.84l0.01,0.01l0.03,0.04l0.01,0.02l0.03,0.04
		l0.01,0.02l0.14,0.17l0.13,0.17l-0.02,0.04l-1.05,2.1l-0.01,0.02l-1.11,2.21l0.29,0.02l1.25-1.98l1.21-2.41L91.73,16.47z
		 M49.59,75.91v0.01l0.21,0.12L49.59,75.91z M76.91,30.59l-3.12-1.1l-0.17,0.17l3,1.05l0.92,5.96L76.91,30.59z M77.34,25.95
		l-0.33,0.33l4.42,1.08L77.34,25.95z M54.76,74.5l0.05,0.01l1.68-1.94L54.76,74.5z M62.65,59.31l-0.01,0.01l0.32,0.04L62.65,59.31z
		 M84.38,20.71l-0.19-0.01l-1.96,2.56l0.35,2.66l-0.17-2.24L84.38,20.71z M89.25,14.1l0.16,0.2l0.91-1.81L89.25,14.1z M91.73,16.47
		L91.41,16v-0.01L91.06,16l-0.52-0.41l-0.01-0.01l-0.28-0.23l0.69,0.84l0.01,0.01l0.03,0.04l0.01,0.02l0.03,0.04l0.01,0.02
		l0.14,0.17l0.13,0.17l-0.02,0.04l-1.05,2.1l-0.01,0.02l-1.11,2.21l0.29,0.02l1.25-1.98l1.21-2.41L91.73,16.47z M49.59,75.91v0.01
		l0.21,0.12L49.59,75.91z M76.91,30.59l-3.12-1.1l-0.17,0.17l3,1.05l0.92,5.96L76.91,30.59z M77.34,25.95l-0.33,0.33l4.42,1.08
		L77.34,25.95z M54.76,74.5l0.05,0.01l1.68-1.94L54.76,74.5z M62.65,59.31l-0.01,0.01l0.32,0.04L62.65,59.31z M84.38,20.71
		l-0.19-0.01l-1.96,2.56l0.35,2.66l-0.17-2.24L84.38,20.71z M89.25,14.1l0.16,0.2l0.91-1.81L89.25,14.1z M91.73,16.47L91.41,16
		v-0.01L91.06,16l-0.52-0.41l-0.01-0.01l-0.28-0.23l0.69,0.84l0.01,0.01l0.03,0.04l0.01,0.02l0.03,0.04l0.01,0.02l0.14,0.17
		l0.13,0.17l-0.02,0.04l-1.05,2.1l-0.01,0.02l-1.11,2.21l0.29,0.02l1.25-1.98l1.21-2.41L91.73,16.47z M49.59,75.91v0.01l0.21,0.12
		L49.59,75.91z M76.91,30.59l-3.12-1.1l-0.17,0.17l3,1.05l0.92,5.96L76.91,30.59z M77.34,25.95l-0.33,0.33l4.42,1.08L77.34,25.95z
		 M54.76,74.5l0.05,0.01l1.68-1.94L54.76,74.5z M62.65,59.31l-0.01,0.01l0.32,0.04L62.65,59.31z M84.38,20.71l-0.19-0.01l-1.96,2.56
		l0.35,2.66l-0.17-2.24L84.38,20.71z M89.25,14.1l0.16,0.2l0.91-1.81L89.25,14.1z M91.73,16.47L91.41,16v-0.01L91.06,16l-0.52-0.41
		l-0.01-0.01l-0.28-0.23l0.69,0.84l0.01,0.01l0.03,0.04l0.01,0.02l0.03,0.04l0.01,0.02l0.14,0.17l0.13,0.17l-0.02,0.04l-1.05,2.1
		l-0.01,0.02l-1.11,2.21l0.29,0.02l1.25-1.98l1.21-2.41L91.73,16.47z M49.59,75.91v0.01l0.21,0.12L49.59,75.91z M76.91,30.59
		l-3.12-1.1l-0.17,0.17l3,1.05l0.92,5.96L76.91,30.59z M77.34,25.95l-0.33,0.33l4.42,1.08L77.34,25.95z M54.76,74.5l0.05,0.01
		l1.68-1.94L54.76,74.5z M62.65,59.31l-0.01,0.01l0.32,0.04L62.65,59.31z M84.38,20.71l-0.19-0.01l-1.96,2.56l0.35,2.66l-0.17-2.24
		L84.38,20.71z M89.25,14.1l0.16,0.2l0.91-1.81L89.25,14.1z M91.73,16.47L91.41,16v-0.01L91.06,16l-0.52-0.41l-0.01-0.01l-0.28-0.23
		l0.69,0.84l0.01,0.01l0.03,0.04l0.01,0.02l0.03,0.04l0.01,0.02l0.14,0.17l0.13,0.17l-0.02,0.04l-1.05,2.1l-0.01,0.02l-1.11,2.21
		l0.29,0.02l1.25-1.98l1.21-2.41L91.73,16.47z M49.59,75.91v0.01l0.21,0.12L49.59,75.91z M76.91,30.59l-3.12-1.1l-0.17,0.17l3,1.05
		l0.92,5.96L76.91,30.59z M77.34,25.95l-0.33,0.33l4.42,1.08L77.34,25.95z M54.76,74.5l0.05,0.01l1.68-1.94L54.76,74.5z
		 M62.65,59.31l-0.01,0.01l0.32,0.04L62.65,59.31z M84.38,20.71l-0.19-0.01l-1.96,2.56l0.35,2.66l-0.17-2.24L84.38,20.71z
		 M89.25,14.1l0.16,0.2l0.91-1.81L89.25,14.1z M91.73,16.47L91.41,16v-0.01L91.06,16l-0.52-0.41l-0.01-0.01l-0.28-0.23l0.69,0.84
		l0.01,0.01l0.03,0.04l0.01,0.02l0.03,0.04l0.01,0.02l0.14,0.17l0.13,0.17l-0.02,0.04l-1.05,2.1l-0.01,0.02l-1.11,2.21l0.29,0.02
		l1.25-1.98l1.21-2.41L91.73,16.47z M49.59,75.91v0.01l0.21,0.12L49.59,75.91z M76.91,30.59l-3.12-1.1l-0.17,0.17l3,1.05l0.92,5.96
		L76.91,30.59z M77.34,25.95l-0.33,0.33l4.42,1.08L77.34,25.95z M54.76,74.5l0.05,0.01l1.68-1.94L54.76,74.5z M62.65,59.31
		l-0.01,0.01l0.32,0.04L62.65,59.31z M84.38,20.71l-0.19-0.01l-1.96,2.56l0.35,2.66l-0.17-2.24L84.38,20.71z M89.25,14.1l0.16,0.2
		l0.91-1.81L89.25,14.1z M91.73,16.47L91.41,16v-0.01L91.06,16l-0.52-0.41l-0.01-0.01l-0.28-0.23l0.69,0.84l0.01,0.01l0.03,0.04
		l0.01,0.02l0.03,0.04l0.01,0.02l0.14,0.17l0.13,0.17l-0.02,0.04l-1.05,2.1l-0.01,0.02l-1.11,2.21l0.29,0.02l1.25-1.98l1.21-2.41
		L91.73,16.47z M49.59,75.91v0.01l0.21,0.12L49.59,75.91z M76.91,30.59l-3.12-1.1l-0.17,0.17l3,1.05l0.92,5.96L76.91,30.59z
		 M77.34,25.95l-0.33,0.33l4.42,1.08L77.34,25.95z M54.76,74.5l0.05,0.01l1.68-1.94L54.76,74.5z M62.65,59.31l-0.01,0.01l0.32,0.04
		L62.65,59.31z M84.38,20.71l-0.19-0.01l-1.96,2.56l0.35,2.66l-0.17-2.24L84.38,20.71z M89.25,14.1l0.16,0.2l0.91-1.81L89.25,14.1z
		 M91.73,16.47L91.41,16v-0.01L91.06,16l-0.52-0.41l-0.01-0.01l-0.28-0.23l0.69,0.84l0.01,0.01l0.03,0.04l0.01,0.02l0.03,0.04
		l0.01,0.02l0.14,0.17l0.13,0.17l-0.02,0.04l-1.05,2.1l-0.01,0.02l-1.11,2.21l0.29,0.02l1.25-1.98l1.21-2.41L91.73,16.47z
		 M53.86,74.4l-2.4-0.4 M53.86,74.4l-2.4-0.4 M53.86,74.4l-2.4-0.4 M53.86,74.4l-2.4-0.4 M53.86,74.4l-2.4-0.4 M53.86,74.4l-2.4-0.4
		 M53.86,74.4l-2.4-0.4 M53.86,74.4l-2.4-0.4 M53.86,74.4l-2.4-0.4 M53.86,74.4l-2.4-0.4 M53.86,74.4l-2.4-0.4 M53.86,74.4l-2.4-0.4
		 M53.86,74.4l-2.4-0.4 M53.86,74.4l-2.4-0.4 M53.86,74.4l-2.4-0.4 M53.86,74.4l-2.4-0.4 M53.86,74.4l-2.4-0.4 M53.86,74.4l-2.4-0.4
		 M53.86,74.4l-2.4-0.4 M53.86,74.4l-2.4-0.4 M53.86,74.4l-2.4-0.4 M53.86,74.4l-2.4-0.4 M53.86,74.4l-2.4-0.4 M53.86,74.4l-2.4-0.4
		 M53.86,74.4l-2.4-0.4 M53.86,74.4l-2.4-0.4 M53.86,74.4l-2.4-0.4 M53.86,74.4l-2.4-0.4 M53.86,74.4l-2.4-0.4 M53.86,74.4l-2.4-0.4
		 M53.86,74.4l-2.4-0.4 M53.86,74.4l-2.4-0.4 M53.86,74.4l-2.4-0.4 M53.86,74.4l-2.4-0.4 M53.86,74.4l-2.4-0.4 M53.86,74.4l-2.4-0.4
		 M53.86,74.4l-2.4-0.4 M53.86,74.4l-2.4-0.4 M53.86,74.4l-2.4-0.4 M53.86,74.4l-2.4-0.4 M53.86,74.4l-2.4-0.4 M53.86,74.4l-2.4-0.4
		"/>
</g>
</svg>
