<?xml version="1.0" encoding="utf-8"?>
<!-- Generator: Adobe Illustrator 24.0.0, SVG Export Plug-In . SVG Version: 6.00 Build 0)  -->
<svg version="1.1" id="_x2014_ÎÓÈ_x5F_1" xmlns="http://www.w3.org/2000/svg" xmlns:xlink="http://www.w3.org/1999/xlink"
	 x="0px" y="0px" viewBox="0 0 49.35 55.94" style="enable-background:new 0 0 49.35 55.94;" xml:space="preserve">
<style type="text/css">
	.st0{fill:#e4d1aa;}
	.st1{fill:#FFFFFF;}
</style>
<g>
	<polygon class="st0" points="23.61,50.04 23.3,50.02 23.31,50.01 	"/>
	<polygon class="st0" points="49.35,17.94 46.55,48.86 46.13,48.86 46.12,48.99 46.1,49.14 46.08,49.29 46.08,49.36 45.67,49.35 
		45.65,49.35 45.57,49.36 42.88,49.74 42.91,49.52 42.94,49.27 41.61,49.47 36.5,50.22 23.16,48.99 10.62,54.04 10.16,54.23 
		9.83,54.36 8.96,51.26 4.63,49.81 1.06,50 0,47.04 0.94,45.99 0.97,45.96 0.98,45.95 5.41,41.78 5.42,41.77 6.1,41.13 6.1,34.14 
		6.49,33.91 6.5,33.9 7.88,33.07 8.73,28.63 8.91,28.46 8.92,28.37 9.59,27.82 11.81,25.73 15.79,15.82 15.66,9.21 15.65,8.7 
		15.63,7.92 15.62,7.42 15.61,6.71 16.57,5.71 20,2.04 20.5,2.06 22.56,1.89 22.81,2.16 24.11,3.62 24.2,3.61 26.72,3.41 
		27.11,3.38 27.84,3.32 28.01,3.31 30.54,0.78 30.93,0.39 30.96,0.36 31.36,0.34 40.48,0 46.56,3.79 46.59,3.81 46.68,3.87 
		46.82,3.95 48.49,4.98 48.73,5.13 48.61,5.53 45.77,14.87 47.14,16.05 47.16,16.07 47.18,16.08 	"/>
	<path class="st1" d="M45.67,49.35l0.41,0.01v-0.07L45.67,49.35z M20,2.04l-3.43,3.67l3.47-3.61l0.46-0.04L20,2.04z M8.45,28.11
		l-0.02,0.12l0.85-0.81L8.45,28.11z M8.92,28.37l-0.01,0.09l0.68-0.64L8.92,28.37z"/>
</g>
</svg>
