<?xml version="1.0" encoding="utf-8"?>
<!-- Generator: Adobe Illustrator 24.0.0, SVG Export Plug-In . SVG Version: 6.00 Build 0)  -->
<svg version="1.1" id="_x2014_ÎÓÈ_x5F_1" xmlns="http://www.w3.org/2000/svg" xmlns:xlink="http://www.w3.org/1999/xlink"
	 x="0px" y="0px" viewBox="0 0 109.44 122.43" style="enable-background:new 0 0 109.44 122.43;" xml:space="preserve">
<style type="text/css">
	.st0{fill:#e4d1aa;}
	.st1{fill:#FFFFFF;}
</style>
<g>
	<polygon class="st0" points="80.69,118.95 80.65,118.99 80.28,118.72 	"/>
	<polygon class="st0" points="109.2,117.62 97.86,121.89 84.24,116.45 80.87,119.64 80.77,119.58 84.25,116.26 98.21,121.66 
		109,117.24 	"/>
	<polygon class="st0" points="62.32,115.46 70.86,117.25 70.78,117.45 62.38,115.89 53.43,110.8 	"/>
	<polygon class="st0" points="75.82,116.04 79.86,119.03 75.25,116.27 71.34,116.13 71.12,116.65 71.33,115.63 71.45,115.64 
		75.39,115.78 75.47,115.83 75.54,115.83 	"/>
	<polygon class="st0" points="21.35,73.11 22,76.18 21.24,73.08 	"/>
	<polygon class="st0" points="22,76.18 22.46,78.08 22.33,77.77 	"/>
	<polygon class="st0" points="42.44,104.22 48.52,108.01 42.07,104.35 33.01,104.9 32.89,104.61 32.92,104.58 33.32,104.56 	"/>
	<polygon class="st0" points="108.71,116.28 98.2,120.59 84.02,115.09 80.61,118.34 75.89,114.84 70.52,114.59 70.21,116.1 
		62.72,114.55 51.39,108.6 42.71,103.21 33.42,103.56 22.81,77.63 21.78,72.7 21.11,72.52 18.18,60.47 7.84,57.67 8.21,54.54 
		0,46.54 18.98,52.24 21.51,49.86 17.94,46.46 23.67,38.47 18.18,32.47 22.46,23.16 27.29,24.03 32.88,10.82 42.46,0 51.49,1.11 
		60.36,22.93 43.34,45.51 44.52,60.08 58.25,66.45 65.03,66.66 69.45,64.19 96.47,75.56 92.71,83.26 	"/>
	<path class="st1" d="M48.78,108.17l-0.14-0.08l-0.09-0.06l-0.03-0.02l-6.08-3.79l-9.12,0.34l-0.4,0.02l-0.03,0.03L32.5,105
		l0.04,0.09l0.09,0.21l0.05,0.12l9.28-0.56l8.37,4.75l0.12-0.41L48.78,108.17z M22,76.18l0.33,1.59l0.13,0.31L22,76.18z
		 M80.28,118.72l0.37,0.27l0.04-0.04L80.28,118.72z M50.45,109.2l-1.67-1.03l-0.14-0.08l-0.09-0.06l-0.03-0.02l-6.08-3.79
		l-9.12,0.34l-0.4,0.02l-0.03,0.03L32.5,105l0.04,0.09l0.09,0.21l0.05,0.12l9.28-0.56l8.37,4.75l0.24,0.14l0.12-0.4L50.45,109.2z
		 M109.2,117.62l-0.2-0.38l-10.79,4.42l-13.96-5.4l-3.48,3.32l-0.83-0.5l-0.03-0.02l-0.02-0.01l-0.03-0.02l-4.04-2.99l-0.35-0.21
		l-0.08-0.05l-3.94-0.14l-0.12-0.01l-0.21,1.02l-0.26,0.6l-8.54-1.79l-8.89-4.66l-0.09-0.05l-0.14-0.08l-1.62-0.83l-0.12,0.41
		l10.68,6.07l8.94,1.69l0.59-1.37l3.43,0.13l5.84,3.5l3.41-3.24l13.5,5.4l11.59-4.37L109.2,117.62z M22,76.18l0.33,1.59l0.13,0.31
		L22,76.18z M80.28,118.72l0.37,0.27l0.04-0.04L80.28,118.72z M80.28,118.72l0.37,0.27l0.04-0.04L80.28,118.72z M22,76.18l0.33,1.59
		l0.13,0.31L22,76.18z M48.78,108.17l-0.14-0.08l-0.09-0.06l-0.03-0.02l-6.08-3.79l-9.12,0.34l-0.4,0.02l-0.03,0.03L32.5,105
		l0.04,0.09l0.09,0.21l0.05,0.12l9.28-0.56l8.37,4.75l0.12-0.41L48.78,108.17z M22,76.18l0.33,1.59l0.13,0.31L22,76.18z
		 M48.78,108.17l-0.14-0.08l-0.09-0.06l-0.03-0.02l-6.08-3.79l-9.12,0.34l-0.4,0.02l-0.03,0.03L32.5,105l0.04,0.09l0.09,0.21
		l0.05,0.12l9.28-0.56l8.37,4.75l0.12-0.41L48.78,108.17z"/>
</g>
</svg>
