<?xml version="1.0" encoding="utf-8"?>
<!-- Generator: Adobe Illustrator 24.0.0, SVG Export Plug-In . SVG Version: 6.00 Build 0)  -->
<svg version="1.1" id="_x2014_ÎÓÈ_x5F_1" xmlns="http://www.w3.org/2000/svg" xmlns:xlink="http://www.w3.org/1999/xlink"
	 x="0px" y="0px" viewBox="0 0 144.49 95.4" style="enable-background:new 0 0 144.49 95.4;" xml:space="preserve">
<style type="text/css">
	.st0{fill:#e4d1aa;}
	.st1{fill:#FFFFFF;}
</style>
<g>
	<polygon class="st0" points="33.38,66.74 33.42,66.8 33.38,67.56 33.35,67.52 	"/>
	<polygon class="st0" points="54.91,93.59 55.77,94.1 55.72,94.14 	"/>
	<polygon class="st0" points="56.25,94.5 57.21,95.12 57.19,95.14 	"/>
	<polygon class="st0" points="57.21,94.41 57.65,94.68 57.57,94.76 57.14,94.48 	"/>
	<polygon class="st0" points="58.11,93.52 61.53,90.8 57.94,94.39 57.51,94.12 57.42,94.06 57.5,94 	"/>
	<polygon class="st0" points="116.82,31.06 142.45,58.42 132.66,58.61 131.55,60 129.65,59.19 129.2,57.4 110.48,57.21 83.07,66.53 
		76.36,72.01 74.02,71.65 72.34,73.34 70,70.83 64.3,77.49 59.84,76.55 61.03,87.04 62.66,87.85 62.66,88.63 56.59,93.45 
		52.71,91.14 33.85,67.35 33.42,66.8 33.68,62.46 33.53,62.49 30.22,63.25 21.09,51.97 21.09,48.33 14.32,39.65 14.97,34.05 
		7.45,33.11 7.2,33.46 6.52,34.39 6.09,34.98 0,34.98 0.12,34.52 0.25,34.02 2.19,26.65 2.2,26.61 2.2,26.6 2.22,26.53 4.45,18.08 
		4.57,17.6 4.61,17.46 4.73,17.48 12.46,19 12.47,18.6 12.63,14.39 15.3,14.6 34.97,16.13 39.97,6.46 43.38,6.46 43.93,4.79 
		43.97,4.68 59.03,12.83 59.05,12.84 63.53,11.92 64.59,0 64.6,0.01 65.09,0.22 118.94,23.47 	"/>
	<polygon class="st0" points="144.01,59.42 143.34,59.46 142.68,59.5 133.26,60.03 132.49,61.18 131.95,61.1 131.76,61.07 
		131.41,61.03 131.4,61.02 128.93,60.67 128.09,59 111.04,58.51 88.48,65.74 88.31,65.8 88.3,65.8 88.27,65.81 83.87,67.22 
		83.71,67.36 83.7,67.36 76.19,73.8 74.55,72.75 74.54,72.75 74.47,72.7 74.45,72.73 72.58,75.34 69.89,72.49 69.8,72.39 
		68.67,73.92 68.66,73.93 64.7,79.29 61.51,78.18 62.33,85.89 63.61,86.44 63.61,87.21 63.11,86.96 61.97,86.39 61.96,86.28 
		60.99,77.81 63.53,78.35 64.6,78.58 68.17,73.74 68.19,73.71 68.23,73.66 69.75,71.61 69.88,71.75 70.02,71.58 72.32,74.06 
		74.2,72.19 74.21,72.19 74.33,72.03 74.69,72.26 74.7,72.27 76.51,72.54 83.23,67 83.54,66.9 83.55,66.89 83.72,66.74 88.49,65.21 
		88.59,65.18 110.56,57.71 128.81,57.9 129.22,59.55 131.53,60.54 131.54,60.54 131.73,60.57 131.74,60.57 132.91,59.11 
		142.8,58.92 142.87,58.99 142.97,58.98 142.45,58.42 143,58.41 	"/>
	<path class="st1" d="M83.72,66.74l-0.17,0.15l4.94-1.68L83.72,66.74z M74.69,72.26l-0.36-0.23l-0.12,0.16l0.13,0.02l0.08,0.01
		l0.12,0.02l0.04,0.01l0.12,0.02L74.69,72.26z M69.75,71.61l-1.52,2.05l1.65-1.91L69.75,71.61z M33.38,66.74l-0.03,0.78l0.03,0.04
		l0.04-0.76L33.38,66.74z M56.25,94.5l0.94,0.64l0.02-0.02L56.25,94.5z M55.72,94.14l-0.01,0.01l0.46,0.3L55.72,94.14z M54.91,93.59
		l0.81,0.55l0.05-0.04L54.91,93.59z M83.72,66.74l-0.17,0.15l4.94-1.68L83.72,66.74z M74.69,72.26l-0.36-0.23l-0.12,0.16l0.13,0.02
		l0.08,0.01l0.12,0.02l0.04,0.01l0.12,0.02L74.69,72.26z M69.75,71.61l-1.52,2.05l1.65-1.91L69.75,71.61z M33.38,66.74l-0.03,0.78
		l0.03,0.04l0.04-0.76L33.38,66.74z M56.25,94.5l0.94,0.64l0.02-0.02L56.25,94.5z M55.72,94.14l-0.01,0.01l0.46,0.3L55.72,94.14z
		 M54.91,93.59l0.81,0.55l0.05-0.04L54.91,93.59z M83.72,66.74l-0.17,0.15l4.94-1.68L83.72,66.74z M74.69,72.26l-0.36-0.23
		l-0.12,0.16l0.13,0.02l0.08,0.01l0.12,0.02l0.04,0.01l0.12,0.02L74.69,72.26z M69.75,71.61l-1.52,2.05l1.65-1.91L69.75,71.61z
		 M33.38,66.74l-0.03,0.78l0.03,0.04l0.04-0.76L33.38,66.74z M56.25,94.5l0.94,0.64l0.02-0.02L56.25,94.5z M55.72,94.14l-0.01,0.01
		l0.46,0.3L55.72,94.14z M54.91,93.59l0.81,0.55l0.05-0.04L54.91,93.59z M83.72,66.74l-0.17,0.15l4.94-1.68L83.72,66.74z
		 M74.69,72.26l-0.36-0.23l-0.12,0.16l0.13,0.02l0.08,0.01l0.12,0.02l0.04,0.01l0.12,0.02L74.69,72.26z M69.75,71.61l-1.52,2.05
		l1.65-1.91L69.75,71.61z M33.38,66.74l-0.03,0.78l0.03,0.04l0.04-0.76L33.38,66.74z M56.25,94.5l0.94,0.64l0.02-0.02L56.25,94.5z
		 M55.72,94.14l-0.01,0.01l0.46,0.3L55.72,94.14z M54.91,93.59l0.81,0.55l0.05-0.04L54.91,93.59z M83.72,66.74l-0.17,0.15l4.94-1.68
		L83.72,66.74z M74.69,72.26l-0.36-0.23l-0.12,0.16l0.13,0.02l0.08,0.01l0.12,0.02l0.04,0.01l0.12,0.02L74.69,72.26z M69.75,71.61
		l-1.52,2.05l1.65-1.91L69.75,71.61z M33.38,66.74l-0.03,0.78l0.03,0.04l0.04-0.76L33.38,66.74z M56.25,94.5l0.94,0.64l0.02-0.02
		L56.25,94.5z M55.72,94.14l-0.01,0.01l0.46,0.3L55.72,94.14z M54.91,93.59l0.81,0.55l0.05-0.04L54.91,93.59z M83.72,66.74
		l-0.17,0.15l4.94-1.68L83.72,66.74z M74.69,72.26l-0.36-0.23l-0.12,0.16l0.13,0.02l0.08,0.01l0.12,0.02l0.04,0.01l0.12,0.02
		L74.69,72.26z M69.75,71.61l-1.52,2.05l1.65-1.91L69.75,71.61z M33.38,66.74l-0.03,0.78l0.03,0.04l0.04-0.76L33.38,66.74z
		 M56.25,94.5l0.94,0.64l0.02-0.02L56.25,94.5z M55.72,94.14l-0.01,0.01l0.46,0.3L55.72,94.14z M54.91,93.59l0.81,0.55l0.05-0.04
		L54.91,93.59z M83.72,66.74l-0.17,0.15l4.94-1.68L83.72,66.74z M74.69,72.26l-0.36-0.23l-0.12,0.16l0.13,0.02l0.08,0.01l0.12,0.02
		l0.04,0.01l0.12,0.02L74.69,72.26z M69.75,71.61l-1.52,2.05l1.65-1.91L69.75,71.61z M33.38,66.74l-0.03,0.78l0.03,0.04l0.04-0.76
		L33.38,66.74z M56.25,94.5l0.94,0.64l0.02-0.02L56.25,94.5z M55.72,94.14l-0.01,0.01l0.46,0.3L55.72,94.14z M54.91,93.59l0.81,0.55
		l0.05-0.04L54.91,93.59z M83.72,66.74l-0.17,0.15l4.94-1.68L83.72,66.74z M74.69,72.26l-0.36-0.23l-0.12,0.16l0.13,0.02l0.08,0.01
		l0.12,0.02l0.04,0.01l0.12,0.02L74.69,72.26z M69.75,71.61l-1.52,2.05l1.65-1.91L69.75,71.61z M33.38,66.74l-0.03,0.78l0.03,0.04
		l0.04-0.76L33.38,66.74z M56.25,94.5l0.94,0.64l0.02-0.02L56.25,94.5z M55.72,94.14l-0.01,0.01l0.46,0.3L55.72,94.14z M54.91,93.59
		l0.81,0.55l0.05-0.04L54.91,93.59z M83.72,66.74l-0.17,0.15l4.94-1.68L83.72,66.74z M74.69,72.26l-0.36-0.23l-0.12,0.16l0.13,0.02
		l0.08,0.01l0.12,0.02l0.04,0.01l0.12,0.02L74.69,72.26z M69.75,71.61l-1.52,2.05l1.65-1.91L69.75,71.61z M33.38,66.74l-0.03,0.78
		l0.03,0.04l0.04-0.76L33.38,66.74z M56.25,94.5l0.94,0.64l0.02-0.02L56.25,94.5z M55.72,94.14l-0.01,0.01l0.46,0.3L55.72,94.14z
		 M54.91,93.59l0.81,0.55l0.05-0.04L54.91,93.59z M33.38,66.74l-0.03,0.78l0.03,0.04l0.04-0.76L33.38,66.74z M144.01,59.42
		L143,58.41l-0.55,0.01l0.52,0.56l-0.1,0.01l-9.89,0.56l-0.73,1.09l-0.51-0.07h-0.01l-0.19-0.03h-0.01l-1.91-0.28l-0.36-0.05
		l-0.07-0.13l-0.7-1.41l-0.08-0.16l-6.28-0.18L110.97,58l-22.38,7.18l-0.1,0.03l-4.77,1.53l-0.17,0.15l-0.01,0.01l-7.2,6.12
		l-0.19,0.16l-0.39-0.25l-1.06-0.66l-0.01-0.01l-0.36-0.23l-0.12,0.16l-1.68,2.37l-2.65-2.81l-0.13-0.14l-1.52,2.05l-0.04,0.05
		l-0.02,0.03l-3.57,4.84l-0.08,0.11l-0.99-0.34l-2.54-0.54l0.97,8.47l1.15,0.49v0.19l0.5,0.25l0.05,0.02v1.88l-2.13,1.69l-3.42,2.72
		l-0.53,0.52l-0.07,0.08l0.43,0.27l0.43,0.28l0.1-0.1l5.64-5.64v-2.82l-1.32-0.56l-0.7-6.64l2.8,0.97l4.95-6.71l2.79,2.96l1.97-2.75
		l1.64,1.04l7.88-6.75l26.99-8.66l16.67,0.49l0.82,1.63l4.13,0.59l0.8-1.2l9.62-0.55l0.67-0.03l0.67-0.04L144.01,59.42z
		 M57.31,95.02l-0.1,0.1l0.43,0.28l0.11-0.11L57.31,95.02z M57.21,94.41l-0.07,0.07l0.43,0.28l0.08-0.08L57.21,94.41z M56.25,94.5
		l0.94,0.64l0.02-0.02L56.25,94.5z M55.72,94.14l-0.01,0.01l0.46,0.3L55.72,94.14z M54.91,93.59l0.81,0.55l0.05-0.04L54.91,93.59z
		 M33.38,66.74l-0.03,0.78l0.03,0.04l0.04-0.76L33.38,66.74z M56.25,94.5l0.94,0.64l0.02-0.02L56.25,94.5z M55.72,94.14l-0.01,0.01
		l0.46,0.3L55.72,94.14z M54.91,93.59l0.81,0.55l0.05-0.04L54.91,93.59z M69.75,71.61l-1.52,2.05l1.65-1.91L69.75,71.61z
		 M74.69,72.26l-0.36-0.23l-0.12,0.16l0.13,0.02l0.08,0.01l0.12,0.02l0.04,0.01l0.12,0.02L74.69,72.26z M83.72,66.74l-0.17,0.15
		l4.94-1.68L83.72,66.74z M33.38,66.74l-0.03,0.78l0.03,0.04l0.04-0.76L33.38,66.74z M56.25,94.5l0.94,0.64l0.02-0.02L56.25,94.5z
		 M55.72,94.14l-0.01,0.01l0.46,0.3L55.72,94.14z M54.91,93.59l0.81,0.55l0.05-0.04L54.91,93.59z M69.75,71.61l-1.52,2.05l1.65-1.91
		L69.75,71.61z M74.69,72.26l-0.36-0.23l-0.12,0.16l0.13,0.02l0.08,0.01l0.12,0.02l0.04,0.01l0.12,0.02L74.69,72.26z M83.72,66.74
		l-0.17,0.15l4.94-1.68L83.72,66.74z M33.38,66.74l-0.03,0.78l0.03,0.04l0.04-0.76L33.38,66.74z M56.25,94.5l0.94,0.64l0.02-0.02
		L56.25,94.5z M55.72,94.14l-0.01,0.01l0.46,0.3L55.72,94.14z M54.91,93.59l0.81,0.55l0.05-0.04L54.91,93.59z M69.75,71.61
		l-1.52,2.05l1.65-1.91L69.75,71.61z M74.69,72.26l-0.36-0.23l-0.12,0.16l0.13,0.02l0.08,0.01l0.12,0.02l0.04,0.01l0.12,0.02
		L74.69,72.26z M83.72,66.74l-0.17,0.15l4.94-1.68L83.72,66.74z M33.38,66.74l-0.03,0.78l0.03,0.04l0.04-0.76L33.38,66.74z
		 M56.25,94.5l0.94,0.64l0.02-0.02L56.25,94.5z M55.72,94.14l-0.01,0.01l0.46,0.3L55.72,94.14z M54.91,93.59l0.81,0.55l0.05-0.04
		L54.91,93.59z M69.75,71.61l-1.52,2.05l1.65-1.91L69.75,71.61z M74.69,72.26l-0.36-0.23l-0.12,0.16l0.13,0.02l0.08,0.01l0.12,0.02
		l0.04,0.01l0.12,0.02L74.69,72.26z M83.72,66.74l-0.17,0.15l4.94-1.68L83.72,66.74z M33.38,66.74l-0.03,0.78l0.03,0.04l0.04-0.76
		L33.38,66.74z M56.25,94.5l0.94,0.64l0.02-0.02L56.25,94.5z M55.72,94.14l-0.01,0.01l0.46,0.3L55.72,94.14z M54.91,93.59l0.81,0.55
		l0.05-0.04L54.91,93.59z M69.75,71.61l-1.52,2.05l1.65-1.91L69.75,71.61z M74.69,72.26l-0.36-0.23l-0.12,0.16l0.13,0.02l0.08,0.01
		l0.12,0.02l0.04,0.01l0.12,0.02L74.69,72.26z M83.72,66.74l-0.17,0.15l4.94-1.68L83.72,66.74z M33.38,66.74l-0.03,0.78l0.03,0.04
		l0.04-0.76L33.38,66.74z M56.25,94.5l0.94,0.64l0.02-0.02L56.25,94.5z M55.72,94.14l-0.01,0.01l0.46,0.3L55.72,94.14z M54.91,93.59
		l0.81,0.55l0.05-0.04L54.91,93.59z M69.75,71.61l-1.52,2.05l1.65-1.91L69.75,71.61z M74.69,72.26l-0.36-0.23l-0.12,0.16l0.13,0.02
		l0.08,0.01l0.12,0.02l0.04,0.01l0.12,0.02L74.69,72.26z M83.72,66.74l-0.17,0.15l4.94-1.68L83.72,66.74z M33.38,66.74l-0.03,0.78
		l0.03,0.04l0.04-0.76L33.38,66.74z M56.25,94.5l0.94,0.64l0.02-0.02L56.25,94.5z M55.72,94.14l-0.01,0.01l0.46,0.3L55.72,94.14z
		 M54.91,93.59l0.81,0.55l0.05-0.04L54.91,93.59z M69.75,71.61l-1.52,2.05l1.65-1.91L69.75,71.61z M74.69,72.26l-0.36-0.23
		l-0.12,0.16l0.13,0.02l0.08,0.01l0.12,0.02l0.04,0.01l0.12,0.02L74.69,72.26z M83.72,66.74l-0.17,0.15l4.94-1.68L83.72,66.74z
		 M33.38,66.74l-0.03,0.78l0.03,0.04l0.04-0.76L33.38,66.74z M56.25,94.5l0.94,0.64l0.02-0.02L56.25,94.5z M55.72,94.14l-0.01,0.01
		l0.46,0.3L55.72,94.14z M54.91,93.59l0.81,0.55l0.05-0.04L54.91,93.59z M69.75,71.61l-1.52,2.05l1.65-1.91L69.75,71.61z
		 M74.69,72.26l-0.36-0.23l-0.12,0.16l0.13,0.02l0.08,0.01l0.12,0.02l0.04,0.01l0.12,0.02L74.69,72.26z M83.72,66.74l-0.17,0.15
		l4.94-1.68L83.72,66.74z"/>
</g>
</svg>
