<?xml version="1.0" encoding="utf-8"?>
<!-- Generator: Adobe Illustrator 24.0.0, SVG Export Plug-In . SVG Version: 6.00 Build 0)  -->
<svg version="1.1" id="_x2014_ÎÓÈ_x5F_1" xmlns="http://www.w3.org/2000/svg" xmlns:xlink="http://www.w3.org/1999/xlink"
	 x="0px" y="0px" viewBox="0 0 62.57 38.83" style="enable-background:new 0 0 62.57 38.83;" xml:space="preserve">
<style type="text/css">
	.st0{fill:#e4d1aa;}
	.st1{fill:#FFFFFF;}
</style>
<g>
	<polygon class="st0" points="62.57,0 62.53,0.46 62.49,0.96 61.03,17.72 60.54,17.51 59.42,30.07 56.02,30.77 40.22,22.22 
		39.48,24.44 36.19,24.44 31.21,34.06 8.48,32.29 8.32,36.77 1.77,35.49 5.48,18.76 3.09,18.21 3.51,14.77 6.22,14.39 7.99,14.14 
		8.2,14.11 8.22,13.87 19.93,14.02 22.48,11.47 23.22,10.73 37.45,10.73 38.85,10.7 40.75,12.09 44.09,11.93 45.05,11.84 
		45.43,11.8 50.38,2.07 53.39,0 	"/>
	<path class="st1" d="M40.75,12.09l-1.9-1.39l-1.4,0.03h1.39l1.88,1.54l3.37-0.34L40.75,12.09z M40.75,12.09l-1.9-1.39l-1.4,0.03
		h1.39l1.88,1.54l3.37-0.34L40.75,12.09z M40.75,12.09l-1.9-1.39l-1.4,0.03h1.39l1.88,1.54l3.37-0.34L40.75,12.09z M40.75,12.09
		l-1.9-1.39l-1.4,0.03h1.39l1.88,1.54l3.37-0.34L40.75,12.09z M40.75,12.09l-1.9-1.39l-1.4,0.03h1.39l1.88,1.54l3.37-0.34
		L40.75,12.09z M40.75,12.09l-1.9-1.39l-1.4,0.03h1.39l1.88,1.54l3.37-0.34L40.75,12.09z M40.75,12.09l-1.9-1.39l-1.4,0.03h1.39
		l1.88,1.54l3.37-0.34L40.75,12.09z M40.75,12.09l-1.9-1.39l-1.4,0.03h1.39l1.88,1.54l3.37-0.34L40.75,12.09z M40.75,12.09
		l-1.9-1.39l-1.4,0.03h1.39l1.88,1.54l3.37-0.34L40.75,12.09z M40.75,12.09l-1.9-1.39l-1.4,0.03h1.39l1.88,1.54l3.37-0.34
		L40.75,12.09z M40.75,12.09l-1.9-1.39l-1.4,0.03h1.39l1.88,1.54l3.37-0.34L40.75,12.09z M40.75,12.09l-1.9-1.39l-1.4,0.03h1.39
		l1.88,1.54l3.37-0.34L40.75,12.09z M40.75,12.09l-1.9-1.39l-1.4,0.03h1.39l1.88,1.54l3.37-0.34L40.75,12.09z M40.75,12.09
		l-1.9-1.39l-1.4,0.03h1.39l1.88,1.54l3.37-0.34L40.75,12.09z M40.75,12.09l-1.9-1.39l-1.4,0.03h1.39l1.88,1.54l3.37-0.34
		L40.75,12.09z M40.75,12.09l-1.9-1.39l-1.4,0.03h1.39l1.88,1.54l3.37-0.34L40.75,12.09z M40.75,12.09l-1.9-1.39l-1.4,0.03h1.39
		l1.88,1.54l3.37-0.34L40.75,12.09z"/>
</g>
</svg>
