<?xml version="1.0" encoding="utf-8"?>
<!-- Generator: Adobe Illustrator 24.0.0, SVG Export Plug-In . SVG Version: 6.00 Build 0)  -->
<svg version="1.1" id="_x2014_ÎÓÈ_x5F_1" xmlns="http://www.w3.org/2000/svg" xmlns:xlink="http://www.w3.org/1999/xlink"
	 x="0px" y="0px" viewBox="0 0 97.48 104.62" style="enable-background:new 0 0 97.48 104.62;" xml:space="preserve">
<style type="text/css">
	.st0{fill:#e4d1aa;}
	.st1{fill:#FFFFFF;}
</style>
<g>
	<polygon class="st0" points="95.12,1.21 91.14,5.19 91.1,5.31 91.1,5.34 90.62,8.45 90.42,9.73 87.56,12.13 84.05,15.07 
		84.05,21.74 80.49,21.74 78.76,23.75 78.74,23.78 76.44,26.45 76.44,29.25 73.08,35.18 67.41,36.2 67.11,40.56 69.16,42.11 
		69.35,42.25 69.34,42.26 64.84,48.74 65.02,73.33 60,80.07 60.18,86.62 49.27,92.07 42.96,97.51 41.34,102.39 41.32,102.44 
		41.06,103.49 36.68,103.49 28.06,103.61 26.64,101.29 26.14,101.18 21.98,101.01 21.76,100.9 21.66,100.9 19.59,99.81 19.42,99.73 
		10.25,95.14 10.2,94.89 10.08,94.27 9.89,93.34 7.68,91.47 7.07,90.11 4.47,90.11 4.3,90.63 1.47,90.63 9.62,70.17 23.27,65.5 
		23.39,65.46 35.46,52.37 35.46,46.52 40.5,48.14 40.56,48.16 42.92,43.73 42.4,43.37 42.39,43.36 42.37,43.35 40.21,41.86 
		44.59,29.37 46.75,26.35 44.53,25.61 44.45,25.25 44.36,24.88 44.36,24.78 44.35,24.76 43.78,22.4 43.62,21.73 43.75,21.74 
		45.14,21.84 48.63,22.09 48.85,22.11 57.79,8.53 57.82,8.48 60.67,8.21 67.54,7.54 67.57,7.54 67.86,10.92 67.91,11.45 
		67.92,11.61 69.48,11.78 69.5,11.78 71.96,12.05 73.28,8.26 86.55,1.01 88.59,1.06 	"/>
	<path class="st1" d="M91.12,5.21l-0.02,0.1l0.04-0.12L91.12,5.21z M40.99,103.43l-4.31,0.06h4.38l0.26-1.05L40.99,103.43z
		 M19.59,99.81l2.07,1.09h0.1L19.59,99.81z M91.12,5.21l-0.02,0.1l0.04-0.12L91.12,5.21z M40.99,103.43l-4.31,0.06h4.38l0.26-1.05
		L40.99,103.43z M19.59,99.81l2.07,1.09h0.1L19.59,99.81z M91.12,5.21l-0.02,0.1l0.04-0.12L91.12,5.21z M40.99,103.43l-4.31,0.06
		h4.38l0.26-1.05L40.99,103.43z M19.59,99.81l2.07,1.09h0.1L19.59,99.81z M91.12,5.21l-0.02,0.1l0.04-0.12L91.12,5.21z
		 M40.99,103.43l-4.31,0.06h4.38l0.26-1.05L40.99,103.43z M19.59,99.81l2.07,1.09h0.1L19.59,99.81z M91.12,5.21l-0.02,0.1l0.04-0.12
		L91.12,5.21z M40.99,103.43l-4.31,0.06h4.38l0.26-1.05L40.99,103.43z M19.59,99.81l2.07,1.09h0.1L19.59,99.81z M91.12,5.21
		l-0.02,0.1l0.04-0.12L91.12,5.21z M40.99,103.43l-4.31,0.06h4.38l0.26-1.05L40.99,103.43z M19.59,99.81l2.07,1.09h0.1L19.59,99.81z
		 M91.12,5.21l-0.02,0.1l0.04-0.12L91.12,5.21z M40.99,103.43l-4.31,0.06h4.38l0.26-1.05L40.99,103.43z M19.59,99.81l2.07,1.09h0.1
		L19.59,99.81z M91.12,5.21l-0.02,0.1l0.04-0.12L91.12,5.21z M40.99,103.43l-4.31,0.06h4.38l0.26-1.05L40.99,103.43z M19.59,99.81
		l2.07,1.09h0.1L19.59,99.81z M91.12,5.21l-0.02,0.1l0.04-0.12L91.12,5.21z M40.99,103.43l-4.31,0.06h4.38l0.26-1.05L40.99,103.43z
		 M19.59,99.81l2.07,1.09h0.1L19.59,99.81z M91.12,5.21l-0.02,0.1l0.04-0.12L91.12,5.21z M40.99,103.43l-4.31,0.06h4.38l0.26-1.05
		L40.99,103.43z M19.59,99.81l2.07,1.09h0.1L19.59,99.81z M91.12,5.21l-0.02,0.1l0.04-0.12L91.12,5.21z M40.99,103.43l-4.31,0.06
		h4.38l0.26-1.05L40.99,103.43z M19.59,99.81l2.07,1.09h0.1L19.59,99.81z M91.12,5.21l-0.02,0.1l0.04-0.12L91.12,5.21z
		 M40.99,103.43l-4.31,0.06h4.38l0.26-1.05L40.99,103.43z M19.59,99.81l2.07,1.09h0.1L19.59,99.81z M91.12,5.21l-0.02,0.1l0.04-0.12
		L91.12,5.21z M40.99,103.43l-4.31,0.06h4.38l0.26-1.05L40.99,103.43z M19.59,99.81l2.07,1.09h0.1L19.59,99.81z M91.12,5.21
		l-0.02,0.1l0.04-0.12L91.12,5.21z M40.99,103.43l-4.31,0.06h4.38l0.26-1.05L40.99,103.43z M19.59,99.81l2.07,1.09h0.1L19.59,99.81z
		 M91.12,5.21l-0.02,0.1l0.04-0.12L91.12,5.21z M40.99,103.43l-4.31,0.06h4.38l0.26-1.05L40.99,103.43z M19.59,99.81l2.07,1.09h0.1
		L19.59,99.81z M91.12,5.21l-0.02,0.1l0.04-0.12L91.12,5.21z M40.99,103.43l-4.31,0.06h4.38l0.26-1.05L40.99,103.43z M19.59,99.81
		l2.07,1.09h0.1L19.59,99.81z M91.12,5.21l-0.02,0.1l0.04-0.12L91.12,5.21z M40.99,103.43l-4.31,0.06h4.38l0.26-1.05L40.99,103.43z
		 M19.59,99.81l2.07,1.09h0.1L19.59,99.81z M91.12,5.21l-0.02,0.1l0.04-0.12L91.12,5.21z M40.99,103.43l-4.31,0.06h4.38l0.26-1.05
		L40.99,103.43z M19.59,99.81l2.07,1.09h0.1L19.59,99.81z M91.12,5.21l-0.02,0.1l0.04-0.12L91.12,5.21z M40.99,103.43l-4.31,0.06
		h4.38l0.26-1.05L40.99,103.43z M19.59,99.81l2.07,1.09h0.1L19.59,99.81z M91.12,5.21l-0.02,0.1l0.04-0.12L91.12,5.21z
		 M40.99,103.43l-4.31,0.06h4.38l0.26-1.05L40.99,103.43z M19.59,99.81l2.07,1.09h0.1L19.59,99.81z M91.12,5.21l-0.02,0.1l0.04-0.12
		L91.12,5.21z M19.59,99.81l2.07,1.09h0.1L19.59,99.81z M40.99,103.43l-4.31,0.06h4.38l0.26-1.05L40.99,103.43z M91.12,5.21
		l-0.02,0.1l0.04-0.12L91.12,5.21z M91.12,5.21l-0.02,0.1l0.04-0.12L91.12,5.21z M19.59,99.81l2.07,1.09h0.1L19.59,99.81z
		 M40.99,103.43l-4.31,0.06h4.38l0.26-1.05L40.99,103.43z M91.12,5.21l-0.02,0.1l0.04-0.12L91.12,5.21z M19.59,99.81l2.07,1.09h0.1
		L19.59,99.81z M40.99,103.43l-4.31,0.06h4.38l0.26-1.05L40.99,103.43z M91.12,5.21l-0.02,0.1l0.04-0.12L91.12,5.21z M19.59,99.81
		l2.07,1.09h0.1L19.59,99.81z M40.99,103.43l-4.31,0.06h4.38l0.26-1.05L40.99,103.43z M91.12,5.21l-0.02,0.1l0.04-0.12L91.12,5.21z
		 M19.59,99.81l2.07,1.09h0.1L19.59,99.81z M40.99,103.43l-4.31,0.06h4.38l0.26-1.05L40.99,103.43z M91.12,5.21l-0.02,0.1l0.04-0.12
		L91.12,5.21z M19.59,99.81l2.07,1.09h0.1L19.59,99.81z M40.99,103.43l-4.31,0.06h4.38l0.26-1.05L40.99,103.43z M91.12,5.21
		l-0.02,0.1l0.04-0.12L91.12,5.21z M19.59,99.81l2.07,1.09h0.1L19.59,99.81z M40.99,103.43l-4.31,0.06h4.38l0.26-1.05L40.99,103.43z
		 M91.12,5.21l-0.02,0.1l0.04-0.12L91.12,5.21z M19.59,99.81l2.07,1.09h0.1L19.59,99.81z M40.99,103.43l-4.31,0.06h4.38l0.26-1.05
		L40.99,103.43z M91.12,5.21l-0.02,0.1l0.04-0.12L91.12,5.21z M19.59,99.81l2.07,1.09h0.1L19.59,99.81z M40.99,103.43l-4.31,0.06
		h4.38l0.26-1.05L40.99,103.43z M91.12,5.21l-0.02,0.1l0.04-0.12L91.12,5.21z M19.59,99.81l2.07,1.09h0.1L19.59,99.81z
		 M40.99,103.43l-4.31,0.06h4.38l0.26-1.05L40.99,103.43z M91.12,5.21l-0.02,0.1l0.04-0.12L91.12,5.21z M19.59,99.81l2.07,1.09h0.1
		L19.59,99.81z M40.99,103.43l-4.31,0.06h4.38l0.26-1.05L40.99,103.43z M91.12,5.21l-0.02,0.1l0.04-0.12L91.12,5.21z M19.59,99.81
		l2.07,1.09h0.1L19.59,99.81z M40.99,103.43l-4.31,0.06h4.38l0.26-1.05L40.99,103.43z M91.12,5.21l-0.02,0.1l0.04-0.12L91.12,5.21z
		 M19.59,99.81l2.07,1.09h0.1L19.59,99.81z M40.99,103.43l-4.31,0.06h4.38l0.26-1.05L40.99,103.43z M91.12,5.21l-0.02,0.1l0.04-0.12
		L91.12,5.21z M19.59,99.81l2.07,1.09h0.1L19.59,99.81z M40.99,103.43l-4.31,0.06h4.38l0.26-1.05L40.99,103.43z M91.12,5.21
		l-0.02,0.1l0.04-0.12L91.12,5.21z M19.59,99.81l2.07,1.09h0.1L19.59,99.81z M40.99,103.43l-4.31,0.06h4.38l0.26-1.05L40.99,103.43z
		 M91.12,5.21l-0.02,0.1l0.04-0.12L91.12,5.21z M19.59,99.81l2.07,1.09h0.1L19.59,99.81z M40.99,103.43l-4.31,0.06h4.38l0.26-1.05
		L40.99,103.43z M91.12,5.21l-0.02,0.1l0.04-0.12L91.12,5.21z M19.59,99.81l2.07,1.09h0.1L19.59,99.81z M40.99,103.43l-4.31,0.06
		h4.38l0.26-1.05L40.99,103.43z M91.12,5.21l-0.02,0.1l0.04-0.12L91.12,5.21z M19.59,99.81l2.07,1.09h0.1L19.59,99.81z
		 M40.99,103.43l-4.31,0.06h4.38l0.26-1.05L40.99,103.43z M91.12,5.21l-0.02,0.1l0.04-0.12L91.12,5.21z M19.59,99.81l2.07,1.09h0.1
		L19.59,99.81z M40.99,103.43l-4.31,0.06h4.38l0.26-1.05L40.99,103.43z M91.12,5.21l-0.02,0.1l0.04-0.12L91.12,5.21z M19.59,99.81
		l2.07,1.09h0.1L19.59,99.81z M40.99,103.43l-4.31,0.06h4.38l0.26-1.05L40.99,103.43z M91.12,5.21l-0.02,0.1l0.04-0.12L91.12,5.21z"
		/>
</g>
</svg>
