<?xml version="1.0" encoding="utf-8"?>
<!-- Generator: Adobe Illustrator 24.0.0, SVG Export Plug-In . SVG Version: 6.00 Build 0)  -->
<svg version="1.1" id="_x2014_ÎÓÈ_x5F_1" xmlns="http://www.w3.org/2000/svg" xmlns:xlink="http://www.w3.org/1999/xlink"
	 x="0px" y="0px" viewBox="0 0 73.85 71.09" style="enable-background:new 0 0 73.85 71.09;" xml:space="preserve">
<style type="text/css">
	.st0{fill:#e4d1aa;}
</style>
<g>
	<polyline class="st0" points="5.93,69.02 5.96,68.97 6.03,68.83 6.76,67.36 6.86,67.2 7.99,64.89 2.56,64.89 1.49,63.97 
		2.06,55.42 6.66,51.29 15.96,49.23 24.56,38.44 23.86,26.57 28.41,23.6 29.29,14.6 31.46,14.41 35.44,3.58 35.63,3.08 35.78,2.66 
		36.34,2.58 38.91,2.22 39.24,2.17 39.06,0.38 50.69,0.01 51.06,0 50.69,4.46 54.17,7.36 54.52,7.65 61.79,10.55 66.71,10.77 
		66.88,12.28 71.72,11.96 71.73,12.26 71.74,12.76 71.86,19.11 68.11,28.56 64.88,31.61 64.05,35.93 62.17,37.06 62.17,44.18 
		55.87,50.12 57.44,54.52 61.56,54.3 65.21,55.52 65.96,58.22 55.39,62.48 53.51,61.38 49.23,54.11 45.87,57.71 36.06,57.88 
		34.78,60.59 29.55,59.44 26.61,62.76 14.21,63.66 12.82,68.87 6.77,68.96 	"/>
</g>
</svg>
