<?xml version="1.0" encoding="utf-8"?>
<!-- Generator: Adobe Illustrator 24.0.0, SVG Export Plug-In . SVG Version: 6.00 Build 0)  -->
<svg version="1.1" id="_x2014_ÎÓÈ_x5F_1" xmlns="http://www.w3.org/2000/svg" xmlns:xlink="http://www.w3.org/1999/xlink"
	 x="0px" y="0px" viewBox="0 0 168.2 151.2" style="enable-background:new 0 0 168.2 151.2;" xml:space="preserve">
<style type="text/css">
	.st0{fill:#e4d1aa;}
	.st1{fill:#FFFFFF;}
</style>
<g>
	<polygon class="st0" points="167.42,56.94 157.95,51.65 165.8,48.39 166.21,40.65 155.32,32.36 156.04,23.88 150.42,22.76 
		147.04,16.88 143.93,17.19 143.55,13.44 147.38,9.22 137.88,0.5 105.99,0.5 50.97,15.18 23.8,66.27 10.58,56.13 9.81,72.4 
		0.6,93.12 20.7,112.34 23.01,117.32 85.51,150.51 96.57,126.77 109.89,117.29 139.53,121.18 149.67,128.56 158.01,116.62 
		163.11,81.09 156.7,69.63 	"/>
	<path class="st1" d="M147.05,17.42l-0.28,0.01l1.78,3.08L147.05,17.42z M146.64,9.29l-3.37,3.7l3.71-3.37L146.64,9.29z
		 M143.47,17.6l0.01,0.14l2.8-0.28L143.47,17.6z M138.32,1.13h-0.49l7.64,7.01L138.32,1.13z M143.21,13.06l-0.18,0.2l0.35,3.49
		L143.21,13.06z M106.48,0.96l-0.6-0.01h-0.68l0.15-0.21l0.06-0.08l-0.74,0.19h-0.01l-0.37,0.1l-0.08,0.02l-0.3,0.08l0.43-0.61
		L50.84,14.7l-0.21,0.05L24.91,63.11l-0.08,1.22l-0.56,1.05v0.01l-0.01,0.01v0.01l-0.08,1.17l0.01-0.01l0.03-0.03l0.54-1.01
		l16.62-31.26l9.93-18.66l0.61-0.16l29.36-7.84l1.65-0.44l20.52-5.47l0.92-0.25l1.43-0.38L106.06,1h8.34L106.48,0.96z M147.05,17.42
		l-0.28,0.01l1.78,3.08L147.05,17.42z M146.64,9.29l-3.37,3.7l3.71-3.37L146.64,9.29z M143.47,17.6l0.01,0.14l2.8-0.28L143.47,17.6z
		 M138.32,1.13h-0.49l7.64,7.01L138.32,1.13z M143.21,13.06l-0.18,0.2l0.35,3.49L143.21,13.06z M106.48,0.96l-0.6-0.01h-0.68
		l0.15-0.21l0.06-0.08l-0.74,0.19h-0.01l-0.37,0.1l-0.08,0.02l-0.3,0.08l0.43-0.61L50.84,14.7l-0.21,0.05L24.91,63.11l-0.08,1.22
		l-0.56,1.05v0.01l-0.01,0.01v0.01l-0.08,1.17l0.01-0.01l0.03-0.03l0.54-1.01l16.62-31.26l9.93-18.66l0.61-0.16l29.36-7.84
		l1.65-0.44l20.52-5.47l0.92-0.25l1.43-0.38L106.06,1h8.34L106.48,0.96z M147.05,17.42l-0.28,0.01l1.78,3.08L147.05,17.42z
		 M146.64,9.29l-3.37,3.7l3.71-3.37L146.64,9.29z M143.47,17.6l0.01,0.14l2.8-0.28L143.47,17.6z M138.32,1.13h-0.49l7.64,7.01
		L138.32,1.13z M143.21,13.06l-0.18,0.2l0.35,3.49L143.21,13.06z M106.48,0.96l-0.6-0.01h-0.68l0.15-0.21l0.06-0.08l-0.74,0.19
		h-0.01l-0.37,0.1l-0.08,0.02l-0.3,0.08l0.43-0.61L50.84,14.7l-0.21,0.05L24.91,63.11l-0.08,1.22l-0.56,1.05v0.01l-0.01,0.01v0.01
		l-0.08,1.17l0.01-0.01l0.03-0.03l0.54-1.01l16.62-31.26l9.93-18.66l0.61-0.16l29.36-7.84l1.65-0.44l20.52-5.47l0.92-0.25l1.43-0.38
		L106.06,1h8.34L106.48,0.96z M147.05,17.42l-0.28,0.01l1.78,3.08L147.05,17.42z M146.64,9.29l-3.37,3.7l3.71-3.37L146.64,9.29z
		 M143.47,17.6l0.01,0.14l2.8-0.28L143.47,17.6z M138.32,1.13h-0.49l7.64,7.01L138.32,1.13z M143.21,13.06l-0.18,0.2l0.35,3.49
		L143.21,13.06z M106.48,0.96l-0.6-0.01h-0.68l0.15-0.21l0.06-0.08l-0.74,0.19h-0.01l-0.37,0.1l-0.08,0.02l-0.3,0.08l0.43-0.61
		L50.84,14.7l-0.21,0.05L24.91,63.11l-0.08,1.22l-0.56,1.05v0.01l-0.01,0.01v0.01l-0.08,1.17l0.01-0.01l0.03-0.03l0.54-1.01
		l16.62-31.26l9.93-18.66l0.61-0.16l29.36-7.84l1.65-0.44l20.52-5.47l0.92-0.25l1.43-0.38L106.06,1h8.34L106.48,0.96z M147.05,17.42
		l-0.28,0.01l1.78,3.08L147.05,17.42z M146.64,9.29l-3.37,3.7l3.71-3.37L146.64,9.29z M143.47,17.6l0.01,0.14l2.8-0.28L143.47,17.6z
		 M138.32,1.13h-0.49l7.64,7.01L138.32,1.13z M143.21,13.06l-0.18,0.2l0.35,3.49L143.21,13.06z M106.48,0.96l-0.6-0.01h-0.68
		l0.15-0.21l0.06-0.08l-0.74,0.19h-0.01l-0.37,0.1l-0.08,0.02l-0.3,0.08l0.43-0.61L50.84,14.7l-0.21,0.05L24.91,63.11l-0.08,1.22
		l-0.56,1.05v0.01l-0.01,0.01v0.01l-0.08,1.17l0.01-0.01l0.03-0.03l0.54-1.01l16.62-31.26l9.93-18.66l0.61-0.16l29.36-7.84
		l1.65-0.44l20.52-5.47l0.92-0.25l1.43-0.38L106.06,1h8.34L106.48,0.96z M147.05,17.42l-0.28,0.01l1.78,3.08L147.05,17.42z
		 M146.64,9.29l-3.37,3.7l3.71-3.37L146.64,9.29z M143.47,17.6l0.01,0.14l2.8-0.28L143.47,17.6z M138.32,1.13h-0.49l7.64,7.01
		L138.32,1.13z M143.21,13.06l-0.18,0.2l0.35,3.49L143.21,13.06z M106.48,0.96l-0.6-0.01h-0.68l0.15-0.21l0.06-0.08l-0.74,0.19
		h-0.01l-0.37,0.1l-0.08,0.02l-0.3,0.08l0.43-0.61L50.84,14.7l-0.21,0.05L24.91,63.11l-0.08,1.22l-0.56,1.05v0.01l-0.01,0.01v0.01
		l-0.08,1.17l0.01-0.01l0.03-0.03l0.54-1.01l16.62-31.26l9.93-18.66l0.61-0.16l29.36-7.84l1.65-0.44l20.52-5.47l0.92-0.25l1.43-0.38
		L106.06,1h8.34L106.48,0.96z M147.05,17.42l-0.28,0.01l1.78,3.08L147.05,17.42z M146.64,9.29l-3.37,3.7l3.71-3.37L146.64,9.29z
		 M143.47,17.6l0.01,0.14l2.8-0.28L143.47,17.6z M138.32,1.13h-0.49l7.64,7.01L138.32,1.13z M143.21,13.06l-0.18,0.2l0.35,3.49
		L143.21,13.06z M106.48,0.96l-0.6-0.01h-0.68l0.15-0.21l0.06-0.08l-0.74,0.19h-0.01l-0.37,0.1l-0.08,0.02l-0.3,0.08l0.43-0.61
		L50.84,14.7l-0.21,0.05L24.91,63.11l-0.08,1.22l-0.56,1.05v0.01l-0.01,0.01v0.01l-0.08,1.17l0.01-0.01l0.03-0.03l0.54-1.01
		l16.62-31.26l9.93-18.66l0.61-0.16l29.36-7.84l1.65-0.44l20.52-5.47l0.92-0.25l1.43-0.38L106.06,1h8.34L106.48,0.96z M147.05,17.42
		l-0.28,0.01l1.78,3.08L147.05,17.42z M146.64,9.29l-3.37,3.7l3.71-3.37L146.64,9.29z M143.47,17.6l0.01,0.14l2.8-0.28L143.47,17.6z
		 M138.32,1.13h-0.49l7.64,7.01L138.32,1.13z M143.21,13.06l-0.18,0.2l0.35,3.49L143.21,13.06z M106.48,0.96l-0.6-0.01h-0.68
		l0.15-0.21l0.06-0.08l-0.74,0.19h-0.01l-0.37,0.1l-0.08,0.02l-0.3,0.08l0.43-0.61L50.84,14.7l-0.21,0.05L24.91,63.11l-0.08,1.22
		l-0.56,1.05v0.01l-0.01,0.01v0.01l-0.08,1.17l0.01-0.01l0.03-0.03l0.54-1.01l16.62-31.26l9.93-18.66l0.61-0.16l29.36-7.84
		l1.65-0.44l20.52-5.47l0.92-0.25l1.43-0.38L106.06,1h8.34L106.48,0.96z M147.05,17.42l-0.28,0.01l1.78,3.08L147.05,17.42z
		 M146.64,9.29l-3.37,3.7l3.71-3.37L146.64,9.29z M143.47,17.6l0.01,0.14l2.8-0.28L143.47,17.6z M138.32,1.13h-0.49l7.64,7.01
		L138.32,1.13z M143.21,13.06l-0.18,0.2l0.35,3.49L143.21,13.06z M106.48,0.96l-0.6-0.01h-0.68l0.15-0.21l0.06-0.08l-0.74,0.19
		h-0.01l-0.37,0.1l-0.08,0.02l-0.3,0.08l0.43-0.61L50.84,14.7l-0.21,0.05L24.91,63.11l-0.08,1.22l-0.56,1.05v0.01l-0.01,0.01v0.01
		l-0.08,1.17l0.01-0.01l0.03-0.03l0.54-1.01l16.62-31.26l9.93-18.66l0.61-0.16l29.36-7.84l1.65-0.44l20.52-5.47l0.92-0.25l1.43-0.38
		L106.06,1h8.34L106.48,0.96z M147.05,17.42l-0.28,0.01l1.78,3.08L147.05,17.42z M146.64,9.29l-3.37,3.7l3.71-3.37L146.64,9.29z
		 M143.47,17.6l0.01,0.14l2.8-0.28L143.47,17.6z M138.32,1.13h-0.49l7.64,7.01L138.32,1.13z M143.21,13.06l-0.18,0.2l0.35,3.49
		L143.21,13.06z M106.48,0.96l-0.6-0.01h-0.68l0.15-0.21l0.06-0.08l-0.74,0.19h-0.01l-0.37,0.1l-0.08,0.02l-0.3,0.08l0.43-0.61
		L50.84,14.7l-0.21,0.05L24.91,63.11l-0.08,1.22l-0.56,1.05v0.01l-0.01,0.01v0.01l-0.08,1.17l0.01-0.01l0.03-0.03l0.54-1.01
		l16.62-31.26l9.93-18.66l0.61-0.16l29.36-7.84l1.65-0.44l20.52-5.47l0.92-0.25l1.43-0.38L106.06,1h8.34L106.48,0.96z M147.05,17.42
		l-0.28,0.01l1.78,3.08L147.05,17.42z M146.64,9.29l-3.37,3.7l3.71-3.37L146.64,9.29z M143.47,17.6l0.01,0.14l2.8-0.28L143.47,17.6z
		 M138.32,1.13h-0.49l7.64,7.01L138.32,1.13z M143.21,13.06l-0.18,0.2l0.35,3.49L143.21,13.06z M106.48,0.96l-0.6-0.01h-0.68
		l0.15-0.21l0.06-0.08l-0.74,0.19h-0.01l-0.37,0.1l-0.08,0.02l-0.3,0.08l0.43-0.61L50.84,14.7l-0.21,0.05L24.91,63.11l-0.08,1.22
		l-0.56,1.05v0.01l-0.01,0.01v0.01l-0.08,1.17l0.01-0.01l0.03-0.03l0.54-1.01l16.62-31.26l9.93-18.66l0.61-0.16l29.36-7.84
		l1.65-0.44l20.52-5.47l0.92-0.25l1.43-0.38L106.06,1h8.34L106.48,0.96z M147.05,17.42l-0.28,0.01l1.78,3.08L147.05,17.42z
		 M146.64,9.29l-3.37,3.7l3.71-3.37L146.64,9.29z M143.47,17.6l0.01,0.14l2.8-0.28L143.47,17.6z M138.32,1.13h-0.49l7.64,7.01
		L138.32,1.13z M143.21,13.06l-0.18,0.2l0.35,3.49L143.21,13.06z M106.48,0.96l-0.6-0.01h-0.68l0.15-0.21l0.06-0.08l-0.74,0.19
		h-0.01l-0.37,0.1l-0.08,0.02l-0.3,0.08l0.43-0.61L50.84,14.7l-0.21,0.05L24.91,63.11l-0.08,1.22l-0.56,1.05v0.01l-0.01,0.01v0.01
		l-0.08,1.17l0.01-0.01l0.03-0.03l0.54-1.01l16.62-31.26l9.93-18.66l0.61-0.16l29.36-7.84l1.65-0.44l20.52-5.47l0.92-0.25l1.43-0.38
		L106.06,1h8.34L106.48,0.96z M147.05,17.42l-0.28,0.01l1.78,3.08L147.05,17.42z M146.64,9.29l-3.37,3.7l3.71-3.37L146.64,9.29z
		 M143.47,17.6l0.01,0.14l2.8-0.28L143.47,17.6z M138.32,1.13h-0.49l7.64,7.01L138.32,1.13z M143.21,13.06l-0.18,0.2l0.35,3.49
		L143.21,13.06z M106.48,0.96l-0.6-0.01h-0.68l0.15-0.21l0.06-0.08l-0.74,0.19h-0.01l-0.37,0.1l-0.08,0.02l-0.3,0.08l0.43-0.61
		L50.84,14.7l-0.21,0.05L24.91,63.11l-0.08,1.22l-0.56,1.05v0.01l-0.01,0.01v0.01l-0.08,1.17l0.01-0.01l0.03-0.03l0.54-1.01
		l16.62-31.26l9.93-18.66l0.61-0.16l29.36-7.84l1.65-0.44l20.52-5.47l0.92-0.25l1.43-0.38L106.06,1h8.34L106.48,0.96z M147.05,17.42
		l-0.28,0.01l1.78,3.08L147.05,17.42z M146.64,9.29l-3.37,3.7l3.71-3.37L146.64,9.29z M143.47,17.6l0.01,0.14l2.8-0.28L143.47,17.6z
		 M138.32,1.13h-0.49l7.64,7.01L138.32,1.13z M143.21,13.06l-0.18,0.2l0.35,3.49L143.21,13.06z M106.48,0.96l-0.6-0.01h-0.68
		l0.15-0.21l0.06-0.08l-0.74,0.19h-0.01l-0.37,0.1l-0.08,0.02l-0.3,0.08l0.43-0.61L50.84,14.7l-0.21,0.05L24.91,63.11l-0.08,1.22
		l-0.56,1.05v0.01l-0.01,0.01v0.01l-0.08,1.17l0.01-0.01l0.03-0.03l0.54-1.01l16.62-31.26l9.93-18.66l0.61-0.16l29.36-7.84
		l1.65-0.44l20.52-5.47l0.92-0.25l1.43-0.38L106.06,1h8.34L106.48,0.96z M147.05,17.42l-0.28,0.01l1.78,3.08L147.05,17.42z
		 M146.64,9.29l-3.37,3.7l3.71-3.37L146.64,9.29z M143.47,17.6l0.01,0.14l2.8-0.28L143.47,17.6z M138.32,1.13h-0.49l7.64,7.01
		L138.32,1.13z M143.21,13.06l-0.18,0.2l0.35,3.49L143.21,13.06z M106.48,0.96l-0.6-0.01h-0.68l0.15-0.21l0.06-0.08l-0.74,0.19
		h-0.01l-0.37,0.1l-0.08,0.02l-0.3,0.08l0.43-0.61L50.84,14.7l-0.21,0.05L24.91,63.11l-0.08,1.22l-0.56,1.05v0.01l-0.01,0.01v0.01
		l-0.08,1.17l0.01-0.01l0.03-0.03l0.54-1.01l16.62-31.26l9.93-18.66l0.61-0.16l29.36-7.84l1.65-0.44l20.52-5.47l0.92-0.25l1.43-0.38
		L106.06,1h8.34L106.48,0.96z M147.05,17.42l-0.28,0.01l1.78,3.08L147.05,17.42z M146.64,9.29l-3.37,3.7l3.71-3.37L146.64,9.29z
		 M143.47,17.6l0.01,0.14l2.8-0.28L143.47,17.6z M138.32,1.13h-0.49l7.64,7.01L138.32,1.13z M143.21,13.06l-0.18,0.2l0.35,3.49
		L143.21,13.06z M106.48,0.96l-0.6-0.01h-0.68l0.15-0.21l0.06-0.08l-0.74,0.19h-0.01l-0.37,0.1l-0.08,0.02l-0.3,0.08l0.43-0.61
		L50.84,14.7l-0.21,0.05L24.91,63.11l-0.08,1.22l-0.56,1.05v0.01l-0.01,0.01v0.01l-0.08,1.17l0.01-0.01l0.03-0.03l0.54-1.01
		l16.62-31.26l9.93-18.66l0.61-0.16l29.36-7.84l1.65-0.44l20.52-5.47l0.92-0.25l1.43-0.38L106.06,1h8.34L106.48,0.96z M147.05,17.42
		l-0.28,0.01l1.78,3.08L147.05,17.42z M146.64,9.29l-3.37,3.7l3.71-3.37L146.64,9.29z M143.47,17.6l0.01,0.14l2.8-0.28L143.47,17.6z
		 M138.32,1.13h-0.49l7.64,7.01L138.32,1.13z M143.21,13.06l-0.18,0.2l0.35,3.49L143.21,13.06z M106.48,0.96l-0.6-0.01h-0.68
		l0.15-0.21l0.06-0.08l-0.74,0.19h-0.01l-0.37,0.1l-0.08,0.02l-0.3,0.08l0.43-0.61L50.84,14.7l-0.21,0.05L24.91,63.11l-0.08,1.22
		l-0.56,1.05v0.01l-0.01,0.01v0.01l-0.08,1.17l0.01-0.01l0.03-0.03l0.54-1.01l16.62-31.26l9.93-18.66l0.61-0.16l29.36-7.84
		l1.65-0.44l20.52-5.47l0.92-0.25l1.43-0.38L106.06,1h8.34L106.48,0.96z M147.05,17.42l-0.28,0.01l1.78,3.08L147.05,17.42z
		 M146.64,9.29l-3.37,3.7l3.71-3.37L146.64,9.29z M143.47,17.6l0.01,0.14l2.8-0.28L143.47,17.6z M138.32,1.13h-0.49l7.64,7.01
		L138.32,1.13z M143.21,13.06l-0.18,0.2l0.35,3.49L143.21,13.06z M106.48,0.96l-0.6-0.01h-0.68l0.15-0.21l0.06-0.08l-0.74,0.19
		h-0.01l-0.37,0.1l-0.08,0.02l-0.3,0.08l0.43-0.61L50.84,14.7l-0.21,0.05L24.91,63.11l-0.08,1.22l-0.56,1.05v0.01l-0.01,0.01v0.01
		l-0.08,1.17l0.01-0.01l0.03-0.03l0.54-1.01l16.62-31.26l9.93-18.66l0.61-0.16l29.36-7.84l1.65-0.44l20.52-5.47l0.92-0.25l1.43-0.38
		L106.06,1h8.34L106.48,0.96z M147.05,17.42l-0.28,0.01l1.78,3.08L147.05,17.42z M146.64,9.29l-3.37,3.7l3.71-3.37L146.64,9.29z
		 M143.47,17.6l0.01,0.14l2.8-0.28L143.47,17.6z M138.32,1.13h-0.49l7.64,7.01L138.32,1.13z M143.21,13.06l-0.18,0.2l0.35,3.49
		L143.21,13.06z M106.48,0.96l-0.6-0.01h-0.68l0.15-0.21l0.06-0.08l-0.74,0.19h-0.01l-0.37,0.1l-0.08,0.02l-0.3,0.08l0.43-0.61
		L50.84,14.7l-0.21,0.05L24.91,63.11l-0.08,1.22l-0.56,1.05v0.01l-0.01,0.01v0.01l-0.08,1.17l0.01-0.01l0.03-0.03l0.54-1.01
		l16.62-31.26l9.93-18.66l0.61-0.16l29.36-7.84l1.65-0.44l20.52-5.47l0.92-0.25l1.43-0.38L106.06,1h8.34L106.48,0.96z M147.05,17.42
		l-0.28,0.01l1.78,3.08L147.05,17.42z M146.64,9.29l-3.37,3.7l3.71-3.37L146.64,9.29z M143.47,17.6l0.01,0.14l2.8-0.28L143.47,17.6z
		 M138.32,1.13h-0.49l7.64,7.01L138.32,1.13z M143.21,13.06l-0.18,0.2l0.35,3.49L143.21,13.06z M106.48,0.96l-0.6-0.01l-0.08,0.12
		L106.06,1h8.34L106.48,0.96z M147.05,17.42l-0.28,0.01l1.78,3.08L147.05,17.42z M146.98,9.62l-0.34-0.33l-3.37,3.7L146.98,9.62z
		 M143.48,17.74l2.8-0.28l-2.81,0.14L143.48,17.74z M138.32,1.13h-0.49l7.64,7.01L138.32,1.13z M143.03,13.26l0.35,3.49l-0.17-3.69
		L143.03,13.26z M105.88,0.95l-0.08,0.12L106.06,1h8.34l-7.92-0.04L105.88,0.95z M168.2,56.8l-9.1-5.09l7.19-2.98l0.43-8.31
		l-10.88-8.29l0.66-7.69l0.05-0.63V23.8l0.03-0.32l-0.35-0.07l-5.49-1.1l-3.43-5.96l-2.94,0.29l-0.3-3.03l4.02-4.42L138.08,0h-32.09
		l-0.09,0.02l-0.05,0.02l-0.75,0.2l-0.76,0.2L50.84,14.7l-0.21,0.05L24.91,63.11l-0.57,1.08l-0.01,0.01l-0.55,1.04l-0.01,0.02
		l-0.14,0.26l-0.35-0.27L10.13,55.16L9.31,72.28L0,93.23l20.29,19.4l2.16,4.66l0.18,0.39l0.24,0.13l0.01,0.01h0.01l1.11,0.59
		l61.74,32.79l11.23-24.1l13.05-9.29l29.32,3.85l10.45,7.6l8.69-12.45l5.12-35.65l0.02-0.16l-6.31-11.31L168.2,56.8z M139.72,120.7
		l-29.96-3.93l-13.58,9.67l-10.9,23.38l-61.14-32.48l-0.72-0.38l-0.02-0.01l-2.24-4.82L4.51,96.17l-0.14-0.14L4.23,95.9L1.3,93.09
		L1.2,93l9.07-20.4l0.74-14.84l0.03-0.65l0.01,0.01l12.17,9.34l0.48,0.37l0.26,0.2l0.22-0.42v-0.03l0.01-0.01l0.03-0.03l0.54-1.01
		l16.62-31.26l9.93-18.66l0.61-0.16l29.36-7.84l1.65-0.44l20.52-5.47l0.92-0.25l1.43-0.38L106.06,1h31.63l0.14,0.13l7.64,7.01
		l1.21,1.11l-0.04,0.04l-3.37,3.7l-0.06,0.06v0.01l-0.18,0.2l0.35,3.49l0.09,0.85l0.01,0.14l2.8-0.28l0.48-0.05l0.01,0.02l1.78,3.08
		l1.5,2.6l0.05,0.09l5.41,1.08l-0.02,0.23l-0.05,0.64l-0.64,7.44l10.9,8.3l-0.38,7.16l-8.51,3.53l9.84,5.51L156.1,69.57l6.49,11.62
		l-5.06,35.24l-7.98,11.42L139.72,120.7z M106.48,0.96l-0.6-0.01l-0.08,0.12L106.06,1h8.34L106.48,0.96z M143.21,13.06l-0.18,0.2
		l0.35,3.49L143.21,13.06z M138.32,1.13h-0.49l7.64,7.01L138.32,1.13z M143.47,17.6l0.01,0.14l2.8-0.28L143.47,17.6z M146.64,9.29
		l-3.37,3.7l3.71-3.37L146.64,9.29z M147.05,17.42l-0.28,0.01l1.78,3.08L147.05,17.42z M106.48,0.96l-0.6-0.01l-0.08,0.12L106.06,1
		h8.34L106.48,0.96z M143.21,13.06l-0.18,0.2l0.35,3.49L143.21,13.06z M138.32,1.13h-0.49l7.64,7.01L138.32,1.13z M143.47,17.6
		l0.01,0.14l2.8-0.28L143.47,17.6z M146.64,9.29l-3.37,3.7l3.71-3.37L146.64,9.29z M147.05,17.42l-0.28,0.01l1.78,3.08L147.05,17.42
		z M106.48,0.96l-0.6-0.01h-0.68l0.15-0.21l0.06-0.08l-0.74,0.19h-0.01l-0.37,0.1l-0.08,0.02l-0.3,0.08l0.43-0.61L50.84,14.7
		l-0.21,0.05L24.91,63.11l-0.08,1.22l-0.56,1.05v0.01l-0.01,0.01v0.01l-0.08,1.17l0.01-0.01l0.03-0.03l0.54-1.01l16.62-31.26
		l9.93-18.66l0.61-0.16l29.36-7.84l1.65-0.44l20.52-5.47l0.92-0.25l1.43-0.38L106.06,1h8.34L106.48,0.96z M143.21,13.06l-0.18,0.2
		l0.35,3.49L143.21,13.06z M138.32,1.13h-0.49l7.64,7.01L138.32,1.13z M143.47,17.6l0.01,0.14l2.8-0.28L143.47,17.6z M146.64,9.29
		l-3.37,3.7l3.71-3.37L146.64,9.29z M147.05,17.42l-0.28,0.01l1.78,3.08L147.05,17.42z M106.48,0.96l-0.6-0.01h-0.68l0.15-0.21
		l0.06-0.08l-0.74,0.19h-0.01l-0.37,0.1l-0.08,0.02l-0.3,0.08l0.43-0.61L50.84,14.7l-0.21,0.05L24.91,63.11l-0.08,1.22l-0.56,1.05
		v0.01l-0.01,0.01v0.01l-0.08,1.17l0.01-0.01l0.03-0.03l0.54-1.01l16.62-31.26l9.93-18.66l0.61-0.16l29.36-7.84l1.65-0.44
		l20.52-5.47l0.92-0.25l1.43-0.38L106.06,1h8.34L106.48,0.96z M143.21,13.06l-0.18,0.2l0.35,3.49L143.21,13.06z M138.32,1.13h-0.49
		l7.64,7.01L138.32,1.13z M143.47,17.6l0.01,0.14l2.8-0.28L143.47,17.6z M146.64,9.29l-3.37,3.7l3.71-3.37L146.64,9.29z
		 M147.05,17.42l-0.28,0.01l1.78,3.08L147.05,17.42z M106.48,0.96l-0.6-0.01h-0.68l0.15-0.21l0.06-0.08l-0.74,0.19h-0.01l-0.37,0.1
		l-0.08,0.02l-0.3,0.08l0.43-0.61L50.84,14.7l-0.21,0.05L24.91,63.11l-0.08,1.22l-0.56,1.05v0.01l-0.01,0.01v0.01l-0.08,1.17
		l0.01-0.01l0.03-0.03l0.54-1.01l16.62-31.26l9.93-18.66l0.61-0.16l29.36-7.84l1.65-0.44l20.52-5.47l0.92-0.25l1.43-0.38L106.06,1
		h8.34L106.48,0.96z M143.21,13.06l-0.18,0.2l0.35,3.49L143.21,13.06z M138.32,1.13h-0.49l7.64,7.01L138.32,1.13z M143.47,17.6
		l0.01,0.14l2.8-0.28L143.47,17.6z M146.64,9.29l-3.37,3.7l3.71-3.37L146.64,9.29z M147.05,17.42l-0.28,0.01l1.78,3.08L147.05,17.42
		z M106.48,0.96l-0.6-0.01h-0.68l0.15-0.21l0.06-0.08l-0.74,0.19h-0.01l-0.37,0.1l-0.08,0.02l-0.3,0.08l0.43-0.61L50.84,14.7
		l-0.21,0.05L24.91,63.11l-0.08,1.22l-0.56,1.05v0.01l-0.01,0.01v0.01l-0.08,1.17l0.01-0.01l0.03-0.03l0.54-1.01l16.62-31.26
		l9.93-18.66l0.61-0.16l29.36-7.84l1.65-0.44l20.52-5.47l0.92-0.25l1.43-0.38L106.06,1h8.34L106.48,0.96z M143.21,13.06l-0.18,0.2
		l0.35,3.49L143.21,13.06z M138.32,1.13h-0.49l7.64,7.01L138.32,1.13z M143.47,17.6l0.01,0.14l2.8-0.28L143.47,17.6z M146.64,9.29
		l-3.37,3.7l3.71-3.37L146.64,9.29z M147.05,17.42l-0.28,0.01l1.78,3.08L147.05,17.42z M106.48,0.96l-0.6-0.01h-0.68l0.15-0.21
		l0.06-0.08l-0.74,0.19h-0.01l-0.37,0.1l-0.08,0.02l-0.3,0.08l0.43-0.61L50.84,14.7l-0.21,0.05L24.91,63.11l-0.08,1.22l-0.56,1.05
		v0.01l-0.01,0.01v0.01l-0.08,1.17l0.01-0.01l0.03-0.03l0.54-1.01l16.62-31.26l9.93-18.66l0.61-0.16l29.36-7.84l1.65-0.44
		l20.52-5.47l0.92-0.25l1.43-0.38L106.06,1h8.34L106.48,0.96z M143.21,13.06l-0.18,0.2l0.35,3.49L143.21,13.06z M138.32,1.13h-0.49
		l7.64,7.01L138.32,1.13z M143.47,17.6l0.01,0.14l2.8-0.28L143.47,17.6z M146.64,9.29l-3.37,3.7l3.71-3.37L146.64,9.29z
		 M147.05,17.42l-0.28,0.01l1.78,3.08L147.05,17.42z M106.48,0.96l-0.6-0.01h-0.68l0.15-0.21l0.06-0.08l-0.74,0.19h-0.01l-0.37,0.1
		l-0.08,0.02l-0.3,0.08l0.43-0.61L50.84,14.7l-0.21,0.05L24.91,63.11l-0.08,1.22l-0.56,1.05v0.01l-0.01,0.01v0.01l-0.08,1.17
		l0.01-0.01l0.03-0.03l0.54-1.01l16.62-31.26l9.93-18.66l0.61-0.16l29.36-7.84l1.65-0.44l20.52-5.47l0.92-0.25l1.43-0.38L106.06,1
		h8.34L106.48,0.96z M143.21,13.06l-0.18,0.2l0.35,3.49L143.21,13.06z M138.32,1.13h-0.49l7.64,7.01L138.32,1.13z M143.47,17.6
		l0.01,0.14l2.8-0.28L143.47,17.6z M146.64,9.29l-3.37,3.7l3.71-3.37L146.64,9.29z M147.05,17.42l-0.28,0.01l1.78,3.08L147.05,17.42
		z M106.48,0.96l-0.6-0.01h-0.68l0.15-0.21l0.06-0.08l-0.74,0.19h-0.01l-0.37,0.1l-0.08,0.02l-0.3,0.08l0.43-0.61L50.84,14.7
		l-0.21,0.05L24.91,63.11l-0.08,1.22l-0.56,1.05v0.01l-0.01,0.01v0.01l-0.08,1.17l0.01-0.01l0.03-0.03l0.54-1.01l16.62-31.26
		l9.93-18.66l0.61-0.16l29.36-7.84l1.65-0.44l20.52-5.47l0.92-0.25l1.43-0.38L106.06,1h8.34L106.48,0.96z M143.21,13.06l-0.18,0.2
		l0.35,3.49L143.21,13.06z M138.32,1.13h-0.49l7.64,7.01L138.32,1.13z M143.47,17.6l0.01,0.14l2.8-0.28L143.47,17.6z M146.64,9.29
		l-3.37,3.7l3.71-3.37L146.64,9.29z M147.05,17.42l-0.28,0.01l1.78,3.08L147.05,17.42z M106.48,0.96l-0.6-0.01h-0.68l0.15-0.21
		l0.06-0.08l-0.74,0.19h-0.01l-0.37,0.1l-0.08,0.02l-0.3,0.08l0.43-0.61L50.84,14.7l-0.21,0.05L24.91,63.11l-0.08,1.22l-0.56,1.05
		v0.01l-0.01,0.01v0.01l-0.08,1.17l0.01-0.01l0.03-0.03l0.54-1.01l16.62-31.26l9.93-18.66l0.61-0.16l29.36-7.84l1.65-0.44
		l20.52-5.47l0.92-0.25l1.43-0.38L106.06,1h8.34L106.48,0.96z M143.21,13.06l-0.18,0.2l0.35,3.49L143.21,13.06z M138.32,1.13h-0.49
		l7.64,7.01L138.32,1.13z M143.47,17.6l0.01,0.14l2.8-0.28L143.47,17.6z M146.64,9.29l-3.37,3.7l3.71-3.37L146.64,9.29z
		 M147.05,17.42l-0.28,0.01l1.78,3.08L147.05,17.42z M106.48,0.96l-0.6-0.01h-0.68l0.15-0.21l0.06-0.08l-0.74,0.19h-0.01l-0.37,0.1
		l-0.08,0.02l-0.3,0.08l0.43-0.61L50.84,14.7l-0.21,0.05L24.91,63.11l-0.08,1.22l-0.56,1.05v0.01l-0.01,0.01v0.01l-0.08,1.17
		l0.01-0.01l0.03-0.03l0.54-1.01l16.62-31.26l9.93-18.66l0.61-0.16l29.36-7.84l1.65-0.44l20.52-5.47l0.92-0.25l1.43-0.38L106.06,1
		h8.34L106.48,0.96z M143.21,13.06l-0.18,0.2l0.35,3.49L143.21,13.06z M138.32,1.13h-0.49l7.64,7.01L138.32,1.13z M143.47,17.6
		l0.01,0.14l2.8-0.28L143.47,17.6z M146.64,9.29l-3.37,3.7l3.71-3.37L146.64,9.29z M147.05,17.42l-0.28,0.01l1.78,3.08L147.05,17.42
		z M106.48,0.96l-0.6-0.01h-0.68l0.15-0.21l0.06-0.08l-0.74,0.19h-0.01l-0.37,0.1l-0.08,0.02l-0.3,0.08l0.43-0.61L50.84,14.7
		l-0.21,0.05L24.91,63.11l-0.08,1.22l-0.56,1.05v0.01l-0.01,0.01v0.01l-0.08,1.17l0.01-0.01l0.03-0.03l0.54-1.01l16.62-31.26
		l9.93-18.66l0.61-0.16l29.36-7.84l1.65-0.44l20.52-5.47l0.92-0.25l1.43-0.38L106.06,1h8.34L106.48,0.96z M143.21,13.06l-0.18,0.2
		l0.35,3.49L143.21,13.06z M138.32,1.13h-0.49l7.64,7.01L138.32,1.13z M143.47,17.6l0.01,0.14l2.8-0.28L143.47,17.6z M146.64,9.29
		l-3.37,3.7l3.71-3.37L146.64,9.29z M147.05,17.42l-0.28,0.01l1.78,3.08L147.05,17.42z M106.48,0.96l-0.6-0.01h-0.68l0.15-0.21
		l0.06-0.08l-0.74,0.19h-0.01l-0.37,0.1l-0.08,0.02l-0.3,0.08l0.43-0.61L50.84,14.7l-0.21,0.05L24.91,63.11l-0.08,1.22l-0.56,1.05
		v0.01l-0.01,0.01v0.01l-0.08,1.17l0.01-0.01l0.03-0.03l0.54-1.01l16.62-31.26l9.93-18.66l0.61-0.16l29.36-7.84l1.65-0.44
		l20.52-5.47l0.92-0.25l1.43-0.38L106.06,1h8.34L106.48,0.96z M143.21,13.06l-0.18,0.2l0.35,3.49L143.21,13.06z M138.32,1.13h-0.49
		l7.64,7.01L138.32,1.13z M143.47,17.6l0.01,0.14l2.8-0.28L143.47,17.6z M146.64,9.29l-3.37,3.7l3.71-3.37L146.64,9.29z
		 M147.05,17.42l-0.28,0.01l1.78,3.08L147.05,17.42z M106.48,0.96l-0.6-0.01h-0.68l0.15-0.21l0.06-0.08l-0.74,0.19h-0.01l-0.37,0.1
		l-0.08,0.02l-0.3,0.08l0.43-0.61L50.84,14.7l-0.21,0.05L24.91,63.11l-0.08,1.22l-0.56,1.05v0.01l-0.01,0.01v0.01l-0.08,1.17
		l0.01-0.01l0.03-0.03l0.54-1.01l16.62-31.26l9.93-18.66l0.61-0.16l29.36-7.84l1.65-0.44l20.52-5.47l0.92-0.25l1.43-0.38L106.06,1
		h8.34L106.48,0.96z M143.21,13.06l-0.18,0.2l0.35,3.49L143.21,13.06z M138.32,1.13h-0.49l7.64,7.01L138.32,1.13z M143.47,17.6
		l0.01,0.14l2.8-0.28L143.47,17.6z M146.64,9.29l-3.37,3.7l3.71-3.37L146.64,9.29z M147.05,17.42l-0.28,0.01l1.78,3.08L147.05,17.42
		z M106.48,0.96l-0.6-0.01h-0.68l0.15-0.21l0.06-0.08l-0.74,0.19h-0.01l-0.37,0.1l-0.08,0.02l-0.3,0.08l0.43-0.61L50.84,14.7
		l-0.21,0.05L24.91,63.11l-0.08,1.22l-0.56,1.05v0.01l-0.01,0.01v0.01l-0.08,1.17l0.01-0.01l0.03-0.03l0.54-1.01l16.62-31.26
		l9.93-18.66l0.61-0.16l29.36-7.84l1.65-0.44l20.52-5.47l0.92-0.25l1.43-0.38L106.06,1h8.34L106.48,0.96z M143.21,13.06l-0.18,0.2
		l0.35,3.49L143.21,13.06z M138.32,1.13h-0.49l7.64,7.01L138.32,1.13z M143.47,17.6l0.01,0.14l2.8-0.28L143.47,17.6z M146.64,9.29
		l-3.37,3.7l3.71-3.37L146.64,9.29z M147.05,17.42l-0.28,0.01l1.78,3.08L147.05,17.42z M106.48,0.96l-0.6-0.01h-0.68l0.15-0.21
		l0.06-0.08l-0.74,0.19h-0.01l-0.37,0.1l-0.08,0.02l-0.3,0.08l0.43-0.61L50.84,14.7l-0.21,0.05L24.91,63.11l-0.08,1.22l-0.56,1.05
		v0.01l-0.01,0.01v0.01l-0.08,1.17l0.01-0.01l0.03-0.03l0.54-1.01l16.62-31.26l9.93-18.66l0.61-0.16l29.36-7.84l1.65-0.44
		l20.52-5.47l0.92-0.25l1.43-0.38L106.06,1h8.34L106.48,0.96z M143.21,13.06l-0.18,0.2l0.35,3.49L143.21,13.06z M138.32,1.13h-0.49
		l7.64,7.01L138.32,1.13z M143.47,17.6l0.01,0.14l2.8-0.28L143.47,17.6z M146.64,9.29l-3.37,3.7l3.71-3.37L146.64,9.29z
		 M147.05,17.42l-0.28,0.01l1.78,3.08L147.05,17.42z M106.48,0.96l-0.6-0.01h-0.68l0.15-0.21l0.06-0.08l-0.74,0.19h-0.01l-0.37,0.1
		l-0.08,0.02l-0.3,0.08l0.43-0.61L50.84,14.7l-0.21,0.05L24.91,63.11l-0.08,1.22l-0.56,1.05v0.01l-0.01,0.01v0.01l-0.08,1.17
		l0.01-0.01l0.03-0.03l0.54-1.01l16.62-31.26l9.93-18.66l0.61-0.16l29.36-7.84l1.65-0.44l20.52-5.47l0.92-0.25l1.43-0.38L106.06,1
		h8.34L106.48,0.96z M143.21,13.06l-0.18,0.2l0.35,3.49L143.21,13.06z M138.32,1.13h-0.49l7.64,7.01L138.32,1.13z M143.47,17.6
		l0.01,0.14l2.8-0.28L143.47,17.6z M146.64,9.29l-3.37,3.7l3.71-3.37L146.64,9.29z M147.05,17.42l-0.28,0.01l1.78,3.08L147.05,17.42
		z M106.48,0.96l-0.6-0.01h-0.68l0.15-0.21l0.06-0.08l-0.74,0.19h-0.01l-0.37,0.1l-0.08,0.02l-0.3,0.08l0.43-0.61L50.84,14.7
		l-0.21,0.05L24.91,63.11l-0.08,1.22l-0.56,1.05v0.01l-0.01,0.01v0.01l-0.08,1.17l0.01-0.01l0.03-0.03l0.54-1.01l16.62-31.26
		l9.93-18.66l0.61-0.16l29.36-7.84l1.65-0.44l20.52-5.47l0.92-0.25l1.43-0.38L106.06,1h8.34L106.48,0.96z M143.21,13.06l-0.18,0.2
		l0.35,3.49L143.21,13.06z M138.32,1.13h-0.49l7.64,7.01L138.32,1.13z M143.47,17.6l0.01,0.14l2.8-0.28L143.47,17.6z M146.64,9.29
		l-3.37,3.7l3.71-3.37L146.64,9.29z M147.05,17.42l-0.28,0.01l1.78,3.08L147.05,17.42z M106.48,0.96l-0.6-0.01h-0.68l0.15-0.21
		l0.06-0.08l-0.74,0.19h-0.01l-0.37,0.1l-0.08,0.02l-0.3,0.08l0.43-0.61L50.84,14.7l-0.21,0.05L24.91,63.11l-0.08,1.22l-0.56,1.05
		v0.01l-0.01,0.01v0.01l-0.08,1.17l0.01-0.01l0.03-0.03l0.54-1.01l16.62-31.26l9.93-18.66l0.61-0.16l29.36-7.84l1.65-0.44
		l20.52-5.47l0.92-0.25l1.43-0.38L106.06,1h8.34L106.48,0.96z M143.21,13.06l-0.18,0.2l0.35,3.49L143.21,13.06z M138.32,1.13h-0.49
		l7.64,7.01L138.32,1.13z M143.47,17.6l0.01,0.14l2.8-0.28L143.47,17.6z M146.64,9.29l-3.37,3.7l3.71-3.37L146.64,9.29z
		 M147.05,17.42l-0.28,0.01l1.78,3.08L147.05,17.42z M106.48,0.96l-0.6-0.01h-0.68l0.15-0.21l0.06-0.08l-0.74,0.19h-0.01l-0.37,0.1
		l-0.08,0.02l-0.3,0.08l0.43-0.61L50.84,14.7l-0.21,0.05L24.91,63.11l-0.08,1.22l-0.56,1.05v0.01l-0.01,0.01v0.01l-0.08,1.17
		l0.01-0.01l0.03-0.03l0.54-1.01l16.62-31.26l9.93-18.66l0.61-0.16l29.36-7.84l1.65-0.44l20.52-5.47l0.92-0.25l1.43-0.38L106.06,1
		h8.34L106.48,0.96z M143.21,13.06l-0.18,0.2l0.35,3.49L143.21,13.06z M138.32,1.13h-0.49l7.64,7.01L138.32,1.13z M143.47,17.6
		l0.01,0.14l2.8-0.28L143.47,17.6z M146.64,9.29l-3.37,3.7l3.71-3.37L146.64,9.29z M147.05,17.42l-0.28,0.01l1.78,3.08L147.05,17.42
		z"/>
</g>
</svg>
