<?xml version="1.0" encoding="utf-8"?>
<!-- Generator: Adobe Illustrator 24.0.0, SVG Export Plug-In . SVG Version: 6.00 Build 0)  -->
<svg version="1.1" id="_x2014_ÎÓÈ_x5F_1" xmlns="http://www.w3.org/2000/svg" xmlns:xlink="http://www.w3.org/1999/xlink"
	 x="0px" y="0px" viewBox="0 0 106.61 109.74" style="enable-background:new 0 0 106.61 109.74;" xml:space="preserve">
<style type="text/css">
	.st0{fill:#e4d1aa;}
	.st1{fill:#FFFFFF;}
</style>
<g>
	<polygon class="st0" points="18.99,14.56 18.87,14.54 18.98,14.55 	"/>
	<path class="st0" d="M105.44,85.26l-1.8,9.18l-5.73-3.94l-1.97,3.11l-6.67-0.68l-1.02,2.9h-2.92l1.01,11.18L85,107.9l-0.59,0.39
		l-0.57,0.38l-5.02-1.07l-0.27-0.06L77.32,105l-1.5-3.09l-0.28,0.01l-0.49,0.03l-2.81,0.14h-0.05l-0.04-0.85l-0.17-3.69v-0.01
		l0.06-0.06l3.71-3.37l-0.34-0.33l-1.17-1.15l-7.15-7.01H66.6l-23.43-0.13l-7.92-0.04l-0.6-0.01h-0.68l0.15-0.21l0.06-0.08v-0.01
		l0.44-0.61l1.13-1.6l4.86-6.86l2.6,0.65l0.21,0.05l0.47,0.12l1.01-5.04l0.31-0.03l0.68-0.07l1.32-0.13l0.26-0.03l0.17,1.11
		l0.33,2.17v0.01l0.01,0.07L48,74.94l0.48-0.14l0.68-0.21l2.44-0.75l0.04-0.49l0.1-1.42l1-13.43l0.01-0.2l-0.49-0.16l-0.92-0.31
		l-0.14,0.14l-2.4,2.4l-1.66-0.15l-1-0.09l-0.21-0.02l1.25-2.49l0.25-0.5l0.01-0.03l-0.76,0.03l-3.56,0.14l0.12-0.47l0.2-0.82
		l0.05-0.22l-10.71-1.84l-7.16-7.5l-0.11-0.12l-11.88-2.24l-2.4-1.55l-0.13-0.08l-8.44-5.46l-0.43-0.28L1.8,36.41l-0.09-0.06
		l0.08-0.06l0.61-0.48l3.42-2.72l2.13-1.69v-1.88L7.9,29.5l-0.5-0.25l-1.14-0.57l-0.01-0.11L5.28,20.1l2.54,0.54l1.07,0.23
		l0.07,0.01l3.99-4.66l0.01-0.01l1.22-1.43l0.14-0.16l2.28,2.45l2.06-2.06l0.08,0.01l0.02-0.03l0.07,0.05h0.01l1.21,0.18l0.58,0.09
		l0.31,0.05l6.82-5.63l0.23-0.08H28l0.16-0.14l4.4-1.41l0.03-0.01h0.01l0.17-0.06L54.93,0.5l11.49,0.12l6.29,0.06l0.07,0.28
		l0.7,1.41l0.43,0.18l1.78,0.76l0.36,0.05l0.19,0.03l1.2-1.5l9.45-0.18l0.08,0.08l0.47,0.47l2.37,2.38L88.95,5.5l3.17,3.18
		l-5.49-0.92L86.58,8.3c-0.12,1.42,0.12,4.69,0.43,7.18l0.03,0.28l-2.66,2.06l-1.94-0.45l-5.57,45.1h6.85l0.17,17.92L105.44,85.26z"
		/>
	<path class="st1" d="M76.05,3.36L75.7,3.32l0.45,0.19l0.09-0.12L76.05,3.36z M28.16,9.51L28,9.65l4.56-1.55L28.16,9.51z
		 M18.76,14.99l-0.02,0.03l0.09,0.02L18.76,14.99z M76.05,3.36L75.7,3.32l0.45,0.19l0.09-0.12L76.05,3.36z M28.16,9.51L28,9.65
		l4.56-1.55L28.16,9.51z M18.76,14.99l-0.02,0.03l0.09,0.02L18.76,14.99z M76.05,3.36L75.7,3.32l0.45,0.19l0.09-0.12L76.05,3.36z
		 M28.16,9.51L28,9.65l4.56-1.55L28.16,9.51z M18.76,14.99l-0.02,0.03l0.09,0.02L18.76,14.99z M76.05,3.36L75.7,3.32l0.45,0.19
		l0.09-0.12L76.05,3.36z M28.16,9.51L28,9.65l4.56-1.55L28.16,9.51z M18.76,14.99l-0.02,0.03l0.09,0.02L18.76,14.99z M76.05,3.36
		L75.7,3.32l0.45,0.19l0.09-0.12L76.05,3.36z M28.16,9.51L28,9.65l4.56-1.55L28.16,9.51z M18.76,14.99l-0.02,0.03l0.09,0.02
		L18.76,14.99z M76.05,3.36L75.7,3.32l0.45,0.19l0.09-0.12L76.05,3.36z M28.16,9.51L28,9.65l4.56-1.55L28.16,9.51z M18.76,14.99
		l-0.02,0.03l0.09,0.02L18.76,14.99z M76.05,3.36L75.7,3.32l0.45,0.19l0.09-0.12L76.05,3.36z M28.16,9.51L28,9.65l4.56-1.55
		L28.16,9.51z M18.76,14.99l-0.02,0.03l0.09,0.02L18.76,14.99z M76.05,3.36L75.7,3.32l0.45,0.19l0.09-0.12L76.05,3.36z M28.16,9.51
		L28,9.65l4.56-1.55L28.16,9.51z M18.76,14.99l-0.02,0.03l0.09,0.02L18.76,14.99z M76.05,3.36L75.7,3.32l0.45,0.19l0.09-0.12
		L76.05,3.36z M28.16,9.51L28,9.65l4.56-1.55L28.16,9.51z M18.76,14.99l-0.02,0.03l0.09,0.02L18.76,14.99z M76.05,3.36L75.7,3.32
		l0.45,0.19l0.09-0.12L76.05,3.36z M28.16,9.51L28,9.65l4.56-1.55L28.16,9.51z M18.76,14.99l-0.02,0.03l0.09,0.02L18.76,14.99z
		 M76.05,3.36L75.7,3.32l0.45,0.19l0.09-0.12L76.05,3.36z M28.16,9.51L28,9.65l4.56-1.55L28.16,9.51z M18.76,14.99l-0.02,0.03
		l0.09,0.02L18.76,14.99z M76.05,3.36L75.7,3.32l0.45,0.19l0.09-0.12L76.05,3.36z M28.16,9.51L28,9.65l4.56-1.55L28.16,9.51z
		 M18.76,14.99l-0.02,0.03l0.09,0.02L18.76,14.99z M76.05,3.36L75.7,3.32l0.45,0.19l0.09-0.12L76.05,3.36z M28.16,9.51L28,9.65
		l4.56-1.55L28.16,9.51z M18.76,14.99l-0.02,0.03l0.09,0.02L18.76,14.99z M76.05,3.36L75.7,3.32l0.45,0.19l0.09-0.12L76.05,3.36z
		 M28.16,9.51L28,9.65l4.56-1.55L28.16,9.51z M18.76,14.99l-0.02,0.03l0.09,0.02L18.76,14.99z M76.05,3.36L75.7,3.32l0.45,0.19
		l0.09-0.12L76.05,3.36z M28.16,9.51L28,9.65l4.56-1.55L28.16,9.51z M18.76,14.99l-0.02,0.03l0.09,0.02L18.76,14.99z M76.05,3.36
		L75.7,3.32l0.45,0.19l0.09-0.12L76.05,3.36z M28.16,9.51L28,9.65l4.56-1.55L28.16,9.51z M18.76,14.99l-0.02,0.03l0.09,0.02
		L18.76,14.99z M76.05,3.36L75.7,3.32l0.45,0.19l0.09-0.12L76.05,3.36z M28.16,9.51L28,9.65l4.56-1.55L28.16,9.51z M18.76,14.99
		l-0.02,0.03l0.09,0.02L18.76,14.99z M76.05,3.36L75.7,3.32l0.45,0.19l0.09-0.12L76.05,3.36z M28.16,9.51L28,9.65l4.56-1.55
		L28.16,9.51z M18.76,14.99l-0.02,0.03l0.09,0.02L18.76,14.99z M0.01,36.43L0,36.44l0.46,0.3L0.01,36.43z M76.05,3.36l-0.36-0.05
		l0.01,0.01l0.45,0.19l0.09-0.12L76.05,3.36z M75.83,2.83l0.16,0.07l0.03-0.04L75.83,2.83z M18.98,14.55l-0.11-0.01l0.12,0.02
		L18.98,14.55z M18.76,14.99l-0.02,0.03l0.09,0.02L18.76,14.99z M28.16,9.51L28,9.65l4.56-1.55L28.16,9.51z M28.01,9.03l-0.17,0.15
		l4.94-1.68L28.01,9.03z M18.76,14.99l-0.02,0.03l0.09,0.02L18.76,14.99z M28.16,9.51L28,9.65l4.56-1.55L28.16,9.51z M76.05,3.36
		L75.7,3.32l0.45,0.19l0.09-0.12L76.05,3.36z M18.76,14.99l-0.02,0.03l0.09,0.02L18.76,14.99z M28.16,9.51L28,9.65l4.56-1.55
		L28.16,9.51z M76.05,3.36L75.7,3.32l0.45,0.19l0.09-0.12L76.05,3.36z M18.76,14.99l-0.02,0.03l0.09,0.02L18.76,14.99z M28.16,9.51
		L28,9.65l4.56-1.55L28.16,9.51z M76.05,3.36L75.7,3.32l0.45,0.19l0.09-0.12L76.05,3.36z M18.76,14.99l-0.02,0.03l0.09,0.02
		L18.76,14.99z M28.16,9.51L28,9.65l4.56-1.55L28.16,9.51z M76.05,3.36L75.7,3.32l0.45,0.19l0.09-0.12L76.05,3.36z M18.76,14.99
		l-0.02,0.03l0.09,0.02L18.76,14.99z M28.16,9.51L28,9.65l4.56-1.55L28.16,9.51z M76.05,3.36L75.7,3.32l0.45,0.19l0.09-0.12
		L76.05,3.36z M18.76,14.99l-0.02,0.03l0.09,0.02L18.76,14.99z M28.16,9.51L28,9.65l4.56-1.55L28.16,9.51z M76.05,3.36L75.7,3.32
		l0.45,0.19l0.09-0.12L76.05,3.36z M18.76,14.99l-0.02,0.03l0.09,0.02L18.76,14.99z M28.16,9.51L28,9.65l4.56-1.55L28.16,9.51z
		 M76.05,3.36L75.7,3.32l0.45,0.19l0.09-0.12L76.05,3.36z M18.76,14.99l-0.02,0.03l0.09,0.02L18.76,14.99z M28.16,9.51L28,9.65
		l4.56-1.55L28.16,9.51z M76.05,3.36L75.7,3.32l0.45,0.19l0.09-0.12L76.05,3.36z M18.76,14.99l-0.02,0.03l0.09,0.02L18.76,14.99z
		 M28.16,9.51L28,9.65l4.56-1.55L28.16,9.51z M76.05,3.36L75.7,3.32l0.45,0.19l0.09-0.12L76.05,3.36z M18.76,14.99l-0.02,0.03
		l0.09,0.02L18.76,14.99z M28.16,9.51L28,9.65l4.56-1.55L28.16,9.51z M76.05,3.36L75.7,3.32l0.45,0.19l0.09-0.12L76.05,3.36z
		 M18.76,14.99l-0.02,0.03l0.09,0.02L18.76,14.99z M28.16,9.51L28,9.65l4.56-1.55L28.16,9.51z M76.05,3.36L75.7,3.32l0.45,0.19
		l0.09-0.12L76.05,3.36z M18.76,14.99l-0.02,0.03l0.09,0.02L18.76,14.99z M28.16,9.51L28,9.65l4.56-1.55L28.16,9.51z M76.05,3.36
		L75.7,3.32l0.45,0.19l0.09-0.12L76.05,3.36z M18.76,14.99l-0.02,0.03l0.09,0.02L18.76,14.99z M28.16,9.51L28,9.65l4.56-1.55
		L28.16,9.51z M76.05,3.36L75.7,3.32l0.45,0.19l0.09-0.12L76.05,3.36z M18.76,14.99l-0.02,0.03l0.09,0.02L18.76,14.99z M28.16,9.51
		L28,9.65l4.56-1.55L28.16,9.51z M76.05,3.36L75.7,3.32l0.45,0.19l0.09-0.12L76.05,3.36z M18.76,14.99l-0.02,0.03l0.09,0.02
		L18.76,14.99z M28.16,9.51L28,9.65l4.56-1.55L28.16,9.51z M76.05,3.36L75.7,3.32l0.45,0.19l0.09-0.12L76.05,3.36z M18.76,14.99
		l-0.02,0.03l0.09,0.02L18.76,14.99z M28.16,9.51L28,9.65l4.56-1.55L28.16,9.51z M76.05,3.36L75.7,3.32l0.45,0.19l0.09-0.12
		L76.05,3.36z M18.76,14.99l-0.02,0.03l0.09,0.02L18.76,14.99z M28.16,9.51L28,9.65l4.56-1.55L28.16,9.51z M76.05,3.36L75.7,3.32
		l0.45,0.19l0.09-0.12L76.05,3.36z M18.76,14.99l-0.02,0.03l0.09,0.02L18.76,14.99z M28.16,9.51L28,9.65l4.56-1.55L28.16,9.51z
		 M76.05,3.36L75.7,3.32l0.45,0.19l0.09-0.12L76.05,3.36z M18.76,14.99l-0.02,0.03l0.09,0.02L18.76,14.99z M28.16,9.51L28,9.65
		l4.56-1.55L28.16,9.51z M76.05,3.36l-0.36-0.05l0.01,0.01l0.45,0.19l0.09-0.12L76.05,3.36z M72.78,0.96l0.31,1.24l0.39,0.17
		L72.78,0.96z M72.78,0.96l0.31,1.24l0.39,0.17L72.78,0.96z M72.78,0.96l0.31,1.24l0.39,0.17L72.78,0.96z M72.78,0.96l0.31,1.24
		l0.39,0.17L72.78,0.96z M72.78,0.96l0.31,1.24l0.39,0.17L72.78,0.96z M72.78,0.96l0.31,1.24l0.39,0.17L72.78,0.96z M72.78,0.96
		l0.31,1.24l0.39,0.17L72.78,0.96z M72.78,0.96l0.31,1.24l0.39,0.17L72.78,0.96z M72.78,0.96l0.31,1.24l0.39,0.17L72.78,0.96z
		 M72.78,0.96l0.31,1.24l0.39,0.17L72.78,0.96z M72.78,0.96l0.31,1.24l0.39,0.17L72.78,0.96z M72.78,0.96l0.31,1.24l0.39,0.17
		L72.78,0.96z M72.78,0.96l0.31,1.24l0.39,0.17L72.78,0.96z M72.78,0.96l0.31,1.24l0.39,0.17L72.78,0.96z M72.78,0.96l0.31,1.24
		l0.39,0.17L72.78,0.96z M72.78,0.96l0.31,1.24l0.39,0.17L72.78,0.96z M72.78,0.96l0.31,1.24l0.39,0.17L72.78,0.96z M72.78,0.96
		l0.31,1.24l0.39,0.17L72.78,0.96z"/>
</g>
</svg>
