<?xml version="1.0" encoding="utf-8"?>
<!-- Generator: Adobe Illustrator 24.0.0, SVG Export Plug-In . SVG Version: 6.00 Build 0)  -->
<svg version="1.1" id="_x2014_ÎÓÈ_x5F_1" xmlns="http://www.w3.org/2000/svg" xmlns:xlink="http://www.w3.org/1999/xlink"
	 x="0px" y="0px" viewBox="0 0 175.35 186.73" style="enable-background:new 0 0 175.35 186.73;" xml:space="preserve">
<style type="text/css">
	.st0{fill:#e4d1aa;}
	.st1{fill:#FFFFFF;}
</style>
<g>
	<polygon class="st0" points="142.46,8.67 141.59,8.62 142.48,8.64 	"/>
	<polygon class="st0" points="173.69,10.51 173.6,12.31 164.94,17.66 141.19,24.14 141.19,35.88 145.76,41.12 144.06,49.91 
		138.88,56.46 137.79,56.4 137.79,54 135.86,52.39 130.02,51.84 130.38,58.34 128.21,58.51 128.21,69.42 131.46,73.52 131.22,76.71 
		129.08,78.14 129.08,81.02 135.4,86.32 149.37,86.32 150.68,85.01 152.98,86.51 153.3,103.64 151.08,107.4 149.81,133.52 
		150.16,133.79 150.3,133.53 150.24,134.47 150.23,134.59 149.77,134.24 137.6,125.07 137.58,125.39 137.54,126.03 136.61,140.33 
		127.23,161.48 130.82,164.92 131.09,165.17 146.91,179.89 149.56,185.6 148.98,185.56 79.01,180.16 35.85,153.01 18.1,110.98 
		13.82,84.62 2.13,78.05 4.8,76.71 4.95,75.26 5,74.73 5.02,74.52 14.07,79.26 14.16,79.31 16.47,80.52 21.1,80.52 23.01,83.11 
		36.38,83.11 36.71,81.77 36.72,81.71 36.73,81.69 36.74,81.66 37.88,77.11 44.75,71.19 55.13,66.17 54.96,59.22 60.33,52.29 
		59.98,28.25 64.49,21.57 64.27,21.38 64.09,21.23 62.22,19.62 62.43,15.32 69.31,14.44 71.87,8.36 71.87,7.49 71.74,5.53 
		74.04,3.23 75.65,1.36 77.48,1.36 79.08,1.13 79.48,1.08 79.48,0.84 79.67,1.05 79.73,1.04 79.98,1.35 80.29,1.75 80.31,1.78 
		80.36,1.84 80.39,1.87 81.18,2.76 82.88,3.44 82.9,3.45 82.95,3.47 83,3.49 83.05,3.5 87.66,5.03 88.93,5.04 88.72,5.34 
		88.39,5.82 88.25,6.02 93.73,6.02 99.25,8.61 125.53,9.12 128.56,12.82 132.84,13.57 133.41,12.98 133.54,12.84 137.26,8.98 
		142.88,9.15 148.33,2.38 166.33,10.47 	"/>
	<path class="st1" d="M133.41,12.98h0.04l0.09-0.14L133.41,12.98z M141.59,8.62l0.87,0.05l0.02-0.03L141.59,8.62z M127.23,161.48
		l-0.03,0.07l3.62,3.37L127.23,161.48z M81.18,2.76l-0.79-0.89l0.81,1.01l1.68,0.56L81.18,2.76z M79.48,0.84v0.24l0.19-0.03
		L79.48,0.84z M75.65,1.36l-1.61,1.87l1.61-1.61l1.83-0.26H75.65z M71.87,7.49v0.87l0.05-0.12L71.87,7.49z M133.41,12.98h0.04
		l0.09-0.14L133.41,12.98z M141.59,8.62l0.87,0.05l0.02-0.03L141.59,8.62z M127.23,161.48l-0.03,0.07l3.62,3.37L127.23,161.48z
		 M81.18,2.76l-0.79-0.89l0.81,1.01l1.68,0.56L81.18,2.76z M79.48,0.84v0.24l0.19-0.03L79.48,0.84z M75.65,1.36l-1.61,1.87
		l1.61-1.61l1.83-0.26H75.65z M71.87,7.49v0.87l0.05-0.12L71.87,7.49z M133.41,12.98h0.04l0.09-0.14L133.41,12.98z M141.59,8.62
		l0.87,0.05l0.02-0.03L141.59,8.62z M127.23,161.48l-0.03,0.07l3.62,3.37L127.23,161.48z M81.18,2.76l-0.79-0.89l0.81,1.01
		l1.68,0.56L81.18,2.76z M79.48,0.84v0.24l0.19-0.03L79.48,0.84z M75.65,1.36l-1.61,1.87l1.61-1.61l1.83-0.26H75.65z M71.87,7.49
		v0.87l0.05-0.12L71.87,7.49z M133.41,12.98h0.04l0.09-0.14L133.41,12.98z M141.59,8.62l0.87,0.05l0.02-0.03L141.59,8.62z
		 M127.23,161.48l-0.03,0.07l3.62,3.37L127.23,161.48z M81.18,2.76l-0.79-0.89l0.81,1.01l1.68,0.56L81.18,2.76z M79.48,0.84v0.24
		l0.19-0.03L79.48,0.84z M75.65,1.36l-1.61,1.87l1.61-1.61l1.83-0.26H75.65z M71.87,7.49v0.87l0.05-0.12L71.87,7.49z M133.41,12.98
		h0.04l0.09-0.14L133.41,12.98z M141.59,8.62l0.87,0.05l0.02-0.03L141.59,8.62z M127.23,161.48l-0.03,0.07l3.62,3.37L127.23,161.48z
		 M81.18,2.76l-0.79-0.89l0.81,1.01l1.68,0.56L81.18,2.76z M79.48,0.84v0.24l0.19-0.03L79.48,0.84z M75.65,1.36l-1.61,1.87
		l1.61-1.61l1.83-0.26H75.65z M71.87,7.49v0.87l0.05-0.12L71.87,7.49z M133.41,12.98h0.04l0.09-0.14L133.41,12.98z M141.59,8.62
		l0.87,0.05l0.02-0.03L141.59,8.62z M127.23,161.48l-0.03,0.07l3.62,3.37L127.23,161.48z M81.18,2.76l-0.79-0.89l0.81,1.01
		l1.68,0.56L81.18,2.76z M79.48,0.84v0.24l0.19-0.03L79.48,0.84z M75.65,1.36l-1.61,1.87l1.61-1.61l1.83-0.26H75.65z M71.87,7.49
		v0.87l0.05-0.12L71.87,7.49z M133.41,12.98h0.04l0.09-0.14L133.41,12.98z M141.59,8.62l0.87,0.05l0.02-0.03L141.59,8.62z
		 M127.23,161.48l-0.03,0.07l3.62,3.37L127.23,161.48z M81.18,2.76l-0.79-0.89l0.81,1.01l1.68,0.56L81.18,2.76z M79.48,0.84v0.24
		l0.19-0.03L79.48,0.84z M75.65,1.36l-1.61,1.87l1.61-1.61l1.83-0.26H75.65z M71.87,7.49v0.87l0.05-0.12L71.87,7.49z M133.41,12.98
		h0.04l0.09-0.14L133.41,12.98z M141.59,8.62l0.87,0.05l0.02-0.03L141.59,8.62z M127.23,161.48l-0.03,0.07l3.62,3.37L127.23,161.48z
		 M81.18,2.76l-0.79-0.89l0.81,1.01l1.68,0.56L81.18,2.76z M79.48,0.84v0.24l0.19-0.03L79.48,0.84z M75.65,1.36l-1.61,1.87
		l1.61-1.61l1.83-0.26H75.65z M71.87,7.49v0.87l0.05-0.12L71.87,7.49z M133.41,12.98h0.04l0.09-0.14L133.41,12.98z M141.59,8.62
		l0.87,0.05l0.02-0.03L141.59,8.62z M127.23,161.48l-0.03,0.07l3.62,3.37L127.23,161.48z M81.18,2.76l-0.79-0.89l0.81,1.01
		l1.68,0.56L81.18,2.76z M79.48,0.84v0.24l0.19-0.03L79.48,0.84z M75.65,1.36l-1.61,1.87l1.61-1.61l1.83-0.26H75.65z M71.87,7.49
		v0.87l0.05-0.12L71.87,7.49z M133.41,12.98h0.04l0.09-0.14L133.41,12.98z M141.59,8.62l0.87,0.05l0.02-0.03L141.59,8.62z
		 M127.23,161.48l-0.03,0.07l3.62,3.37L127.23,161.48z M81.18,2.76l-0.79-0.89l0.81,1.01l1.68,0.56L81.18,2.76z M79.48,0.84v0.24
		l0.19-0.03L79.48,0.84z M75.65,1.36l-1.61,1.87l1.61-1.61l1.83-0.26H75.65z M71.87,7.49v0.87l0.05-0.12L71.87,7.49z M133.41,12.98
		h0.04l0.09-0.14L133.41,12.98z M141.59,8.62l0.87,0.05l0.02-0.03L141.59,8.62z M127.23,161.48l-0.03,0.07l3.62,3.37L127.23,161.48z
		 M81.18,2.76l-0.79-0.89l0.81,1.01l1.68,0.56L81.18,2.76z M79.48,0.84v0.24l0.19-0.03L79.48,0.84z M75.65,1.36l-1.61,1.87
		l1.61-1.61l1.83-0.26H75.65z M71.87,7.49v0.87l0.05-0.12L71.87,7.49z M133.41,12.98h0.04l0.09-0.14L133.41,12.98z M141.59,8.62
		l0.87,0.05l0.02-0.03L141.59,8.62z M127.23,161.48l-0.03,0.07l3.62,3.37L127.23,161.48z M81.18,2.76l-0.79-0.89l0.81,1.01
		l1.68,0.56L81.18,2.76z M79.48,0.84v0.24l0.19-0.03L79.48,0.84z M75.65,1.36l-1.61,1.87l1.61-1.61l1.83-0.26H75.65z M71.87,7.49
		v0.87l0.05-0.12L71.87,7.49z M133.41,12.98h0.04l0.09-0.14L133.41,12.98z M141.59,8.62l0.87,0.05l0.02-0.03L141.59,8.62z
		 M127.23,161.48l-0.03,0.07l3.62,3.37L127.23,161.48z M81.18,2.76l-0.79-0.89l0.81,1.01l1.68,0.56L81.18,2.76z M79.48,0.84v0.24
		l0.19-0.03L79.48,0.84z M75.65,1.36l-1.61,1.87l1.61-1.61l1.83-0.26H75.65z M71.87,7.49v0.87l0.05-0.12L71.87,7.49z M133.41,12.98
		h0.04l0.09-0.14L133.41,12.98z M141.59,8.62l0.87,0.05l0.02-0.03L141.59,8.62z M127.23,161.48l-0.03,0.07l3.62,3.37L127.23,161.48z
		 M81.18,2.76l-0.79-0.89l0.81,1.01l1.68,0.56L81.18,2.76z M79.48,0.84v0.24l0.19-0.03L79.48,0.84z M75.65,1.36l-1.61,1.87
		l1.61-1.61l1.83-0.26H75.65z M71.87,7.49v0.87l0.05-0.12L71.87,7.49z M133.41,12.98h0.04l0.09-0.14L133.41,12.98z M141.59,8.62
		l0.87,0.05l0.02-0.03L141.59,8.62z M127.23,161.48l-0.03,0.07l3.62,3.37L127.23,161.48z M81.18,2.76l-0.79-0.89l0.81,1.01
		l1.68,0.56L81.18,2.76z M79.48,0.84v0.24l0.19-0.03L79.48,0.84z M75.65,1.36l-1.61,1.87l1.61-1.61l1.83-0.26H75.65z M71.87,7.49
		v0.87l0.05-0.12L71.87,7.49z M133.41,12.98h0.04l0.09-0.14L133.41,12.98z M141.59,8.62l0.87,0.05l0.02-0.03L141.59,8.62z
		 M127.23,161.48l-0.03,0.07l3.62,3.37L127.23,161.48z M81.18,2.76l-0.79-0.89l0.81,1.01l1.68,0.56L81.18,2.76z M79.48,0.84v0.24
		l0.19-0.03L79.48,0.84z M75.65,1.36l-1.61,1.87l1.61-1.61l1.83-0.26H75.65z M71.87,7.49v0.87l0.05-0.12L71.87,7.49z M133.41,12.98
		h0.04l0.09-0.14L133.41,12.98z M141.59,8.62l0.87,0.05l0.02-0.03L141.59,8.62z M127.23,161.48l-0.03,0.07l3.62,3.37L127.23,161.48z
		 M81.18,2.76l-0.79-0.89l0.81,1.01l1.68,0.56L81.18,2.76z M79.48,0.84v0.24l0.19-0.03L79.48,0.84z M75.65,1.36l-1.61,1.87
		l1.61-1.61l1.83-0.26H75.65z M71.87,7.49v0.87l0.05-0.12L71.87,7.49z M133.41,12.98h0.04l0.09-0.14L133.41,12.98z M127.23,161.48
		l-0.03,0.07l3.62,3.37L127.23,161.48z M81.18,2.76l-0.79-0.89l0.81,1.01l1.68,0.56L81.18,2.76z M79.48,0.84v0.24l0.19-0.03
		L79.48,0.84z M75.65,1.36l-1.61,1.87l1.61-1.61l1.83-0.26H75.65z M71.87,7.49v0.87l0.05-0.12L71.87,7.49z M133.41,12.98h0.04
		l0.09-0.14L133.41,12.98z M127.23,161.48l-0.03,0.07l3.62,3.37L127.23,161.48z M81.18,2.76l-0.79-0.89l0.81,1.01l1.68,0.56
		L81.18,2.76z M79.48,0.84v0.24l0.19-0.03L79.48,0.84z M75.65,1.36l-1.61,1.87l1.61-1.61l1.83-0.26H75.65z M71.87,7.49v0.87
		l0.05-0.12L71.87,7.49z M133.41,12.98h0.04l0.09-0.14L133.41,12.98z M141.59,8.62l0.87,0.05l0.02-0.03L141.59,8.62z M81.18,2.76
		l-0.79-0.89l0.81,1.01l1.68,0.56L81.18,2.76z M81.48,2.34l-0.59-0.66l0.61,0.77l1.51,0.5L81.48,2.34z M71.87,7.49v0.87l0.05-0.12
		L71.87,7.49z M75.65,1.36l-1.61,1.87l1.61-1.61l1.83-0.26H75.65z M79.48,0.84v0.24l0.19-0.03L79.48,0.84z M127.23,161.48
		l-0.03,0.07l3.62,3.37L127.23,161.48z M71.87,7.49v0.87l0.05-0.12L71.87,7.49z M75.65,1.36l-1.61,1.87l1.61-1.61l1.83-0.26H75.65z
		 M79.48,0.84v0.24l0.19-0.03L79.48,0.84z M81.18,2.76l-0.79-0.89l0.81,1.01l1.68,0.56L81.18,2.76z M127.23,161.48l-0.03,0.07
		l3.62,3.37L127.23,161.48z M133.41,12.98h0.04l0.09-0.14L133.41,12.98z M71.87,7.49v0.87l0.05-0.12L71.87,7.49z M75.65,1.36
		l-1.61,1.87l1.61-1.61l1.83-0.26H75.65z M79.48,0.84v0.24l0.19-0.03L79.48,0.84z M81.18,2.76l-0.79-0.89l0.81,1.01l1.68,0.56
		L81.18,2.76z M127.23,161.48l-0.03,0.07l3.62,3.37L127.23,161.48z M133.41,12.98h0.04l0.09-0.14L133.41,12.98z M71.87,7.49v0.87
		l0.05-0.12L71.87,7.49z M75.65,1.36l-1.61,1.87l1.61-1.61l1.83-0.26H75.65z M79.48,0.84v0.24l0.19-0.03L79.48,0.84z M81.18,2.76
		l-0.79-0.89l0.81,1.01l1.68,0.56L81.18,2.76z M127.23,161.48l-0.03,0.07l3.62,3.37L127.23,161.48z M133.41,12.98h0.04l0.09-0.14
		L133.41,12.98z M71.87,7.49v0.87l0.05-0.12L71.87,7.49z M75.65,1.36l-1.61,1.87l1.61-1.61l1.83-0.26H75.65z M79.48,0.84v0.24
		l0.19-0.03L79.48,0.84z M81.18,2.76l-0.79-0.89l0.81,1.01l1.68,0.56L81.18,2.76z M127.23,161.48l-0.03,0.07l3.62,3.37
		L127.23,161.48z M133.41,12.98h0.04l0.09-0.14L133.41,12.98z M141.59,8.62l0.87,0.05l0.02-0.03L141.59,8.62z M71.87,7.49v0.87
		l0.05-0.12L71.87,7.49z M75.65,1.36l-1.61,1.87l1.61-1.61l1.83-0.26H75.65z M79.48,0.84v0.24l0.19-0.03L79.48,0.84z M81.18,2.76
		l-0.79-0.89l0.81,1.01l1.68,0.56L81.18,2.76z M127.23,161.48l-0.03,0.07l3.62,3.37L127.23,161.48z M133.41,12.98h0.04l0.09-0.14
		L133.41,12.98z M141.59,8.62l0.87,0.05l0.02-0.03L141.59,8.62z M71.87,7.49v0.87l0.05-0.12L71.87,7.49z M75.65,1.36l-1.61,1.87
		l1.61-1.61l1.83-0.26H75.65z M79.48,0.84v0.24l0.19-0.03L79.48,0.84z M81.18,2.76l-0.79-0.89l0.81,1.01l1.68,0.56L81.18,2.76z
		 M127.23,161.48l-0.03,0.07l3.62,3.37L127.23,161.48z M133.41,12.98h0.04l0.09-0.14L133.41,12.98z M141.59,8.62l0.87,0.05
		l0.02-0.03L141.59,8.62z M71.87,7.49v0.87l0.05-0.12L71.87,7.49z M75.65,1.36l-1.61,1.87l1.61-1.61l1.83-0.26H75.65z M79.48,0.84
		v0.24l0.19-0.03L79.48,0.84z M81.18,2.76l-0.79-0.89l0.81,1.01l1.68,0.56L81.18,2.76z M127.23,161.48l-0.03,0.07l3.62,3.37
		L127.23,161.48z M133.41,12.98h0.04l0.09-0.14L133.41,12.98z M141.59,8.62l0.87,0.05l0.02-0.03L141.59,8.62z M71.87,7.49v0.87
		l0.05-0.12L71.87,7.49z M75.65,1.36l-1.61,1.87l1.61-1.61l1.83-0.26H75.65z M79.48,0.84v0.24l0.19-0.03L79.48,0.84z M81.18,2.76
		l-0.79-0.89l0.81,1.01l1.68,0.56L81.18,2.76z M127.23,161.48l-0.03,0.07l3.62,3.37L127.23,161.48z M133.41,12.98h0.04l0.09-0.14
		L133.41,12.98z M141.59,8.62l0.87,0.05l0.02-0.03L141.59,8.62z M71.87,7.49v0.87l0.05-0.12L71.87,7.49z M75.65,1.36l-1.61,1.87
		l1.61-1.61l1.83-0.26H75.65z M79.48,0.84v0.24l0.19-0.03L79.48,0.84z M81.18,2.76l-0.79-0.89l0.81,1.01l1.68,0.56L81.18,2.76z
		 M127.23,161.48l-0.03,0.07l3.62,3.37L127.23,161.48z M133.41,12.98h0.04l0.09-0.14L133.41,12.98z M141.59,8.62l0.87,0.05
		l0.02-0.03L141.59,8.62z M71.87,7.49v0.87l0.05-0.12L71.87,7.49z M75.65,1.36l-1.61,1.87l1.61-1.61l1.83-0.26H75.65z M79.48,0.84
		v0.24l0.19-0.03L79.48,0.84z M81.18,2.76l-0.79-0.89l0.81,1.01l1.68,0.56L81.18,2.76z M127.23,161.48l-0.03,0.07l3.62,3.37
		L127.23,161.48z M133.41,12.98h0.04l0.09-0.14L133.41,12.98z M141.59,8.62l0.87,0.05l0.02-0.03L141.59,8.62z M71.87,7.49v0.87
		l0.05-0.12L71.87,7.49z M75.65,1.36l-1.61,1.87l1.61-1.61l1.83-0.26H75.65z M79.48,0.84v0.24l0.19-0.03L79.48,0.84z M81.18,2.76
		l-0.79-0.89l0.81,1.01l1.68,0.56L81.18,2.76z M127.23,161.48l-0.03,0.07l3.62,3.37L127.23,161.48z M133.41,12.98h0.04l0.09-0.14
		L133.41,12.98z M141.59,8.62l0.87,0.05l0.02-0.03L141.59,8.62z M71.87,7.49v0.87l0.05-0.12L71.87,7.49z M75.65,1.36l-1.61,1.87
		l1.61-1.61l1.83-0.26H75.65z M79.48,0.84v0.24l0.19-0.03L79.48,0.84z M81.18,2.76l-0.79-0.89l0.81,1.01l1.68,0.56L81.18,2.76z
		 M127.23,161.48l-0.03,0.07l3.62,3.37L127.23,161.48z M133.41,12.98h0.04l0.09-0.14L133.41,12.98z M141.59,8.62l0.87,0.05
		l0.02-0.03L141.59,8.62z M71.87,7.49v0.87l0.05-0.12L71.87,7.49z M75.65,1.36l-1.61,1.87l1.61-1.61l1.83-0.26H75.65z M79.48,0.84
		v0.24l0.19-0.03L79.48,0.84z M81.18,2.76l-0.79-0.89l0.81,1.01l1.68,0.56L81.18,2.76z M127.23,161.48l-0.03,0.07l3.62,3.37
		L127.23,161.48z M133.41,12.98h0.04l0.09-0.14L133.41,12.98z M141.59,8.62l0.87,0.05l0.02-0.03L141.59,8.62z M71.87,7.49v0.87
		l0.05-0.12L71.87,7.49z M75.65,1.36l-1.61,1.87l1.61-1.61l1.83-0.26H75.65z M79.48,0.84v0.24l0.19-0.03L79.48,0.84z M81.18,2.76
		l-0.79-0.89l0.81,1.01l1.68,0.56L81.18,2.76z M127.23,161.48l-0.03,0.07l3.62,3.37L127.23,161.48z M133.41,12.98h0.04l0.09-0.14
		L133.41,12.98z M141.59,8.62l0.87,0.05l0.02-0.03L141.59,8.62z M71.87,7.49v0.87l0.05-0.12L71.87,7.49z M75.65,1.36l-1.61,1.87
		l1.61-1.61l1.83-0.26H75.65z M79.48,0.84v0.24l0.19-0.03L79.48,0.84z M81.18,2.76l-0.79-0.89l0.81,1.01l1.68,0.56L81.18,2.76z
		 M127.23,161.48l-0.03,0.07l3.62,3.37L127.23,161.48z M133.41,12.98h0.04l0.09-0.14L133.41,12.98z M141.59,8.62l0.87,0.05
		l0.02-0.03L141.59,8.62z M71.87,7.49v0.87l0.05-0.12L71.87,7.49z M75.65,1.36l-1.61,1.87l1.61-1.61l1.83-0.26H75.65z M79.48,0.84
		v0.24l0.19-0.03L79.48,0.84z M81.18,2.76l-0.79-0.89l0.81,1.01l1.68,0.56L81.18,2.76z M127.23,161.48l-0.03,0.07l3.62,3.37
		L127.23,161.48z M133.41,12.98h0.04l0.09-0.14L133.41,12.98z M141.59,8.62l0.87,0.05l0.02-0.03L141.59,8.62z M71.87,7.49v0.87
		l0.05-0.12L71.87,7.49z M75.65,1.36l-1.61,1.87l1.61-1.61l1.83-0.26H75.65z M79.48,0.84v0.24l0.19-0.03L79.48,0.84z M81.18,2.76
		l-0.79-0.89l0.81,1.01l1.68,0.56L81.18,2.76z M127.23,161.48l-0.03,0.07l3.62,3.37L127.23,161.48z M133.41,12.98h0.04l0.09-0.14
		L133.41,12.98z M141.59,8.62l0.87,0.05l0.02-0.03L141.59,8.62z M71.87,7.49v0.87l0.05-0.12L71.87,7.49z M75.65,1.36l-1.61,1.87
		l1.61-1.61l1.83-0.26H75.65z M79.48,0.84v0.24l0.19-0.03L79.48,0.84z M81.18,2.76l-0.79-0.89l0.81,1.01l1.68,0.56L81.18,2.76z
		 M127.23,161.48l-0.03,0.07l3.62,3.37L127.23,161.48z M133.41,12.98h0.04l0.09-0.14L133.41,12.98z M141.59,8.62l0.87,0.05
		l0.02-0.03L141.59,8.62z M71.87,7.49v0.87l0.05-0.12L71.87,7.49z M75.65,1.36l-1.61,1.87l1.61-1.61l1.83-0.26H75.65z M79.48,0.84
		v0.24l0.19-0.03L79.48,0.84z M81.18,2.76l-0.79-0.89l0.81,1.01l1.68,0.56L81.18,2.76z M127.23,161.48l-0.03,0.07l3.62,3.37
		L127.23,161.48z M133.41,12.98h0.04l0.09-0.14L133.41,12.98z M141.59,8.62l0.87,0.05l0.02-0.03L141.59,8.62z M71.87,7.49v0.87
		l0.05-0.12L71.87,7.49z M75.65,1.36l-1.61,1.87l1.61-1.61l1.83-0.26H75.65z M79.48,0.84v0.24l0.19-0.03L79.48,0.84z M81.18,2.76
		l-0.79-0.89l0.81,1.01l1.68,0.56L81.18,2.76z M127.23,161.48l-0.03,0.07l3.62,3.37L127.23,161.48z M133.41,12.98h0.04l0.09-0.14
		L133.41,12.98z M141.59,8.62l0.87,0.05l0.02-0.03L141.59,8.62z"/>
</g>
</svg>
