<?xml version="1.0" encoding="utf-8"?>
<!-- Generator: Adobe Illustrator 24.0.0, SVG Export Plug-In . SVG Version: 6.00 Build 0)  -->
<svg version="1.1" id="_x2014_ÎÓÈ_x5F_1" xmlns="http://www.w3.org/2000/svg" xmlns:xlink="http://www.w3.org/1999/xlink"
	 x="0px" y="0px" viewBox="0 0 64.19 44.03" style="enable-background:new 0 0 64.19 44.03;" xml:space="preserve">
<style type="text/css">
	.st0{fill:#e4d1aa;}
	.st1{fill:#FFFFFF;}
</style>
<g>
	<polygon class="st0" points="64.19,13.16 56.43,30.02 46.73,30.02 43.26,32.41 38.44,41.88 34.68,42.26 32.84,40.75 16.45,40.75 
		13.17,44.03 1.96,43.89 4.79,12.54 1.31,9.56 3.9,1.05 4.02,0.64 5.64,1.47 5.78,1.55 5.87,1.6 14.76,6.26 23.3,8.05 23.56,7.45 
		23.77,6.43 23.89,6.44 27.83,6.58 27.91,6.63 27.98,6.63 28.26,6.84 32.3,9.83 32.33,9.85 32.35,9.86 32.38,9.88 33.21,10.38 
		36.69,7.06 50.65,12.46 61.44,8.04 61.64,8.42 61.88,8.86 	"/>
	<path class="st1" d="M32.38,9.88l0.75,0.57l0.08-0.07L32.38,9.88z M27.83,6.58l-3.94-0.14l4.02,0.19L27.83,6.58z M23.3,8.05
		l0.13,0.03l0.13-0.63L23.3,8.05z M32.38,9.88l0.75,0.57l0.08-0.07L32.38,9.88z M27.83,6.58l-3.94-0.14l4.02,0.19L27.83,6.58z
		 M23.3,8.05l0.13,0.03l0.13-0.63L23.3,8.05z M32.72,9.52l0.37,0.27l0.04-0.04L32.72,9.52z M32.38,9.88l0.75,0.57l0.08-0.07
		L32.38,9.88z M27.83,6.58l-3.94-0.14l4.02,0.19L27.83,6.58z M23.3,8.05l0.13,0.03l0.13-0.63L23.3,8.05z M32.72,9.52l0.37,0.27
		l0.04-0.04L32.72,9.52z M32.38,9.88l0.75,0.57l0.08-0.07L32.38,9.88z M32.38,9.88l0.75,0.57l0.08-0.07L32.38,9.88z M27.83,6.58
		l-3.94-0.14l4.02,0.19L27.83,6.58z M32.38,9.88l0.75,0.57l0.08-0.07L32.38,9.88z M23.3,8.05l0.13,0.03l0.13-0.63L23.3,8.05z
		 M27.83,6.58l-3.94-0.14l4.02,0.19L27.83,6.58z M32.38,9.88l0.75,0.57l0.08-0.07L32.38,9.88z"/>
</g>
</svg>
