<?xml version="1.0" encoding="utf-8"?>
<!-- Generator: Adobe Illustrator 24.0.0, SVG Export Plug-In . SVG Version: 6.00 Build 0)  -->
<svg version="1.1" id="_x2014_ÎÓÈ_x5F_1" xmlns="http://www.w3.org/2000/svg" xmlns:xlink="http://www.w3.org/1999/xlink"
	 x="0px" y="0px" viewBox="0 0 122.3 146.61" style="enable-background:new 0 0 122.3 146.61;" xml:space="preserve">
<style type="text/css">
	.st0{fill:#e4d1aa;}
	.st1{fill:#FFFFFF;}
</style>
<g>
	<line class="st0" x1="70.55" y1="28.38" x2="70.53" y2="28.4"/>
	<polygon class="st0" points="70.91,28.02 70.48,27.74 70.55,27.67 70.99,27.94 	"/>
	<polygon class="st0" points="121.28,49.71 120.79,62.9 120.74,64.29 120.69,64.32 118.21,65.56 117.57,65.88 117.53,65.77 
		116.69,63.67 116.26,62.59 116.11,62.22 113.89,62.22 113.86,62.33 112.47,67.74 112.46,67.77 112.26,67.69 109.71,66.67 
		104.8,73.9 103.72,75.48 103.31,76.09 103.25,76.18 103.17,76.2 101.67,76.6 80.44,82.2 79.02,82.57 49.67,90.31 49.46,90.36 
		49.4,90.48 39.2,109.73 22.56,141.16 22.03,142.17 22.04,142 22.09,140.85 22.09,140.84 22.12,140.28 22.13,140.06 22.15,139.66 
		23.36,114.88 25.6,111.09 25.48,104.76 25.48,104.72 25.26,93.15 25.02,92.99 21.84,90.92 20.25,92.51 7.05,92.51 1.37,87.75 
		1.37,85.86 2.91,84.84 2.93,84.83 2.97,84.8 3.47,84.46 3.48,84.36 3.78,80.4 3.75,80.36 2.23,78.45 0.5,76.26 0.5,66.63 
		0.79,66.61 2.73,66.46 2.72,66.33 2.69,65.82 2.38,60.13 2.92,60.18 6.74,60.55 8.08,61.66 8.08,64.54 10.64,64.67 10.81,64.46 
		16.29,57.53 17.82,49.58 17.83,49.54 18.04,47.93 17.6,47.42 16.11,45.71 13.48,42.7 13.48,32.09 36.56,25.8 45.86,20.07 
		45.98,17.71 46,17.21 46.05,16.22 46.08,15.72 46.34,10.45 46.35,10.33 46.73,2.76 47.1,3.22 65.09,25.29 70.6,29.04 70.98,28.66 
		70.55,28.38 70.65,28.28 71.09,28.55 79.64,33.66 79.71,33.7 82.28,35.24 94.2,37.38 101.35,45.04 101.46,45.16 112.49,46.94 
		112.75,46.98 112.29,47.76 111.79,48.59 116.37,48.59 115.19,51.1 115.15,51.19 117.95,51.19 120,48.75 120.25,48.94 121.07,49.55 
		121.27,49.71 	"/>
	<path class="st1" d="M70.55,27.67l-0.07,0.07l0.43,0.28l0.08-0.08L70.55,27.67z M18.04,47.93l-0.21,1.61l0.29-1.52L18.04,47.93z
		 M17.51,48.09l-0.17,1.3l0.24-1.22L17.51,48.09z M46.72,0l-0.03,0.78l0.03,0.04l0.04-0.76L46.72,0z"/>
</g>
</svg>
